<svg version="1.1" id="Layer_1" xmlns="http://www.w3.org/2000/svg" xmlns:xlink="http://www.w3.org/1999/xlink" x="0px" y="0px"
	 width="100%" viewBox="0 0 302 428" enable-background="new 0 0 302 428" xml:space="preserve">
<path fill="#FEFFFF" opacity="1.000000" stroke="none" 
	d="
M148.000000,429.000000 
	C98.683388,429.000000 49.866776,429.000000 1.025083,429.000000 
	C1.025083,286.398926 1.025083,143.797821 1.025083,1.098363 
	C101.566536,1.098363 202.133194,1.098363 302.849915,1.098363 
	C302.849915,143.666534 302.849915,286.333252 302.849915,429.000000 
	C251.464584,429.000000 199.982285,429.000000 148.000000,429.000000 
M249.775665,49.535179 
	C249.479019,49.377369 249.182373,49.219559 247.967102,48.962917 
	C233.504852,48.944790 219.040482,48.793320 204.582245,49.025154 
	C201.811844,49.069572 198.695938,50.053467 196.365616,51.567638 
	C173.792923,66.234711 151.327499,81.067657 128.886871,95.936852 
	C115.894554,104.545570 103.003609,113.307251 89.558434,122.669151 
	C89.458527,133.127792 89.358620,143.586441 88.290756,154.110870 
	C76.874687,154.110870 65.458618,154.110870 53.467403,154.110870 
	C53.467403,156.651398 53.467403,158.608032 53.467403,160.564682 
	C53.467308,214.103165 53.471825,267.641632 53.450306,321.180115 
	C53.449444,323.329498 53.201946,325.478760 52.249702,327.944580 
	C48.123898,329.365021 43.399223,329.947357 39.995995,332.379028 
	C32.744705,337.560394 30.322109,345.348145 32.042557,354.011749 
	C33.906902,363.400024 40.082130,368.968842 49.118725,372.321960 
	C49.118725,377.422516 49.118725,382.523071 49.118725,387.742859 
	C52.595570,387.742859 55.388798,387.742859 59.086788,387.877258 
	C81.690750,387.866211 104.294716,387.855164 127.840134,387.952515 
	C133.180710,387.913300 138.521301,387.874084 144.758331,387.967407 
	C146.551788,387.907043 148.345230,387.846680 151.051422,387.899323 
	C162.745361,387.771912 174.439316,387.644470 187.020584,387.475342 
	C191.400009,387.565002 195.779419,387.654633 201.068588,387.864960 
	C211.026123,387.814911 220.983673,387.764893 231.824554,387.879333 
	C234.471848,387.810760 237.119141,387.742188 240.693008,387.856354 
	C243.616180,387.856354 246.539352,387.856354 249.991272,387.856354 
	C249.991272,376.827362 249.991272,366.415405 250.863800,356.019958 
	C252.609970,356.043945 254.356155,356.067963 255.987671,356.831848 
	C254.800858,366.925629 258.155670,372.295074 268.032532,377.057190 
	C268.032532,380.599731 268.032532,384.142273 268.032532,387.697693 
	C270.649078,387.697693 272.534729,387.697693 274.867249,387.697693 
	C274.867249,383.668091 274.867249,379.930573 275.546783,375.892578 
	C284.341156,372.443604 287.963043,367.085846 287.220581,358.058441 
	C285.357910,349.570374 281.234253,345.852570 271.958954,343.429230 
	C271.945526,342.108704 271.763062,340.763885 271.948669,339.471954 
	C272.652679,334.571716 270.898529,332.565674 265.712463,332.981354 
	C260.465698,333.401978 255.155746,333.034302 249.903931,332.163239 
	C249.854019,330.474609 249.804108,328.785950 249.887360,326.169434 
	C249.843704,322.415710 249.800034,318.662018 249.877991,314.034851 
	C249.837082,311.386993 249.796188,308.739105 249.886871,305.164124 
	C249.845474,301.413727 249.804092,297.663330 249.879700,293.086731 
	C249.355026,290.271057 248.830353,287.455414 248.616623,284.307068 
	C248.825867,283.906982 249.035095,283.506927 249.685852,282.431610 
	C249.686798,279.577667 249.687744,276.723724 249.840088,272.994232 
	C249.802124,270.031036 249.764145,267.067841 249.871552,263.179504 
	C249.807510,259.745636 249.743454,256.311768 249.849808,252.007080 
	C249.811188,249.038406 249.772568,246.069717 249.872833,242.175888 
	C249.813095,238.745392 249.753357,235.314911 249.854813,231.010864 
	C249.802170,228.045547 249.749512,225.080215 249.858658,221.192459 
	C249.817612,217.760986 249.776566,214.329529 249.874435,210.020706 
	C249.812195,207.057205 249.749954,204.093689 249.863144,200.353989 
	C249.829788,199.564346 249.796432,198.774719 249.898605,197.100204 
	C249.841476,194.695602 249.784348,192.291016 249.859253,189.005951 
	C249.801086,186.042618 249.742920,183.079285 249.852615,179.194504 
	C249.815369,175.762695 249.778137,172.330872 249.871918,168.027695 
	C249.841064,165.380859 249.810196,162.734039 249.903336,159.177612 
	C249.768295,155.434937 249.633270,151.692245 249.451447,147.048248 
	C249.375137,144.294403 249.298813,141.540573 249.568192,138.072418 
	C249.629211,134.350464 249.690216,130.628494 249.875900,126.033813 
	C249.835480,123.386452 249.795059,120.739098 249.887085,117.164658 
	C249.848404,113.413559 249.809708,109.662460 249.881683,105.036819 
	C249.832413,102.392143 249.783142,99.747475 249.872406,96.199028 
	C249.655334,92.541512 249.438263,88.883987 249.371429,84.286263 
	C249.381851,81.508217 249.392273,78.730171 249.773117,75.265747 
	C249.737930,71.802635 249.702744,68.339531 249.844147,63.979286 
	C249.836609,59.341347 249.829071,54.703411 249.775665,49.535179 
z"/>
<path fill="#A4C6FA" opacity="1.000000" stroke="none" 
	d="
M143.861877,387.834839 
	C138.521301,387.874084 133.180710,387.913300 127.447250,387.446808 
	C127.092400,385.112427 127.163513,383.283783 127.163658,381.455109 
	C127.169250,307.908173 127.166466,234.361252 127.178085,160.814316 
	C127.178429,158.655472 127.321999,156.496658 127.823151,154.304031 
	C131.828522,154.178864 135.409500,154.087479 139.459839,153.996307 
	C155.103378,153.996506 170.277557,153.996506 186.037155,153.996506 
	C186.037155,156.467209 186.037155,158.246353 186.032547,160.471848 
	C186.034363,163.596207 186.040787,166.274231 186.035309,169.414505 
	C186.033066,173.271820 186.042740,176.666885 186.043350,180.508392 
	C186.037781,183.954575 186.041245,186.954346 186.031891,190.295654 
	C186.024246,191.091675 186.029419,191.546143 186.026520,192.451569 
	C186.029465,195.623276 186.040512,198.344009 186.045532,201.514160 
	C186.041534,204.960022 186.043549,207.956451 186.033966,211.414886 
	C186.030792,215.268570 186.039169,218.660263 186.039459,222.499542 
	C186.038071,225.944901 186.044800,228.942688 186.038239,232.403015 
	C186.030914,236.257965 186.036896,239.650360 186.035706,243.491760 
	C186.035767,246.938736 186.042984,249.936737 186.037048,253.397675 
	C186.030869,257.255310 186.037857,260.649994 186.037216,264.493042 
	C186.037781,267.938934 186.045959,270.936462 186.040161,274.396973 
	C186.032715,278.254730 186.039230,281.649506 186.038895,285.489197 
	C186.035675,288.612030 186.039307,291.289917 186.032379,294.431030 
	C186.030548,298.609894 186.039291,302.325531 186.040527,306.486237 
	C186.037689,309.606506 186.042358,312.281708 186.035095,315.420776 
	C186.029419,319.603516 186.035645,323.322357 186.036652,327.468079 
	C186.035416,329.609528 186.039398,331.324127 185.571716,333.077087 
	C169.873718,333.115417 154.647385,333.115417 139.053345,333.115417 
	C139.053345,337.912048 139.053345,342.020599 138.849091,346.387573 
	C132.973572,350.605865 130.167282,356.020660 131.256561,362.897369 
	C132.385193,370.022522 137.053833,374.200562 143.788055,376.684326 
	C143.805283,380.697266 143.833572,384.266052 143.861877,387.834839 
M181.983353,248.383911 
	C181.141830,246.932999 180.459641,244.379684 179.429947,244.230865 
	C175.856400,243.714401 172.155685,243.917191 168.518692,244.120346 
	C167.675262,244.167480 166.269119,245.246277 166.209488,245.943375 
	C166.078995,247.468552 166.696716,250.421173 166.920746,250.412872 
	C171.924622,250.227493 176.916489,249.718704 181.983353,248.383911 
M166.022964,158.617645 
	C166.864716,160.068863 167.547043,162.622604 168.577118,162.771545 
	C172.150925,163.288269 175.851990,163.085556 179.489319,162.882370 
	C180.331985,162.835281 181.736450,161.754959 181.796249,161.057037 
	C181.926880,159.531876 181.309296,156.579132 181.085876,156.587463 
	C176.081940,156.773743 171.090027,157.283081 166.022964,158.617645 
M142.527466,175.002197 
	C144.017975,175.002060 145.513153,174.926559 146.997940,175.018692 
	C149.490814,175.173355 151.074326,174.688446 151.064850,171.587326 
	C151.055923,168.670929 149.846817,167.840439 147.172165,167.966370 
	C144.032333,168.114227 140.846588,167.751877 137.753220,168.160004 
	C136.723694,168.295807 135.140976,170.174149 135.201904,171.170883 
	C135.282150,172.483398 136.489868,174.090271 137.674637,174.856354 
	C138.612640,175.462875 140.246292,174.993515 142.527466,175.002197 
M139.480133,298.002441 
	C140.975571,297.999146 142.672424,298.436157 143.910370,297.869934 
	C145.172073,297.292816 146.750793,295.745789 146.776001,294.592529 
	C146.801620,293.420013 145.223267,291.332306 144.133835,291.180817 
	C140.874390,290.727692 137.445602,290.654053 134.220016,291.217316 
	C132.965012,291.436493 131.696121,293.634521 131.214615,295.175232 
	C131.031143,295.762299 132.886856,297.442535 134.085739,297.883362 
	C135.404099,298.368103 137.036270,297.999359 139.480133,298.002441 
M157.913681,178.727020 
	C154.055542,178.152252 150.203293,177.533386 146.337265,177.017838 
	C143.660461,176.660889 142.972122,178.133255 142.949524,180.577255 
	C142.925400,183.186798 143.965149,184.153717 146.504715,184.020035 
	C148.986374,183.889404 151.497070,183.810837 153.964935,184.037399 
	C157.449310,184.357269 158.389603,182.670166 157.913681,178.727020 
M148.391052,241.000000 
	C151.007584,240.845276 154.276138,242.035767 154.064331,237.208542 
	C153.861008,232.574753 150.587616,234.279495 148.307434,234.042786 
	C146.340668,233.838608 144.328674,234.109253 142.349030,233.980286 
	C139.670471,233.805771 138.965652,235.110565 138.948120,237.563126 
	C138.929703,240.143539 139.916824,241.201614 142.476730,241.017914 
	C144.124939,240.899628 145.788742,240.998474 148.391052,241.000000 
z"/>
<path fill="#5266AC" opacity="1.000000" stroke="none" 
	d="
M127.398773,154.337830 
	C127.321999,156.496658 127.178429,158.655472 127.178085,160.814316 
	C127.166466,234.361252 127.169250,307.908173 127.163658,381.455109 
	C127.163513,383.283783 127.092400,385.112427 126.976532,387.392609 
	C104.294716,387.855164 81.690750,387.866211 58.609142,387.362122 
	C58.129955,381.734406 58.128410,376.621796 58.485470,371.373535 
	C70.444221,367.956177 76.704468,359.020020 75.803078,346.877014 
	C75.921288,346.444397 75.965385,346.270508 76.380241,346.081543 
	C77.492928,346.038086 78.234863,346.009705 79.326736,345.988770 
	C80.143288,345.975708 80.609894,345.955261 81.538620,345.974976 
	C88.353050,345.923065 94.705368,345.830994 101.513245,345.837616 
	C108.172745,345.936310 114.376671,345.936310 120.558777,345.936310 
	C120.558777,339.249603 120.558777,333.354950 120.558777,327.240753 
	C113.848984,327.240753 107.449089,327.240753 100.583511,327.146606 
	C93.757645,327.045044 87.397476,327.037598 80.703506,327.015686 
	C79.925247,326.991791 79.480782,326.982391 78.566879,326.943420 
	C73.628677,326.907898 69.157196,326.811096 64.692612,326.944794 
	C63.116390,326.992035 61.557045,327.602631 59.548782,327.959991 
	C57.055527,328.017548 55.003487,328.071106 52.929581,327.988342 
	C52.907722,327.851990 53.069366,327.628082 53.069366,327.628082 
	C53.201946,325.478760 53.449444,323.329498 53.450306,321.180115 
	C53.471825,267.641632 53.467308,214.103165 53.467403,160.564682 
	C53.467403,158.608032 53.467403,156.651398 53.467403,154.110870 
	C65.458618,154.110870 76.874687,154.110870 89.223961,154.059540 
	C102.571037,154.118088 114.984901,154.227966 127.398773,154.337830 
M99.399155,179.638107 
	C93.248375,179.749710 87.097595,179.861313 80.374481,179.968140 
	C79.994667,179.946915 79.614861,179.925674 78.273796,179.801147 
	C72.350800,179.801147 66.427803,179.801147 60.151928,179.801147 
	C60.151928,186.251450 60.151928,192.500916 60.063877,199.529205 
	C60.061668,200.049332 60.059460,200.569473 60.039490,202.015045 
	C60.039490,207.867905 60.039490,213.720764 60.039490,220.337448 
	C67.006378,219.924423 73.161674,219.559525 79.759315,219.390976 
	C80.220627,219.571716 80.681931,219.752457 82.060822,219.955475 
	C87.705406,219.979965 93.349983,220.004456 98.991196,220.566101 
	C98.969574,220.920532 98.947952,221.274948 98.011147,221.762085 
	C92.269569,222.151108 86.527985,222.540131 80.322098,222.942429 
	C80.014290,222.940155 79.707527,222.921173 78.731415,222.287048 
	C72.651314,222.287048 66.571205,222.287048 60.430096,222.287048 
	C60.430096,228.213913 60.430096,234.404648 60.430096,240.812653 
	C67.105515,240.812653 73.388138,240.812653 80.389191,240.922150 
	C80.629539,240.924698 80.869881,240.927231 82.031898,240.968765 
	C87.967094,240.943665 93.902290,240.918579 100.547646,240.913986 
	C100.782700,240.891098 101.017746,240.868210 102.154449,240.927429 
	C108.246292,240.927429 114.338135,240.927429 120.634216,240.927429 
	C120.634216,234.175613 120.634216,228.093567 120.634216,222.184326 
	C113.942734,222.184326 107.495018,222.184326 101.024605,221.364456 
	C101.040085,220.818573 101.055565,220.272705 101.987144,219.879593 
	C108.178711,219.879593 114.370277,219.879593 120.909332,219.879593 
	C120.909332,213.689148 121.020081,208.256592 120.784706,202.839066 
	C120.751099,202.065308 119.042007,201.364349 118.051216,200.110123 
	C118.040520,199.756195 118.029823,199.402283 118.840698,198.975479 
	C119.486961,198.555878 120.684929,198.149979 120.695732,197.714630 
	C120.831573,192.240585 120.884628,186.759232 120.696014,181.288818 
	C120.671394,180.574875 119.168488,179.307663 118.367966,179.321472 
	C112.609451,179.420715 106.855515,179.784607 100.534149,180.025970 
	C100.345589,180.022186 100.157021,180.018402 99.399155,179.638107 
M99.013710,242.943375 
	C93.019547,242.970581 87.025375,242.997772 80.364655,242.999603 
	C79.920525,242.991791 79.476387,242.983994 78.093964,242.912125 
	C72.177139,242.912125 66.260307,242.912125 60.361958,242.912125 
	C60.361958,249.312805 60.361958,255.374451 60.361958,261.872223 
	C66.782768,261.872223 72.884117,261.872223 79.016777,262.566589 
	C79.012100,263.028015 79.007423,263.489441 78.067337,263.904419 
	C72.156021,263.904419 66.244713,263.904419 60.365864,263.904419 
	C60.365864,270.320282 60.365864,276.376587 60.365864,282.858337 
	C66.788208,282.858337 72.885674,282.858337 79.015823,283.553345 
	C79.019180,284.014923 79.022545,284.476501 78.087761,284.888214 
	C72.170609,284.888214 66.253456,284.888214 60.373428,284.888214 
	C60.373428,291.349426 60.373428,297.406311 60.373428,303.833496 
	C66.796150,303.833496 72.895851,303.833496 78.851234,304.390564 
	C78.550407,304.874176 78.249588,305.357819 77.021133,305.879425 
	C71.453979,305.879425 65.886818,305.879425 60.352325,305.879425 
	C60.352325,312.340790 60.352325,318.390381 60.352325,324.929871 
	C66.746178,324.929871 72.832268,324.929871 79.652779,324.972809 
	C80.141930,324.945801 80.631088,324.918793 82.039055,324.959717 
	C87.976257,324.946014 93.913460,324.932281 100.522713,324.940613 
	C100.746216,324.923828 100.969727,324.907013 102.104134,324.950317 
	C108.204674,324.950317 114.305214,324.950317 120.648941,324.950317 
	C120.648941,318.217865 120.648941,312.141052 120.648941,305.794983 
	C114.293213,305.794983 108.160934,305.794983 102.015846,305.203735 
	C102.011139,304.806335 102.006424,304.408966 102.938255,303.993347 
	C108.806641,303.993347 114.675026,303.993347 120.695984,303.993347 
	C120.695984,297.090790 120.695984,291.046417 120.695984,284.931519 
	C119.345116,284.859375 118.200699,284.798248 117.027000,284.185059 
	C117.024048,283.813385 117.021088,283.441742 117.854446,283.006531 
	C118.870331,282.074005 120.712296,281.185516 120.764755,280.201599 
	C121.052628,274.802216 120.902092,269.379425 120.902092,263.790009 
	C114.255829,263.790009 108.149361,263.790009 102.020622,263.206146 
	C102.014374,262.813049 102.008118,262.419983 102.937996,261.993011 
	C108.719009,261.993011 114.500023,261.993011 120.474854,261.993011 
	C120.474854,255.333313 120.474854,249.295013 120.474854,243.075943 
	C113.768959,243.075943 107.460625,243.075943 100.545815,243.033554 
	C100.343666,243.032562 100.141510,243.031555 99.013710,242.943375 
M101.421272,158.110184 
	C100.849297,158.180237 100.277321,158.250275 98.813805,158.221451 
	C92.871193,158.476334 86.928589,158.731216 80.432243,158.762390 
	C79.869354,158.587219 79.306465,158.412033 77.841156,158.196915 
	C72.092064,158.196915 66.342964,158.196915 60.343723,158.196915 
	C60.343723,165.004745 60.343723,171.196228 60.343723,177.910126 
	C66.727486,177.910126 72.813133,177.910126 79.643707,177.964020 
	C80.140808,177.934769 80.637909,177.905502 82.051910,177.943100 
	C87.974861,177.904846 93.897812,177.866608 100.557281,177.934128 
	C101.049545,177.943710 101.541801,177.953293 102.966652,177.968857 
	C108.837608,177.968857 114.708565,177.968857 120.446762,177.968857 
	C120.446762,170.888580 120.446762,164.705109 120.446762,158.247437 
	C114.107155,158.247437 108.191574,158.247437 101.421272,158.110184 
z"/>
<path fill="#684CAD" opacity="1.000000" stroke="none" 
	d="
M90.067047,122.000092 
	C103.003609,113.307251 115.894554,104.545570 128.886871,95.936852 
	C151.327499,81.067657 173.792923,66.234711 196.365616,51.567638 
	C198.695938,50.053467 201.811844,49.069572 204.582245,49.025154 
	C219.040482,48.793320 233.504852,48.944790 248.408905,49.232006 
	C248.850723,49.501095 248.747818,49.929741 248.415375,49.990334 
	C240.677536,54.992020 233.272141,59.933113 225.550140,65.002411 
	C220.179932,68.475258 215.126358,71.819901 209.752502,75.265076 
	C204.886276,78.541695 200.340302,81.717773 195.475098,85.008636 
	C189.734604,88.731461 184.313354,92.339493 178.682236,95.981537 
	C178.472382,96.015541 178.110016,96.238770 177.792023,96.332146 
	C172.929749,99.590942 168.385483,102.756371 163.507141,105.996948 
	C157.751923,109.694870 152.330765,113.317635 146.594635,117.055107 
	C143.830032,118.778137 141.380432,120.386444 138.466522,121.998352 
	C122.023827,122.001328 106.045433,122.000710 90.067047,122.000092 
z"/>
<path fill="#A3C7FA" opacity="1.000000" stroke="none" 
	d="
M256.102325,356.091949 
	C254.356155,356.067963 252.609970,356.043945 249.967346,356.017273 
	C245.969589,356.060638 242.868286,356.106659 239.340088,356.087341 
	C236.263153,356.045624 233.613068,356.069244 230.500443,356.028809 
	C220.063690,356.000427 210.089508,356.036102 199.659348,356.049988 
	C197.684784,355.980927 196.166168,355.933624 194.694214,355.430542 
	C194.489273,347.670807 194.237686,340.366852 194.455612,333.057343 
	C213.241226,333.038544 231.557343,333.025269 249.873459,333.011963 
	C255.155746,333.034302 260.465698,333.401978 265.712463,332.981354 
	C270.898529,332.565674 272.652679,334.571716 271.948669,339.471954 
	C271.763062,340.763885 271.945526,342.108704 271.924164,344.334717 
	C271.889374,348.663300 271.889374,352.086426 271.889374,355.781403 
	C268.508026,355.977295 265.751190,356.137024 262.573914,356.195496 
	C260.136383,356.093475 258.119354,356.092712 256.102325,356.091949 
z"/>
<path fill="#584392" opacity="1.000000" stroke="none" 
	d="
M89.812744,122.334625 
	C106.045433,122.000710 122.023827,122.001328 138.483826,122.420753 
	C139.045715,124.245712 139.125992,125.651863 139.121826,127.507439 
	C139.096069,131.617676 139.154785,135.278488 139.127258,139.389404 
	C139.089615,142.573807 139.138229,145.308136 139.106033,148.460938 
	C139.013657,150.584991 139.002075,152.290543 138.990479,153.996094 
	C135.409500,154.087479 131.828522,154.178864 127.823151,154.304031 
	C114.984901,154.227966 102.571037,154.118088 89.707939,154.026642 
	C89.358620,143.586441 89.458527,133.127792 89.812744,122.334625 
z"/>
<path fill="#99DEFF" opacity="1.000000" stroke="none" 
	d="
M139.213516,138.939301 
	C139.154785,135.278488 139.096069,131.617676 139.573639,127.496498 
	C176.657028,126.992935 213.204117,126.949738 249.751221,126.906540 
	C249.690216,130.628494 249.629211,134.350464 248.908356,138.497894 
	C211.903519,138.928680 175.558517,138.933990 139.213516,138.939301 
z"/>
<path fill="#99DEFF" opacity="1.000000" stroke="none" 
	d="
M146.909607,116.940392 
	C152.330765,113.317635 157.751923,109.694870 163.989410,106.033867 
	C193.127487,105.967537 221.449249,105.939453 249.771011,105.911362 
	C249.809708,109.662460 249.848404,113.413559 249.375137,117.596268 
	C216.766052,118.013153 184.668884,118.015991 152.571899,117.939217 
	C150.683685,117.934700 148.796997,117.288162 146.909607,116.940392 
z"/>
<path fill="#9ADFFF" opacity="1.000000" stroke="none" 
	d="
M139.459839,153.996307 
	C139.002075,152.290543 139.013657,150.584991 139.559479,148.450928 
	C176.561890,147.998123 213.030060,147.973846 249.498230,147.949585 
	C249.633270,151.692245 249.768295,155.434937 249.393524,159.598480 
	C227.934845,160.021408 206.986008,160.023453 186.037155,160.025513 
	C186.037155,158.246353 186.037155,156.467209 186.037155,153.996506 
	C170.277557,153.996506 155.103378,153.996506 139.459839,153.996307 
z"/>
<path fill="#3C5183" opacity="1.000000" stroke="none" 
	d="
M200.115311,356.071747 
	C210.089508,356.036102 220.063690,356.000427 230.513397,356.489685 
	C230.973007,367.248016 230.957108,377.481445 230.941208,387.714874 
	C220.983673,387.764893 211.026123,387.814911 200.588287,387.354980 
	C200.110428,376.587250 200.112869,366.329498 200.115311,356.071747 
z"/>
<path fill="#73C2F7" opacity="1.000000" stroke="none" 
	d="
M249.474838,147.498917 
	C213.030060,147.973846 176.561890,147.998123 139.640274,148.032425 
	C139.138229,145.308136 139.089615,142.573807 139.127258,139.389404 
	C175.558517,138.933990 211.903519,138.928680 248.735504,138.855042 
	C249.298813,141.540573 249.375137,144.294403 249.474838,147.498917 
z"/>
<path fill="#73C2F7" opacity="1.000000" stroke="none" 
	d="
M146.594635,117.055107 
	C148.796997,117.288162 150.683685,117.934700 152.571899,117.939217 
	C184.668884,118.015991 216.766052,118.013153 249.308914,118.059799 
	C249.795059,120.739098 249.835480,123.386452 249.813568,126.470177 
	C213.204117,126.949738 176.657028,126.992935 139.658112,127.047073 
	C139.125992,125.651863 139.045715,124.245712 138.948120,122.417160 
	C141.380432,120.386444 143.830032,118.778137 146.594635,117.055107 
z"/>
<path fill="#89B3E3" opacity="1.000000" stroke="none" 
	d="
M186.133255,387.517029 
	C174.439316,387.644470 162.745361,387.771912 150.593048,387.405060 
	C150.137268,383.353912 150.139893,379.796997 150.477722,376.108521 
	C157.558044,373.687347 162.091202,369.527649 162.731552,361.654785 
	C162.766006,360.851715 162.703278,360.388428 162.704971,359.716034 
	C162.769394,359.506897 162.626068,359.093384 162.680878,358.669922 
	C162.551636,357.714691 162.367599,357.182892 162.309845,356.520752 
	C162.436142,356.390381 162.538101,356.042053 163.035065,356.015045 
	C171.033691,356.039856 178.535339,356.091675 186.029633,356.603058 
	C186.059250,367.214111 186.096252,377.365601 186.133255,387.517029 
z"/>
<path fill="#99DEFF" opacity="1.000000" stroke="none" 
	d="
M186.041870,327.041229 
	C186.035645,323.322357 186.029419,319.603516 186.498215,315.438904 
	C207.900940,314.964905 228.828659,314.936615 249.756363,314.908295 
	C249.800034,318.662018 249.843704,322.415710 249.375183,326.599609 
	C227.922623,327.033600 206.982239,327.037415 186.041870,327.041229 
z"/>
<path fill="#99DEFF" opacity="1.000000" stroke="none" 
	d="
M186.048035,306.041199 
	C186.039291,302.325531 186.030548,298.609894 186.495987,294.447571 
	C207.901016,293.971619 228.831863,293.942261 249.762711,293.912933 
	C249.804092,297.663330 249.845474,301.413727 249.375305,305.595825 
	C227.925156,306.032074 206.986588,306.036621 186.048035,306.041199 
z"/>
<path fill="#9ADFFF" opacity="1.000000" stroke="none" 
	d="
M178.892090,95.947525 
	C184.313354,92.339493 189.734604,88.731461 195.961227,85.054535 
	C214.251465,85.065918 231.736328,85.146194 249.221191,85.226471 
	C249.438263,88.883987 249.655334,92.541512 249.359314,96.619324 
	C225.893250,97.011246 202.940292,96.982880 179.862762,96.731041 
	C179.456146,96.320885 179.174118,96.134209 178.892090,95.947525 
z"/>
<path fill="#72C2F7" opacity="1.000000" stroke="none" 
	d="
M179.987335,96.954514 
	C202.940292,96.982880 225.893250,97.011246 249.290039,97.071205 
	C249.783142,99.747475 249.832413,102.392143 249.826355,105.474091 
	C221.449249,105.939453 193.127487,105.967537 164.323456,105.958710 
	C168.385483,102.756371 172.929749,99.590942 177.965881,96.530807 
	C178.967590,96.742241 179.477463,96.848373 179.987335,96.954514 
z"/>
<path fill="#9BDFFF" opacity="1.000000" stroke="none" 
	d="
M186.044830,264.044678 
	C186.037857,260.649994 186.030869,257.255310 186.499847,253.412689 
	C207.877014,252.935822 228.778214,252.906876 249.679398,252.877914 
	C249.743454,256.311768 249.807510,259.745636 249.356018,263.610260 
	C227.908615,264.042236 206.976715,264.043457 186.044830,264.044678 
z"/>
<path fill="#9BDFFF" opacity="1.000000" stroke="none" 
	d="
M186.047562,222.051956 
	C186.039169,218.660263 186.030792,215.268570 186.497314,211.430328 
	C207.893326,210.955215 228.814438,210.926636 249.735535,210.898056 
	C249.776566,214.329529 249.817612,217.760986 249.337814,221.622543 
	C227.893829,222.052414 206.970703,222.052185 186.047562,222.051956 
z"/>
<path fill="#9BDFFF" opacity="1.000000" stroke="none" 
	d="
M186.042877,243.042770 
	C186.036896,239.650360 186.030914,236.257965 186.500885,232.418274 
	C207.882416,231.942139 228.788025,231.913284 249.693634,231.884430 
	C249.753357,235.314911 249.813095,238.745392 249.359634,242.608124 
	C227.911911,243.041168 206.977402,243.041977 186.042877,243.042770 
z"/>
<path fill="#9BDFFF" opacity="1.000000" stroke="none" 
	d="
M186.052399,180.061951 
	C186.042740,176.666885 186.033066,173.271820 186.498413,169.432129 
	C207.895905,168.958023 228.818405,168.928543 249.740891,168.899048 
	C249.778137,172.330872 249.815369,175.762695 249.329865,179.625671 
	C227.888885,180.058533 206.970642,180.060242 186.052399,180.061951 
z"/>
<path fill="#049523" opacity="1.000000" stroke="none" 
	d="
M75.728973,347.135712 
	C76.704468,359.020020 70.444221,367.956177 58.105309,371.298553 
	C54.638466,371.392853 51.910389,371.426483 49.182312,371.460114 
	C40.082130,368.968842 33.906902,363.400024 32.042557,354.011749 
	C30.322109,345.348145 32.744705,337.560394 39.995995,332.379028 
	C43.399223,329.947357 48.123898,329.365021 52.659534,327.786316 
	C53.069366,327.628082 52.907722,327.851990 52.729397,328.244873 
	C45.538670,332.113190 41.548996,337.462555 41.998672,345.590668 
	C42.387352,352.616180 45.967087,357.793335 52.370651,360.006927 
	C61.265541,363.081696 72.099068,361.265381 75.728973,347.135712 
z"/>
<path fill="#9BE0FF" opacity="1.000000" stroke="none" 
	d="
M186.045746,285.044250 
	C186.039230,281.649506 186.032715,278.254730 186.502533,274.412415 
	C206.985886,273.975372 226.992950,273.985840 246.993362,274.384583 
	C246.112091,277.991608 244.935440,281.292206 249.244324,283.106842 
	C249.035095,283.506927 248.825867,283.906982 247.975983,284.588257 
	C226.905487,284.927734 206.475616,284.985992 186.045746,285.044250 
z"/>
<path fill="#74C3F8" opacity="1.000000" stroke="none" 
	d="
M186.035706,243.491760 
	C206.977402,243.041977 227.911911,243.041168 249.290192,243.070709 
	C249.772568,246.069717 249.811188,249.038406 249.764603,252.442505 
	C228.778214,252.906876 207.877014,252.935822 186.513031,252.949753 
	C186.042984,249.936737 186.035767,246.938736 186.035706,243.491760 
z"/>
<path fill="#75C4F9" opacity="1.000000" stroke="none" 
	d="
M186.043350,180.508392 
	C206.970642,180.060242 227.888885,180.058533 249.245941,180.086395 
	C249.742920,183.079285 249.801086,186.042618 249.350494,189.480011 
	C227.909378,189.954086 206.977051,189.954086 186.044708,189.954102 
	C186.041245,186.954346 186.037781,183.954575 186.043350,180.508392 
z"/>
<path fill="#75C4F8" opacity="1.000000" stroke="none" 
	d="
M247.000000,273.996338 
	C226.992950,273.985840 206.985886,273.975372 186.516479,273.949463 
	C186.045959,270.936462 186.037781,267.938934 186.037216,264.493042 
	C206.976715,264.043457 227.908615,264.042236 249.283340,264.072815 
	C249.764145,267.067841 249.802124,270.031036 249.432007,273.461975 
	C248.349289,273.951935 247.674652,273.974121 247.000000,273.996338 
z"/>
<path fill="#74C3F8" opacity="1.000000" stroke="none" 
	d="
M249.804993,210.459381 
	C228.814438,210.926636 207.893326,210.955215 186.508881,210.968353 
	C186.043549,207.956451 186.041534,204.960022 186.508240,201.498383 
	C207.880554,201.065506 228.784149,201.097839 249.687729,201.130188 
	C249.749954,204.093689 249.812195,207.057205 249.804993,210.459381 
z"/>
<path fill="#75C4F8" opacity="1.000000" stroke="none" 
	d="
M249.774216,231.447647 
	C228.788025,231.913284 207.882416,231.942139 186.514175,231.955734 
	C186.044800,228.942688 186.038071,225.944901 186.039459,222.499542 
	C206.970703,222.052185 227.893829,222.052414 249.256912,222.083771 
	C249.749512,225.080215 249.802170,228.045547 249.774216,231.447647 
z"/>
<path fill="#73C3F7" opacity="1.000000" stroke="none" 
	d="
M186.040527,306.486237 
	C206.986588,306.036621 227.925156,306.032074 249.309509,306.059387 
	C249.796188,308.739105 249.837082,311.386993 249.817169,314.471558 
	C228.828659,314.936615 207.900940,314.964905 186.510132,314.975067 
	C186.042358,312.281708 186.037689,309.606506 186.040527,306.486237 
z"/>
<path fill="#73C2F7" opacity="1.000000" stroke="none" 
	d="
M249.806396,168.463379 
	C228.818405,168.928543 207.895905,168.958023 186.510315,168.969879 
	C186.040787,166.274231 186.034363,163.596207 186.032547,160.471848 
	C206.986008,160.023453 227.934845,160.021408 249.331512,160.053284 
	C249.810196,162.734039 249.841064,165.380859 249.806396,168.463379 
z"/>
<path fill="#73C2F7" opacity="1.000000" stroke="none" 
	d="
M186.038895,285.489197 
	C206.475616,284.985992 226.905487,284.927734 247.820526,284.754578 
	C248.830353,287.455414 249.355026,290.271057 249.821198,293.499817 
	C228.831863,293.942261 207.901016,293.971619 186.506561,293.984375 
	C186.039307,291.289917 186.035675,288.612030 186.038895,285.489197 
z"/>
<path fill="#9BE0FF" opacity="1.000000" stroke="none" 
	d="
M249.775436,200.742096 
	C228.784149,201.097839 207.880554,201.065506 186.514267,201.048950 
	C186.040512,198.344009 186.029465,195.623276 186.491241,192.451355 
	C205.203079,192.000168 223.442230,192.032745 241.681046,191.970413 
	C245.004044,191.959045 247.623367,192.487549 248.140823,196.453049 
	C248.215393,197.024551 249.199753,197.477341 249.763092,197.985077 
	C249.796432,198.774719 249.829788,199.564346 249.775436,200.742096 
z"/>
<path fill="#74C2F7" opacity="1.000000" stroke="none" 
	d="
M186.576920,387.496216 
	C186.096252,377.365601 186.059250,367.214111 186.466934,356.560211 
	C189.490265,356.000610 192.068924,355.943451 194.647568,355.886292 
	C196.166168,355.933624 197.684784,355.980927 199.659348,356.049988 
	C200.112869,366.329498 200.110428,376.587250 200.133423,387.294617 
	C195.779419,387.654633 191.400009,387.565002 186.576920,387.496216 
z"/>
<path fill="#73C2F7" opacity="1.000000" stroke="none" 
	d="
M249.296310,84.756363 
	C231.736328,85.146194 214.251465,85.065918 196.280457,84.939743 
	C200.340302,81.717773 204.886276,78.541695 210.059158,75.532288 
	C223.591614,75.783348 236.497162,75.867737 249.402710,75.952126 
	C249.392273,78.730171 249.381851,81.508217 249.296310,84.756363 
z"/>
<path fill="#73BFF5" opacity="1.000000" stroke="none" 
	d="
M186.036652,327.468079 
	C206.982239,327.037415 227.922623,327.033600 249.308594,327.063538 
	C249.804108,328.785950 249.854019,330.474609 249.888702,332.587585 
	C231.557343,333.025269 213.241226,333.038544 194.013062,333.073669 
	C190.748459,333.076569 188.395920,333.057648 186.043381,333.038727 
	C186.039398,331.324127 186.035416,329.609528 186.036652,327.468079 
z"/>
<path fill="#04B12F" opacity="1.000000" stroke="none" 
	d="
M262.994385,356.296722 
	C265.751190,356.137024 268.508026,355.977295 271.889374,355.781403 
	C271.889374,352.086426 271.889374,348.663300 271.970062,344.810913 
	C281.234253,345.852570 285.357910,349.570374 287.015686,358.778442 
	C284.209137,365.996735 279.316101,369.600372 273.953339,368.967773 
	C268.049225,368.271271 263.632141,363.164124 262.994385,356.296722 
z"/>
<path fill="#9ADFFF" opacity="1.000000" stroke="none" 
	d="
M249.587921,75.608932 
	C236.497162,75.867737 223.591614,75.783348 210.379425,75.431747 
	C215.126358,71.819901 220.179932,68.475258 226.028290,65.040146 
	C234.437897,64.925247 242.052719,64.900833 249.667542,64.876419 
	C249.702744,68.339531 249.737930,71.802635 249.587921,75.608932 
z"/>
<path fill="#73C2F7" opacity="1.000000" stroke="none" 
	d="
M239.766968,356.152710 
	C242.868286,356.106659 245.969589,356.060638 249.531097,356.009033 
	C249.991272,366.415405 249.991272,376.827362 249.991272,387.856354 
	C246.539352,387.856354 243.616180,387.856354 240.257233,387.320435 
	C239.803299,376.573883 239.785126,366.363312 239.766968,356.152710 
z"/>
<path fill="#079725" opacity="1.000000" stroke="none" 
	d="
M262.573914,356.195496 
	C263.632141,363.164124 268.049225,368.271271 273.953339,368.967773 
	C279.316101,369.600372 284.209137,365.996735 286.948547,359.160522 
	C287.963043,367.085846 284.341156,372.443604 274.785828,375.999756 
	C272.037598,376.124146 270.050293,376.141327 268.062988,376.158508 
	C258.155670,372.295074 254.800858,366.925629 256.044983,356.461914 
	C258.119354,356.092712 260.136383,356.093475 262.573914,356.195496 
z"/>
<path fill="#546AAD" opacity="1.000000" stroke="none" 
	d="
M239.340088,356.087341 
	C239.785126,366.363312 239.803299,376.573883 239.793945,387.229065 
	C237.119141,387.742188 234.471848,387.810760 231.382874,387.797119 
	C230.957108,377.481445 230.973007,367.248016 230.975952,356.553711 
	C233.613068,356.069244 236.263153,356.045624 239.340088,356.087341 
z"/>
<path fill="#74C2F7" opacity="1.000000" stroke="none" 
	d="
M249.755859,64.427856 
	C242.052719,64.900833 234.437897,64.925247 226.344910,64.911934 
	C233.272141,59.933113 240.677536,54.992020 248.684769,50.020393 
	C249.464905,50.015060 249.643219,50.040264 249.821533,50.065472 
	C249.829071,54.703411 249.836609,59.341347 249.755859,64.427856 
z"/>
<path fill="#BC6C06" opacity="1.000000" stroke="none" 
	d="
M49.150520,371.891052 
	C51.910389,371.426483 54.638466,371.392853 57.746704,371.434204 
	C58.128410,376.621796 58.129955,381.734406 58.156761,387.294922 
	C55.388798,387.742859 52.595570,387.742859 49.118725,387.742859 
	C49.118725,382.523071 49.118725,377.422516 49.150520,371.891052 
z"/>
<path fill="#9BDFFF" opacity="1.000000" stroke="none" 
	d="
M249.830841,197.542633 
	C249.199753,197.477341 248.215393,197.024551 248.140823,196.453049 
	C247.623367,192.487549 245.004044,191.959045 241.681046,191.970413 
	C223.442230,192.032745 205.203079,192.000168 186.499329,192.000397 
	C186.029419,191.546143 186.024246,191.091675 186.031891,190.295654 
	C206.977051,189.954086 227.909378,189.954086 249.284470,189.920242 
	C249.784348,192.291016 249.841476,194.695602 249.830841,197.542633 
z"/>
<path fill="#BE740D" opacity="1.000000" stroke="none" 
	d="
M268.047760,376.607849 
	C270.050293,376.141327 272.037598,376.124146 274.446075,376.149994 
	C274.867249,379.930573 274.867249,383.668091 274.867249,387.697693 
	C272.534729,387.697693 270.649078,387.697693 268.032532,387.697693 
	C268.032532,384.142273 268.032532,380.599731 268.047760,376.607849 
z"/>
<path fill="#BC6C06" opacity="1.000000" stroke="none" 
	d="
M150.142502,376.240112 
	C150.139893,379.796997 150.137268,383.353912 150.136673,387.348572 
	C148.345230,387.846680 146.551788,387.907043 144.310089,387.901123 
	C143.833572,384.266052 143.805283,380.697266 144.238937,376.628174 
	C146.514771,376.165314 148.328629,376.202698 150.142502,376.240112 
z"/>
<path fill="#9BDFFF" opacity="1.000000" stroke="none" 
	d="
M246.993362,274.384583 
	C247.674652,273.974121 248.349289,273.951935 249.356308,273.899750 
	C249.687744,276.723724 249.686798,279.577667 249.465088,282.769226 
	C244.935440,281.292206 246.112091,277.991608 246.993362,274.384583 
z"/>
<path fill="#9ADFFF" opacity="1.000000" stroke="none" 
	d="
M249.798599,49.800323 
	C249.643219,50.040264 249.464905,50.015060 249.017212,49.959801 
	C248.747818,49.929741 248.850723,49.501095 248.868225,49.281422 
	C249.182373,49.219559 249.479019,49.377369 249.798599,49.800323 
z"/>
<path fill="#5267AC" opacity="1.000000" stroke="none" 
	d="
M185.571716,333.077087 
	C188.395920,333.057648 190.748459,333.076569 193.543549,333.079193 
	C194.237686,340.366852 194.489273,347.670807 194.694214,355.430542 
	C192.068924,355.943451 189.490265,356.000610 186.474304,356.100616 
	C178.535339,356.091675 171.033691,356.039856 162.927856,356.067871 
	C162.323669,356.147705 162.095154,356.222290 162.074005,355.847290 
	C158.766632,347.452545 154.667740,344.730682 145.661987,344.817108 
	C143.189499,345.228180 141.121429,345.678680 139.053345,346.129150 
	C139.053345,342.020599 139.053345,337.912048 139.053345,333.115417 
	C154.647385,333.115417 169.873718,333.115417 185.571716,333.077087 
z"/>
<path fill="#039524" opacity="1.000000" stroke="none" 
	d="
M138.849091,346.387573 
	C141.121429,345.678680 143.189499,345.228180 145.475922,345.112366 
	C144.543839,346.383484 143.308075,347.233643 142.258163,348.271790 
	C138.279633,352.205719 137.643265,359.030060 140.792816,363.225250 
	C145.282639,369.205627 150.918655,370.663879 156.746857,367.040558 
	C158.916489,365.691772 160.683670,363.695587 162.634354,361.994598 
	C162.091202,369.527649 157.558044,373.687347 150.477722,376.108521 
	C148.328629,376.202698 146.514771,376.165314 144.250000,376.184052 
	C137.053833,374.200562 132.385193,370.022522 131.256561,362.897369 
	C130.167282,356.020660 132.973572,350.605865 138.849091,346.387573 
z"/>
<path fill="#9CDEFF" opacity="1.000000" stroke="none" 
	d="
M181.946991,248.827515 
	C176.916489,249.718704 171.924622,250.227493 166.920746,250.412872 
	C166.696716,250.421173 166.078995,247.468552 166.209488,245.943375 
	C166.269119,245.246277 167.675262,244.167480 168.518692,244.120346 
	C172.155685,243.917191 175.856400,243.714401 179.429947,244.230865 
	C180.459641,244.379684 181.141830,246.932999 181.946991,248.827515 
z"/>
<path fill="#9CDEFF" opacity="1.000000" stroke="none" 
	d="
M166.059402,158.174500 
	C171.090027,157.283081 176.081940,156.773743 181.085876,156.587463 
	C181.309296,156.579132 181.926880,159.531876 181.796249,161.057037 
	C181.736450,161.754959 180.331985,162.835281 179.489319,162.882370 
	C175.851990,163.085556 172.150925,163.288269 168.577118,162.771545 
	C167.547043,162.622604 166.864716,160.068863 166.059402,158.174500 
z"/>
<path fill="#9CDEFF" opacity="1.000000" stroke="none" 
	d="
M142.049255,175.002045 
	C140.246292,174.993515 138.612640,175.462875 137.674637,174.856354 
	C136.489868,174.090271 135.282150,172.483398 135.201904,171.170883 
	C135.140976,170.174149 136.723694,168.295807 137.753220,168.160004 
	C140.846588,167.751877 144.032333,168.114227 147.172165,167.966370 
	C149.846817,167.840439 151.055923,168.670929 151.064850,171.587326 
	C151.074326,174.688446 149.490814,175.173355 146.997940,175.018692 
	C145.513153,174.926559 144.017975,175.002060 142.049255,175.002045 
z"/>
<path fill="#9CDEFF" opacity="1.000000" stroke="none" 
	d="
M139.005920,298.002441 
	C137.036270,297.999359 135.404099,298.368103 134.085739,297.883362 
	C132.886856,297.442535 131.031143,295.762299 131.214615,295.175232 
	C131.696121,293.634521 132.965012,291.436493 134.220016,291.217316 
	C137.445602,290.654053 140.874390,290.727692 144.133835,291.180817 
	C145.223267,291.332306 146.801620,293.420013 146.776001,294.592529 
	C146.750793,295.745789 145.172073,297.292816 143.910370,297.869934 
	C142.672424,298.436157 140.975571,297.999146 139.005920,298.002441 
z"/>
<path fill="#9CDEFF" opacity="1.000000" stroke="none" 
	d="
M157.950989,179.169754 
	C158.389603,182.670166 157.449310,184.357269 153.964935,184.037399 
	C151.497070,183.810837 148.986374,183.889404 146.504715,184.020035 
	C143.965149,184.153717 142.925400,183.186798 142.949524,180.577255 
	C142.972122,178.133255 143.660461,176.660889 146.337265,177.017838 
	C150.203293,177.533386 154.055542,178.152252 157.950989,179.169754 
z"/>
<path fill="#9BDFFF" opacity="1.000000" stroke="none" 
	d="
M147.918304,241.000000 
	C145.788742,240.998474 144.124939,240.899628 142.476730,241.017914 
	C139.916824,241.201614 138.929703,240.143539 138.948120,237.563126 
	C138.965652,235.110565 139.670471,233.805771 142.349030,233.980286 
	C144.328674,234.109253 146.340668,233.838608 148.307434,234.042786 
	C150.587616,234.279495 153.861008,232.574753 154.064331,237.208542 
	C154.276138,242.035767 151.007584,240.845276 147.918304,241.000000 
z"/>
<path fill="#00B12D" opacity="1.000000" stroke="none" 
	d="
M75.803078,346.877014 
	C72.099068,361.265381 61.265541,363.081696 52.370651,360.006927 
	C45.967087,357.793335 42.387352,352.616180 41.998672,345.590668 
	C41.548996,337.462555 45.538670,332.113190 52.751259,328.381226 
	C55.003487,328.071106 57.055527,328.017548 59.819717,328.174744 
	C69.117554,331.294800 73.713181,337.691010 76.009491,346.096588 
	C75.965385,346.270508 75.921288,346.444397 75.803078,346.877014 
z"/>
<path fill="#71BFF4" opacity="1.000000" stroke="none" 
	d="
M101.100121,180.064545 
	C106.855515,179.784607 112.609451,179.420715 118.367966,179.321472 
	C119.168488,179.307663 120.671394,180.574875 120.696014,181.288818 
	C120.884628,186.759232 120.831573,192.240585 120.695732,197.714630 
	C120.684929,198.149979 119.486961,198.555878 117.962509,198.968292 
	C113.123817,198.950226 109.160210,198.838974 105.203850,198.961594 
	C102.270355,199.052475 100.980408,197.923401 101.056061,194.915894 
	C101.180496,189.968201 101.096336,185.015274 101.100121,180.064545 
z"/>
<path fill="#71BFF4" opacity="1.000000" stroke="none" 
	d="
M118.108337,200.629700 
	C119.042007,201.364349 120.751099,202.065308 120.784706,202.839066 
	C121.020081,208.256592 120.909332,213.689148 120.909332,219.879593 
	C114.370277,219.879593 108.178711,219.879593 101.537338,219.362030 
	C101.085838,214.243820 101.255112,209.634598 101.025139,205.045380 
	C100.858917,201.728348 102.164940,200.771286 105.322418,200.880264 
	C109.576439,201.027084 113.845650,200.734009 118.108337,200.629700 
z"/>
<path fill="#A2C4F9" opacity="1.000000" stroke="none" 
	d="
M101.047310,222.184326 
	C107.495018,222.184326 113.942734,222.184326 120.634216,222.184326 
	C120.634216,228.093567 120.634216,234.175613 120.634216,240.927429 
	C114.338135,240.927429 108.246292,240.927429 101.657913,240.433716 
	C101.123352,234.021439 101.085327,228.102875 101.047310,222.184326 
z"/>
<path fill="#71BFF4" opacity="1.000000" stroke="none" 
	d="
M117.056282,284.737152 
	C118.200699,284.798248 119.345116,284.859375 120.695984,284.931519 
	C120.695984,291.046417 120.695984,297.090790 120.695984,303.993347 
	C114.675026,303.993347 108.806641,303.993347 102.187866,303.696014 
	C101.638428,297.204132 101.839378,291.009613 102.359375,284.842773 
	C103.102058,284.825836 103.525711,284.781158 104.410316,284.810638 
	C108.932938,284.835571 112.994614,284.786377 117.056282,284.737152 
z"/>
<path fill="#71BFF4" opacity="1.000000" stroke="none" 
	d="
M102.028648,305.794983 
	C108.160934,305.794983 114.293213,305.794983 120.648941,305.794983 
	C120.648941,312.141052 120.648941,318.217865 120.648941,324.950317 
	C114.305214,324.950317 108.204674,324.950317 101.605194,324.464111 
	C101.413727,317.916931 101.721184,311.855957 102.028648,305.794983 
z"/>
<path fill="#71BFF4" opacity="1.000000" stroke="none" 
	d="
M102.042892,263.790009 
	C108.149361,263.790009 114.255829,263.790009 120.902092,263.790009 
	C120.902092,269.379425 121.052628,274.802216 120.764755,280.201599 
	C120.712296,281.185516 118.870331,282.074005 116.972885,282.991516 
	C112.054764,283.008240 108.018196,283.039917 103.652618,283.040009 
	C102.882950,283.007690 102.442276,283.006958 101.723328,282.697937 
	C101.342171,276.304199 101.239296,270.218811 101.368759,264.063629 
	C101.601089,263.993866 102.042892,263.790009 102.042892,263.790009 
z"/>
<path fill="#A2C4F9" opacity="1.000000" stroke="none" 
	d="
M101.152290,243.075943 
	C107.460625,243.075943 113.768959,243.075943 120.474854,243.075943 
	C120.474854,249.295013 120.474854,255.333313 120.474854,261.993011 
	C114.500023,261.993011 108.719009,261.993011 102.193665,261.697784 
	C101.350327,255.293686 101.251312,249.184814 101.152290,243.075943 
z"/>
<path fill="#72C1F6" opacity="1.000000" stroke="none" 
	d="
M99.820763,177.828369 
	C93.897812,177.866608 87.974861,177.904846 81.555725,177.454437 
	C81.035011,170.972549 81.010498,164.979324 80.985977,158.986115 
	C86.928589,158.731216 92.871193,158.476334 99.333282,158.702866 
	C99.842087,165.398972 99.831421,171.613663 99.820763,177.828369 
z"/>
<path fill="#A2C4F9" opacity="1.000000" stroke="none" 
	d="
M101.049194,327.240753 
	C107.449089,327.240753 113.848984,327.240753 120.558777,327.240753 
	C120.558777,333.354950 120.558777,339.249603 120.558777,345.936310 
	C114.376671,345.936310 108.172745,345.936310 101.505600,345.393677 
	C101.044647,338.980957 101.046921,333.110870 101.049194,327.240753 
z"/>
<path fill="#72C1F6" opacity="1.000000" stroke="none" 
	d="
M100.583511,327.146606 
	C101.046921,333.110870 101.044647,338.980957 101.050026,345.294983 
	C94.705368,345.830994 88.353050,345.923065 81.517731,345.513245 
	C81.035583,339.017639 81.036446,333.023895 81.037300,327.030151 
	C87.397476,327.037598 93.757645,327.045044 100.583511,327.146606 
z"/>
<path fill="#73C1F6" opacity="1.000000" stroke="none" 
	d="
M78.898788,177.910126 
	C72.813133,177.910126 66.727486,177.910126 60.343723,177.910126 
	C60.343723,171.196228 60.343723,165.004745 60.343723,158.196915 
	C66.342964,158.196915 72.092064,158.196915 78.380936,158.655609 
	C78.913414,165.379578 78.906105,171.644852 78.898788,177.910126 
z"/>
<path fill="#A2C4F9" opacity="1.000000" stroke="none" 
	d="
M102.275986,158.247437 
	C108.191574,158.247437 114.107155,158.247437 120.446762,158.247437 
	C120.446762,164.705109 120.446762,170.888580 120.446762,177.968857 
	C114.708565,177.968857 108.837608,177.968857 102.440582,177.503967 
	C102.034996,170.775208 102.155487,164.511322 102.275986,158.247437 
z"/>
<path fill="#72C2F7" opacity="1.000000" stroke="none" 
	d="
M79.670761,240.812653 
	C73.388138,240.812653 67.105515,240.812653 60.430096,240.812653 
	C60.430096,234.404648 60.430096,228.213913 60.430096,222.287048 
	C66.571205,222.287048 72.651314,222.287048 78.947624,223.054199 
	C79.332809,229.485123 79.501785,235.148880 79.670761,240.812653 
z"/>
<path fill="#A4C6FA" opacity="1.000000" stroke="none" 
	d="
M60.151928,198.750366 
	C60.151928,192.500916 60.151928,186.251450 60.151928,179.801147 
	C66.427803,179.801147 72.350800,179.801147 78.713577,180.328552 
	C79.153358,186.743942 79.153358,192.631912 79.153358,198.750366 
	C72.617767,198.750366 66.384850,198.750366 60.151928,198.750366 
z"/>
<path fill="#73C2F7" opacity="1.000000" stroke="none" 
	d="
M78.918365,324.929871 
	C72.832268,324.929871 66.746178,324.929871 60.352325,324.929871 
	C60.352325,318.390381 60.352325,312.340790 60.352325,305.879425 
	C65.886818,305.879425 71.453979,305.879425 77.710335,305.929779 
	C78.399536,305.980133 78.866508,306.040070 78.926453,306.501709 
	C78.963715,312.952179 78.941040,318.941040 78.918365,324.929871 
z"/>
<path fill="#72C1F6" opacity="1.000000" stroke="none" 
	d="
M78.983147,282.858337 
	C72.885674,282.858337 66.788208,282.858337 60.365864,282.858337 
	C60.365864,276.376587 60.365864,270.320282 60.365864,263.904419 
	C66.244713,263.904419 72.156021,263.904419 78.544601,264.400574 
	C79.008965,270.883942 78.996056,276.871124 78.983147,282.858337 
z"/>
<path fill="#73C1F6" opacity="1.000000" stroke="none" 
	d="
M78.985458,261.872223 
	C72.884117,261.872223 66.782768,261.872223 60.361958,261.872223 
	C60.361958,255.374451 60.361958,249.312805 60.361958,242.912125 
	C66.260307,242.912125 72.177139,242.912125 78.561752,243.414780 
	C79.014839,249.902359 79.000153,255.887299 78.985458,261.872223 
z"/>
<path fill="#A4C6FA" opacity="1.000000" stroke="none" 
	d="
M78.995560,303.833496 
	C72.895851,303.833496 66.796150,303.833496 60.373428,303.833496 
	C60.373428,297.406311 60.373428,291.349426 60.373428,284.888214 
	C66.253456,284.888214 72.170609,284.888214 78.520905,284.926025 
	C78.954056,284.963837 78.946968,285.039307 78.981659,285.502991 
	C79.009415,291.922272 79.002487,297.877899 78.995560,303.833496 
z"/>
<path fill="#73C1F6" opacity="1.000000" stroke="none" 
	d="
M79.316971,219.194611 
	C73.161674,219.559525 67.006378,219.924423 60.039490,220.337448 
	C60.039490,213.720764 60.039490,207.867905 60.509331,201.503906 
	C67.057869,200.992752 73.136566,200.992752 79.316971,200.992752 
	C79.316971,207.546860 79.316971,213.370743 79.316971,219.194611 
z"/>
<path fill="#73C1F6" opacity="1.000000" stroke="none" 
	d="
M99.850662,324.918579 
	C93.913460,324.932281 87.976257,324.946014 81.544891,324.468750 
	C81.095276,318.005951 81.139832,312.034149 81.403168,306.018860 
	C81.621948,305.975403 82.050400,305.851135 82.513657,305.870972 
	C88.302292,305.847443 93.627663,305.804047 99.250381,306.078369 
	C99.648705,312.570251 99.749680,318.744415 99.850662,324.918579 
z"/>
<path fill="#72C1F6" opacity="1.000000" stroke="none" 
	d="
M81.031212,243.024963 
	C87.025375,242.997772 93.019547,242.970581 99.485100,243.452240 
	C99.633858,249.988434 99.311226,256.015778 98.522110,262.021027 
	C92.373024,261.933472 86.690414,261.868011 81.016205,261.346710 
	C81.026794,254.935562 81.029007,248.980270 81.031212,243.024963 
z"/>
<path fill="#73C1F6" opacity="1.000000" stroke="none" 
	d="
M99.837479,240.893478 
	C93.902290,240.918579 87.967094,240.943665 81.529755,240.489288 
	C80.947220,234.316254 80.866814,228.622696 80.786407,222.929138 
	C86.527985,222.540131 92.269569,222.151108 98.756203,222.046631 
	C99.613335,228.518616 99.725410,234.706039 99.837479,240.893478 
z"/>
<path fill="#A4C6FA" opacity="1.000000" stroke="none" 
	d="
M98.994568,220.028961 
	C93.349983,220.004456 87.705406,219.979965 81.547882,219.484192 
	C81.034943,213.118820 81.034943,207.224701 81.034943,201.240814 
	C87.631149,201.240814 93.502716,201.240814 100.335091,201.240814 
	C99.870300,207.755035 99.432434,213.891998 98.994568,220.028961 
z"/>
<path fill="#72C1F6" opacity="1.000000" stroke="none" 
	d="
M80.946815,179.972916 
	C87.097595,179.861313 93.248375,179.749710 99.677895,180.292908 
	C99.952583,185.596375 100.187477,190.265030 99.801178,194.881699 
	C99.682831,196.296127 97.949791,198.626831 96.804428,198.722580 
	C91.749252,199.145096 86.638702,198.905197 80.946815,198.905197 
	C80.946815,192.169495 80.946815,186.071198 80.946815,179.972916 
z"/>
<path fill="#5E7DBE" opacity="1.000000" stroke="none" 
	d="
M80.660645,179.970520 
	C80.946815,186.071198 80.946815,192.169495 80.946815,198.905197 
	C86.638702,198.905197 91.749252,199.145096 96.804428,198.722580 
	C97.949791,198.626831 99.682831,196.296127 99.801178,194.881699 
	C100.187477,190.265030 99.952583,185.596375 99.962540,180.481171 
	C100.157021,180.018402 100.345589,180.022186 100.817139,180.045258 
	C101.096336,185.015274 101.180496,189.968201 101.056061,194.915894 
	C100.980408,197.923401 102.270355,199.052475 105.203850,198.961594 
	C109.160210,198.838974 113.123817,198.950226 117.551727,199.004730 
	C118.029823,199.402283 118.040520,199.756195 118.079773,200.369919 
	C113.845650,200.734009 109.576439,201.027084 105.322418,200.880264 
	C102.164940,200.771286 100.858917,201.728348 101.025139,205.045380 
	C101.255112,209.634598 101.085838,214.243820 101.079285,219.285645 
	C101.055565,220.272705 101.040085,220.818573 101.035957,221.774384 
	C101.085327,228.102875 101.123352,234.021439 101.207077,240.392654 
	C101.017746,240.868210 100.782700,240.891098 100.192566,240.903732 
	C99.725410,234.706039 99.613335,228.518616 99.213791,221.980286 
	C98.947952,221.274948 98.969574,220.920532 98.992882,220.297531 
	C99.432434,213.891998 99.870300,207.755035 100.335091,201.240814 
	C93.502716,201.240814 87.631149,201.240814 81.034943,201.240814 
	C81.034943,207.224701 81.034943,213.118820 81.089096,219.473053 
	C80.681931,219.752457 80.220627,219.571716 79.538147,219.292786 
	C79.316971,213.370743 79.316971,207.546860 79.316971,200.992752 
	C73.136566,200.992752 67.057869,200.992752 60.518211,201.041168 
	C60.059460,200.569473 60.061668,200.049332 60.107903,199.139786 
	C66.384850,198.750366 72.617767,198.750366 79.153358,198.750366 
	C79.153358,192.631912 79.153358,186.743942 79.194199,180.380203 
	C79.614861,179.925674 79.994667,179.946915 80.660645,179.970520 
z"/>
<path fill="#70C3F3" opacity="1.000000" stroke="none" 
	d="
M76.380241,346.081543 
	C73.713181,337.691010 69.117554,331.294800 60.260925,328.170715 
	C61.557045,327.602631 63.116390,326.992035 64.692612,326.944794 
	C69.157196,326.811096 73.628677,326.907898 78.564812,327.414398 
	C79.013725,333.937042 78.995262,339.959198 78.976799,345.981323 
	C78.234863,346.009705 77.492928,346.038086 76.380241,346.081543 
z"/>
<path fill="#5F8AC9" opacity="1.000000" stroke="none" 
	d="
M80.697937,243.012283 
	C81.029007,248.980270 81.026794,254.935562 81.085907,261.625153 
	C81.455803,262.836121 81.764366,263.312805 81.768265,264.104767 
	C81.312347,270.540833 81.161087,276.661652 81.077202,283.057495 
	C81.437332,283.808838 81.730095,284.285126 81.810547,284.847168 
	C81.598244,284.932861 81.163521,285.076721 80.794510,285.059326 
	C79.932648,285.041077 79.439812,285.040192 78.946968,285.039307 
	C78.946968,285.039307 78.954056,284.963837 78.989983,284.950958 
	C79.022545,284.476501 79.019180,284.014923 78.999481,283.205841 
	C78.996056,276.871124 79.008965,270.883942 79.012314,264.423798 
	C79.007423,263.489441 79.012100,263.028015 79.001114,262.219421 
	C79.000153,255.887299 79.014839,249.902359 79.030899,243.446808 
	C79.476387,242.983994 79.920525,242.991791 80.697937,243.012283 
z"/>
<path fill="#5976B9" opacity="1.000000" stroke="none" 
	d="
M100.186684,324.929596 
	C99.749680,318.744415 99.648705,312.570251 99.261932,305.797241 
	C98.982117,304.819672 98.988091,304.440918 99.290970,303.760437 
	C99.402016,297.213379 99.216148,290.968048 99.160355,284.488220 
	C99.514847,283.762329 99.739258,283.270966 99.955704,282.325165 
	C99.938255,275.938873 99.928764,270.007019 99.961128,264.039307 
	C100.002983,264.003510 100.088066,263.933563 100.301147,263.951172 
	C100.514236,263.968811 100.941650,263.955750 100.991096,263.999329 
	C101.040543,264.042908 101.136429,264.133392 101.136429,264.133392 
	C101.239296,270.218811 101.342171,276.304199 101.724792,283.000214 
	C102.016472,284.012238 102.028397,284.413635 102.040329,284.815063 
	C101.839378,291.009613 101.638428,297.204132 101.719589,303.705139 
	C102.006424,304.408966 102.011139,304.806335 102.022247,305.499359 
	C101.721184,311.855957 101.413727,317.916931 101.149750,324.434021 
	C100.969727,324.907013 100.746216,324.923828 100.186684,324.929596 
z"/>
<path fill="#6F8DCC" opacity="1.000000" stroke="none" 
	d="
M78.981659,285.502991 
	C79.439812,285.040192 79.932648,285.041077 80.744370,285.518555 
	C81.053337,291.915924 81.043427,297.836639 81.097908,304.044861 
	C81.458328,304.838623 81.754364,305.344879 82.050400,305.851135 
	C82.050400,305.851135 81.621948,305.975403 81.016304,305.994080 
	C79.895943,306.021881 79.381226,306.030975 78.866508,306.040070 
	C78.866508,306.040070 78.399536,305.980133 78.174149,305.910767 
	C78.249588,305.357819 78.550407,304.874176 78.923401,304.112030 
	C79.002487,297.877899 79.009415,291.922272 78.981659,285.502991 
z"/>
<path fill="#5F8AC9" opacity="1.000000" stroke="none" 
	d="
M101.848633,158.178802 
	C102.155487,164.511322 102.034996,170.775208 101.974289,177.500977 
	C101.541801,177.953293 101.049545,177.943710 100.189026,177.881241 
	C99.831421,171.613663 99.842087,165.398972 99.779053,158.752289 
	C100.277321,158.250275 100.849297,158.180237 101.848633,158.178802 
z"/>
<path fill="#5F8AC9" opacity="1.000000" stroke="none" 
	d="
M79.271255,177.937073 
	C78.906105,171.644852 78.913414,165.379578 78.832153,158.675568 
	C79.306465,158.412033 79.869354,158.587219 80.709114,158.874237 
	C81.010498,164.979324 81.035011,170.972549 81.097275,177.421005 
	C80.637909,177.905502 80.140808,177.934769 79.271255,177.937073 
z"/>
<path fill="#5F8AC9" opacity="1.000000" stroke="none" 
	d="
M79.326736,345.988770 
	C78.995262,339.959198 79.013725,333.937042 79.034256,327.443939 
	C79.480782,326.982391 79.925247,326.991791 80.703506,327.015686 
	C81.036446,333.023895 81.035583,339.017639 81.055618,345.473083 
	C80.609894,345.955261 80.143288,345.975708 79.326736,345.988770 
z"/>
<path fill="#5F8AC9" opacity="1.000000" stroke="none" 
	d="
M78.926453,306.501709 
	C79.381226,306.030975 79.895943,306.021881 80.797523,306.037567 
	C81.139832,312.034149 81.095276,318.005951 81.085480,324.434784 
	C80.631088,324.918793 80.141930,324.945801 79.285568,324.951355 
	C78.941040,318.941040 78.963715,312.952179 78.926453,306.501709 
z"/>
<path fill="#5E7DBE" opacity="1.000000" stroke="none" 
	d="
M80.554253,222.935791 
	C80.866814,228.622696 80.947220,234.316254 81.068924,240.469788 
	C80.869881,240.927231 80.629539,240.924698 80.029968,240.867401 
	C79.501785,235.148880 79.332809,229.485123 79.282814,223.353424 
	C79.707527,222.921173 80.014290,222.940155 80.554253,222.935791 
z"/>
<path fill="#5976B9" opacity="1.000000" stroke="none" 
	d="
M103.981628,283.071594 
	C108.018196,283.039917 112.054764,283.008240 116.554733,283.023315 
	C117.021088,283.441742 117.024048,283.813385 117.041641,284.461121 
	C112.994614,284.786377 108.932938,284.835571 104.422745,284.534912 
	C103.976692,283.813873 103.979156,283.442719 103.981628,283.071594 
z"/>
<path fill="#5976B9" opacity="1.000000" stroke="none" 
	d="
M98.988594,262.043121 
	C99.311226,256.015778 99.633858,249.988434 99.947922,243.495819 
	C100.141510,243.031555 100.343666,243.032562 100.849052,243.054749 
	C101.251312,249.184814 101.350327,255.293686 101.725601,261.714722 
	C102.008118,262.419983 102.014374,262.813049 102.031754,263.498077 
	C102.042892,263.790009 101.601089,263.993866 101.368759,264.063629 
	C101.136429,264.133392 101.040543,264.042908 100.922363,263.842651 
	C100.565475,263.739471 100.326767,263.836517 100.088066,263.933563 
	C100.088066,263.933563 100.002983,264.003510 99.716309,263.971863 
	C99.273041,263.874908 99.116440,263.809631 98.967087,263.460693 
	C98.979080,262.799042 98.983833,262.421082 98.988594,262.043121 
z"/>
<path fill="#99DEFF" opacity="1.000000" stroke="none" 
	d="
M179.862762,96.731041 
	C179.477463,96.848373 178.967590,96.742241 178.283875,96.437439 
	C178.110016,96.238770 178.472382,96.015541 178.682236,95.981537 
	C179.174118,96.134209 179.456146,96.320885 179.862762,96.731041 
z"/>
<path fill="#00B12D" opacity="1.000000" stroke="none" 
	d="
M162.731552,361.654785 
	C160.683670,363.695587 158.916489,365.691772 156.746857,367.040558 
	C150.918655,370.663879 145.282639,369.205627 140.792816,363.225250 
	C137.643265,359.030060 138.279633,352.205719 142.258163,348.271790 
	C143.308075,347.233643 144.543839,346.383484 145.880341,345.151764 
	C154.667740,344.730682 158.766632,347.452545 162.080658,355.916992 
	C162.108475,356.361633 162.183563,356.651093 162.183563,356.651093 
	C162.367599,357.182892 162.551636,357.714691 162.583725,358.757812 
	C162.307159,359.535034 162.376740,359.753693 162.640549,359.925171 
	C162.703278,360.388428 162.766006,360.851715 162.731552,361.654785 
z"/>
<path fill="#039524" opacity="1.000000" stroke="none" 
	d="
M162.309845,356.520752 
	C162.183563,356.651093 162.108475,356.361633 162.101807,356.291962 
	C162.095154,356.222290 162.323669,356.147705 162.430878,356.094879 
	C162.538101,356.042053 162.436142,356.390381 162.309845,356.520752 
z"/>
<path fill="#039524" opacity="1.000000" stroke="none" 
	d="
M162.704971,359.716034 
	C162.376740,359.753693 162.307159,359.535034 162.528931,359.181274 
	C162.626068,359.093384 162.769394,359.506897 162.704971,359.716034 
z"/>
<path fill="#5266AC" opacity="1.000000" stroke="none" 
	d="
M103.652618,283.040009 
	C103.979156,283.442719 103.976692,283.813873 103.961792,284.460754 
	C103.525711,284.781158 103.102058,284.825836 102.359375,284.842773 
	C102.028397,284.413635 102.016472,284.012238 102.003082,283.308533 
	C102.442276,283.006958 102.882950,283.007690 103.652618,283.040009 
z"/>
<path fill="#5266AC" opacity="1.000000" stroke="none" 
	d="
M82.513657,305.870972 
	C81.754364,305.344879 81.458328,304.838623 81.557663,304.123840 
	C87.633369,303.964264 93.313713,304.013214 98.994064,304.062164 
	C98.988091,304.440918 98.982117,304.819672 98.964592,305.479553 
	C93.627663,305.804047 88.302292,305.847443 82.513657,305.870972 
z"/>
<path fill="#5266AC" opacity="1.000000" stroke="none" 
	d="
M98.522110,262.021027 
	C98.983833,262.421082 98.979080,262.799042 98.505524,263.518127 
	C92.715454,263.835968 87.394188,263.812744 82.072929,263.789490 
	C81.764366,263.312805 81.455803,262.836121 81.077522,262.080994 
	C86.690414,261.868011 92.373024,261.933472 98.522110,262.021027 
z"/>
<path fill="#A4C6FA" opacity="1.000000" stroke="none" 
	d="
M99.290970,303.760437 
	C93.313713,304.013214 87.633369,303.964264 81.493271,303.836365 
	C81.043427,297.836639 81.053337,291.915924 81.113388,285.535950 
	C81.163521,285.076721 81.598244,284.932861 82.275658,284.891815 
	C88.312141,284.808075 93.671219,284.765411 99.030289,284.722717 
	C99.216148,290.968048 99.402016,297.213379 99.290970,303.760437 
z"/>
<path fill="#72C1F6" opacity="1.000000" stroke="none" 
	d="
M81.768265,264.104797 
	C87.394188,263.812744 92.715454,263.835968 98.498276,263.801819 
	C99.116440,263.809631 99.273041,263.874908 99.674454,264.007690 
	C99.928764,270.007019 99.938255,275.938873 99.494202,282.394043 
	C93.030380,282.872345 87.020103,282.827393 81.009827,282.782410 
	C81.161087,276.661652 81.312347,270.540833 81.768265,264.104797 
z"/>
<path fill="#5266AC" opacity="1.000000" stroke="none" 
	d="
M81.077194,283.057465 
	C87.020103,282.827393 93.030380,282.872345 99.502167,282.848450 
	C99.739258,283.270966 99.514847,283.762329 99.160355,284.488220 
	C93.671219,284.765411 88.312141,284.808075 82.487961,284.806091 
	C81.730095,284.285126 81.437332,283.808838 81.077194,283.057465 
z"/>
<path fill="#5266AC" opacity="1.000000" stroke="none" 
	d="
M100.301147,263.951172 
	C100.326767,263.836517 100.565475,263.739471 100.872917,263.799072 
	C100.941650,263.955750 100.514236,263.968811 100.301147,263.951172 
z"/>
</svg>