<svg version="1.1" id="Layer_1" xmlns="http://www.w3.org/2000/svg" xmlns:xlink="http://www.w3.org/1999/xlink" x="0px" y="0px"
	 width="100%" viewBox="0 0 408 450" enable-background="new 0 0 408 450" xml:space="preserve">
<path fill="#FEFFFF" opacity="1.000000" stroke="none" 
	d="
M1.000000,157.000000 
	C1.000000,104.681770 1.000000,52.863537 1.000000,1.022652 
	C136.945267,1.022652 272.890533,1.022652 408.917908,1.022652 
	C408.917908,150.901535 408.917908,300.803131 408.917908,450.852356 
	C273.000122,450.852356 137.000076,450.852356 1.000000,450.852356 
	C1.000000,353.109528 1.000000,255.304764 1.000000,157.000000 
M155.871567,426.070465 
	C160.586853,426.050262 165.302139,426.030060 170.946655,426.127655 
	C185.607483,426.072449 200.268311,426.017212 215.868378,426.072723 
	C221.277832,426.012482 226.687302,425.952240 232.973206,426.064789 
	C235.980621,426.030975 238.988037,425.997162 242.925293,426.092346 
	C248.950623,426.059601 254.975952,426.026825 261.916504,426.062775 
	C265.287231,426.030518 268.657990,425.998291 272.952240,426.113312 
	C294.631409,426.060791 316.310608,426.008270 338.858490,426.088196 
	C340.904999,426.056519 342.951538,426.024872 345.904572,426.063538 
	C348.937317,426.041718 351.970032,426.019897 355.690186,426.217041 
	C357.595398,426.217041 359.500610,426.217041 361.665894,426.217041 
	C361.665894,415.698578 361.665894,405.848145 362.632874,395.830688 
	C369.709534,395.830688 376.786224,395.830688 384.570740,395.830688 
	C374.761017,369.422760 365.239685,343.791229 355.553741,317.334381 
	C355.367371,315.195709 355.019165,313.057129 355.018158,310.918396 
	C354.988708,247.751892 354.993744,184.585403 354.993286,121.418900 
	C354.993256,119.491180 354.993286,117.563469 354.993286,115.036049 
	C345.787445,115.036049 337.324127,115.036049 328.869354,114.092125 
	C328.840271,88.758728 328.811188,63.425335 328.801025,37.577911 
	C328.520386,37.418755 328.239777,37.259598 327.029968,37.022007 
	C289.660431,37.065926 252.290894,37.109844 214.008774,37.021305 
	C171.776657,37.021305 129.544540,37.021305 86.840118,37.021305 
	C86.840118,39.581234 86.840996,41.541988 86.839989,43.502743 
	C86.812424,97.284271 86.784660,151.065796 85.854584,204.941910 
	C76.280846,204.941910 66.707108,204.941910 56.878017,204.941910 
	C56.878017,242.955521 56.878017,280.182312 56.327080,317.766205 
	C56.251980,318.186798 56.176880,318.607422 55.724243,319.630188 
	C46.230209,344.858459 36.736176,370.086731 27.155567,395.545044 
	C34.695637,395.545044 41.342167,395.545044 48.657043,395.760406 
	C49.117088,395.837738 49.577133,395.915070 50.036175,396.930542 
	C50.036175,406.593384 50.036175,416.256226 50.036175,425.932556 
	C55.117332,425.932556 59.544907,425.932556 64.899796,426.106171 
	C73.366821,426.121307 81.833984,426.174744 90.300842,426.143707 
	C108.554886,426.076813 126.808769,425.966492 145.940048,426.079956 
	C148.938766,426.041412 151.937469,426.002838 155.871567,426.070465 
z"/>
<path fill="#F3CD97" opacity="1.000000" stroke="none" 
	d="
M328.860840,115.036041 
	C337.324127,115.036049 345.787445,115.036049 354.993286,115.036049 
	C354.993286,117.563469 354.993256,119.491180 354.993286,121.418900 
	C354.993744,184.585403 354.988708,247.751892 355.018158,310.918396 
	C355.019165,313.057129 355.367371,315.195709 355.408875,318.083435 
	C355.216461,344.451691 355.168945,370.070923 355.059326,396.179932 
	C354.999084,406.445862 355.000946,416.221954 355.002777,425.998108 
	C351.970032,426.019897 348.937317,426.041718 345.461914,425.560425 
	C345.019257,405.542023 345.019257,386.026733 345.019257,366.214996 
	C342.143188,366.214996 340.021149,366.214996 337.439514,366.167084 
	C315.416840,366.119171 293.853851,366.119171 272.028717,366.119171 
	C272.028717,386.662750 272.028717,406.314392 272.028717,425.966064 
	C268.657990,425.998291 265.287231,426.030518 261.468781,425.560394 
	C261.022827,324.318451 261.024445,223.578903 261.026825,122.839348 
	C261.027008,115.969505 261.029877,115.968422 268.095337,115.968178 
	C286.411621,115.967545 304.727966,115.995766 323.044006,115.927116 
	C324.984039,115.919846 326.921936,115.346680 328.860840,115.036041 
M338.871368,273.109924 
	C340.764496,273.109924 342.657654,273.109924 344.691833,273.109924 
	C344.691833,268.063202 344.691833,263.751617 344.691833,259.050995 
	C342.227722,259.050995 340.128723,259.050995 337.091125,258.976074 
	C318.288513,258.965485 299.485626,258.894073 280.683350,258.968903 
	C270.697144,259.008667 272.382599,257.467194 271.901733,267.681580 
	C271.685822,272.267181 273.309998,273.195587 277.566193,273.150360 
	C297.697815,272.936310 317.832947,273.049530 338.871368,273.109924 
M337.078400,123.990173 
	C315.525696,123.990173 293.973022,123.990173 272.384521,123.990173 
	C272.384521,129.386246 272.384521,133.945953 272.384521,138.894913 
	C294.526337,138.894913 316.290436,138.894913 338.937714,138.970596 
	C340.849121,138.970596 342.760529,138.970596 344.718506,138.970596 
	C344.718506,133.597916 344.718506,129.028625 344.718506,124.028511 
	C342.269135,124.028511 340.143188,124.028511 337.078400,123.990173 
M338.909973,363.034882 
	C340.820862,363.034882 342.731781,363.034882 344.731720,363.034882 
	C344.731720,357.660889 344.731720,353.094666 344.731720,348.103851 
	C342.299255,348.103851 340.176727,348.103851 337.112213,348.039124 
	C315.555023,348.039124 293.997833,348.039124 272.372467,348.039124 
	C272.372467,353.381592 272.372467,357.941376 272.372467,362.969788 
	C294.497406,362.969788 316.257538,362.969788 338.909973,363.034882 
M337.079163,325.989227 
	C315.525970,325.989227 293.972778,325.989227 272.384094,325.989227 
	C272.384094,331.388519 272.384094,335.947174 272.384094,340.895233 
	C294.526184,340.895233 316.290802,340.895233 338.938538,340.969849 
	C340.849854,340.969849 342.761169,340.969849 344.719238,340.969849 
	C344.719238,335.596039 344.719238,331.027710 344.719238,326.028534 
	C342.261139,326.028534 340.139618,326.028534 337.079163,325.989227 
M337.157623,303.101105 
	C315.608795,303.101105 294.059998,303.101105 272.002563,303.101105 
	C272.002563,306.895355 272.260010,310.046875 271.938843,313.138306 
	C271.516205,317.206085 273.167999,318.164154 277.018768,318.136902 
	C297.304352,317.993103 317.591797,318.109833 338.462524,318.672699 
	C341.123291,318.864075 344.568390,320.326477 344.958191,315.894653 
	C345.315369,311.833679 345.033997,307.716553 345.033997,303.214508 
	C342.312286,303.214508 340.206635,303.214508 337.157623,303.101105 
M337.078369,280.987793 
	C315.525696,280.987793 293.972992,280.987793 272.384277,280.987793 
	C272.384277,286.388855 272.384277,290.947357 272.384277,295.896362 
	C294.526093,295.896362 316.290314,295.896362 338.937866,295.970947 
	C340.849548,295.970947 342.761230,295.970947 344.718750,295.970947 
	C344.718750,290.596405 344.718750,286.027496 344.718750,281.027466 
	C342.260437,281.027466 340.138794,281.027466 337.078369,280.987793 
M338.968018,228.893600 
	C340.866302,228.893600 342.764557,228.893600 344.710968,228.893600 
	C344.710968,223.550934 344.710968,219.016129 344.710968,214.047943 
	C342.253754,214.047943 340.141479,214.047943 337.090637,213.973465 
	C316.947235,213.963043 296.803528,213.902664 276.661133,214.040939 
	C275.118225,214.051529 272.371643,215.317078 272.257477,216.252350 
	C271.765625,220.281998 272.047241,224.406067 272.047241,228.786789 
	C294.557922,228.786789 316.328857,228.786789 338.968018,228.893600 
M338.869537,161.110352 
	C340.780029,161.110352 342.690521,161.110352 344.737671,161.110352 
	C344.737671,155.758331 344.737671,151.203903 344.737671,146.217026 
	C342.314362,146.217026 340.207581,146.217026 337.157623,146.102478 
	C315.599060,146.102478 294.040466,146.102478 272.002167,146.102478 
	C272.002167,149.930405 272.269226,153.087189 271.936584,156.179459 
	C271.490692,160.324570 273.287476,161.160553 277.065704,161.130936 
	C297.364258,160.971802 317.664673,161.050919 338.869537,161.110352 
M338.908905,206.037857 
	C340.813660,206.037857 342.718414,206.037857 344.730988,206.037857 
	C344.730988,200.711212 344.730988,196.170258 344.730988,191.214508 
	C342.305847,191.214508 340.203400,191.214508 337.157623,191.101074 
	C315.595795,191.101074 294.033997,191.101074 272.369324,191.101074 
	C272.369324,196.384872 272.369324,200.941330 272.369324,205.975815 
	C294.494110,205.975815 316.255066,205.975815 338.908905,206.037857 
M338.937866,183.970917 
	C340.849548,183.970917 342.761230,183.970917 344.718750,183.970917 
	C344.718750,178.596436 344.718750,174.027481 344.718750,169.027451 
	C342.260468,169.027451 340.138794,169.027451 337.078369,168.987808 
	C315.525665,168.987808 293.972992,168.987808 272.384277,168.987808 
	C272.384277,174.388855 272.384277,178.947372 272.384277,183.896332 
	C294.526123,183.896332 316.290314,183.896332 338.937866,183.970917 
M338.909851,251.037445 
	C340.820984,251.037445 342.732117,251.037445 344.732056,251.037445 
	C344.732056,245.660797 344.732056,241.094971 344.732056,236.103851 
	C342.290649,236.103851 340.172455,236.103851 337.112213,236.039078 
	C315.555054,236.039078 293.997894,236.039078 272.372406,236.039078 
	C272.372406,241.379608 272.372406,245.940414 272.372406,250.971512 
	C294.497223,250.971512 316.257324,250.971512 338.909851,251.037445 
z"/>
<path fill="#F3C173" opacity="1.000000" stroke="none" 
	d="
M214.921356,37.153759 
	C252.290894,37.109844 289.660431,37.065926 327.512695,37.273544 
	C327.995392,37.525085 327.998108,37.951923 327.688568,38.094353 
	C322.682587,41.905754 317.921173,45.494888 313.300690,49.257145 
	C289.786224,68.404060 266.274811,87.555191 242.855865,106.818565 
	C239.597992,109.498352 236.858688,112.808563 233.504883,115.975273 
	C232.777100,117.661636 232.115097,119.199539 232.114487,120.737709 
	C232.074524,222.455795 232.087982,324.173889 232.096756,425.891998 
	C226.687302,425.952240 221.277832,426.012482 215.412384,425.551971 
	C214.944717,295.738739 214.933029,166.446243 214.921356,37.153759 
z"/>
<path fill="#D4A764" opacity="1.000000" stroke="none" 
	d="
M233.879333,115.826942 
	C236.858688,112.808563 239.597992,109.498352 242.855865,106.818565 
	C266.274811,87.555191 289.786224,68.404060 313.300690,49.257145 
	C317.921173,45.494888 322.682587,41.905754 327.883850,38.133789 
	C328.388672,38.030796 328.782104,38.091942 328.782104,38.091942 
	C328.811188,63.425335 328.840271,88.758728 328.865112,114.564087 
	C326.921936,115.346680 324.984039,115.919846 323.044006,115.927116 
	C304.727966,115.995766 286.411621,115.967545 268.095337,115.968178 
	C261.029877,115.968422 261.027008,115.969505 261.026825,122.839348 
	C261.024445,223.578903 261.022827,324.318451 261.011169,425.526062 
	C254.975952,426.026825 248.950623,426.059601 242.463257,425.562073 
	C242.001205,322.189911 242.001205,219.347961 242.001205,116.262177 
	C238.806747,116.090988 236.343033,115.958969 233.879333,115.826942 
z"/>
<path fill="#BD8C53" opacity="1.000000" stroke="none" 
	d="
M56.878017,317.409119 
	C56.878017,280.182312 56.878017,242.955521 56.878017,204.941910 
	C66.707108,204.941910 76.280846,204.941910 86.729927,204.934540 
	C89.018471,204.960266 90.431664,204.993378 92.327881,205.017365 
	C101.591393,205.014404 110.371872,205.020584 119.503296,205.028992 
	C120.555779,205.015961 121.257324,205.000717 122.431793,204.994156 
	C131.859299,204.955872 140.813889,204.908890 150.057922,204.914948 
	C150.541733,204.994553 150.736099,205.021164 150.941772,205.511292 
	C150.956039,224.277206 150.978806,242.579605 150.957474,260.881958 
	C150.921967,291.327820 150.858139,321.773682 150.616608,352.291504 
	C150.177902,352.513611 150.031082,352.732391 149.688446,353.206726 
	C144.614639,365.694061 139.838882,377.994446 135.028076,389.809143 
	C134.993027,383.720428 134.993027,378.117462 134.993027,372.354126 
	C125.018501,372.354126 115.707001,372.354126 106.407097,372.354126 
	C106.407097,381.716461 106.407097,390.610443 106.407097,400.068237 
	C115.002602,400.068237 123.271919,400.068237 131.434219,400.455841 
	C131.015350,402.154144 130.703491,403.464874 130.356232,404.924347 
	C135.211014,404.924347 139.604477,404.924347 144.314743,404.997772 
	C145.054001,405.156250 145.476471,405.241302 145.905106,405.773987 
	C145.628418,412.772369 145.345566,419.323151 145.062714,425.873932 
	C126.808769,425.966492 108.554886,426.076813 90.300842,426.143707 
	C81.833984,426.174744 73.366821,426.121307 64.441795,425.555420 
	C63.966648,415.336975 63.949509,405.669281 64.395020,395.926025 
	C68.625977,395.904022 72.394287,395.957611 76.145309,396.435547 
	C76.814552,397.901123 77.479927,399.831390 78.190842,399.848297 
	C86.915871,400.055939 95.647575,399.983521 104.579781,399.983521 
	C104.579781,390.403687 104.579781,381.393341 104.579781,371.924225 
	C95.535156,371.924225 86.796066,371.924225 77.894211,371.726013 
	C77.577362,371.051605 77.423271,370.575378 77.716156,370.065033 
	C86.924271,370.030884 95.685410,370.030884 104.500015,370.030884 
	C104.500015,360.284515 104.500015,351.236542 104.500015,342.279907 
	C94.886673,342.279907 85.669785,342.279907 75.930122,342.279907 
	C75.930122,350.507385 75.930122,358.308594 75.670403,365.858154 
	C74.251968,362.502747 73.122696,359.387634 71.929420,356.297211 
	C66.922714,343.330475 61.896862,330.371155 56.878017,317.409119 
M134.922775,311.409302 
	C134.895355,310.864807 134.867935,310.320282 134.877335,308.867767 
	C134.877335,299.984955 134.877335,291.102142 134.877335,282.199951 
	C124.957245,282.199951 115.772614,282.199951 106.160522,282.199951 
	C106.160522,291.623596 106.160522,300.699066 106.077728,310.591003 
	C106.105537,311.136047 106.133354,311.681122 106.127197,313.134003 
	C106.138603,322.013916 106.150002,330.893860 106.083542,340.590820 
	C106.110138,341.136810 106.136742,341.682831 106.124481,343.136139 
	C106.124481,351.904510 106.124481,360.672913 106.124481,369.566833 
	C115.982246,369.566833 125.310555,369.566833 134.840027,369.566833 
	C134.840027,360.160095 134.840027,351.192047 134.920166,341.407928 
	C134.892914,340.863220 134.865677,340.318542 134.876282,338.866119 
	C134.864319,329.985352 134.852356,321.104584 134.922775,311.409302 
M76.084305,280.587952 
	C76.110550,281.134796 76.136803,281.681641 76.124954,283.135895 
	C76.124954,292.047272 76.124954,300.958679 76.124954,309.861237 
	C86.095657,309.861237 95.200005,309.861237 104.835884,309.861237 
	C104.835884,300.465607 104.835884,291.347504 104.916748,281.411377 
	C104.890587,280.865356 104.864418,280.319305 104.877686,278.865692 
	C104.704262,269.906128 104.530846,260.946564 105.404800,251.501831 
	C105.773903,251.610458 106.143013,251.719086 106.216621,252.749390 
	C106.216621,261.668488 106.216621,270.587585 106.216621,279.640839 
	C115.998924,279.640839 125.309296,279.640839 134.592102,279.640839 
	C134.592102,270.274719 134.592102,261.382477 134.592102,251.858093 
	C124.999542,251.858093 115.737495,251.858093 106.044464,251.364746 
	C106.065880,251.147430 106.087288,250.930130 107.174194,250.700806 
	C116.254204,250.700806 125.334213,250.700806 134.591019,250.700806 
	C134.591019,240.875244 134.591019,231.675369 134.591019,222.272156 
	C125.069054,222.272156 115.861771,222.272156 106.210060,222.272156 
	C106.210060,231.964874 106.210060,241.383591 105.329811,250.334320 
	C105.329811,241.073944 105.329811,231.813583 105.329811,222.439972 
	C95.010567,222.439972 85.674103,222.439972 76.399155,222.439972 
	C76.399155,231.985382 76.399155,241.078293 76.399155,250.739197 
	C84.297501,250.739197 91.912560,250.664734 99.523972,250.798065 
	C101.170227,250.826889 102.803383,251.603104 103.443001,252.007721 
	C94.402481,252.007721 85.361969,252.007721 76.164795,252.007721 
	C76.164795,261.854309 76.164795,270.812073 76.084305,280.587952 
M82.597687,311.885437 
	C80.526581,311.979736 78.455475,312.074005 76.372635,312.168823 
	C76.372635,321.695801 76.372635,330.590881 76.372635,339.651978 
	C85.981079,339.651978 95.286484,339.651978 104.624756,339.651978 
	C104.624756,330.294861 104.624756,321.399719 104.624756,311.885498 
	C97.418121,311.885498 90.497612,311.885498 82.597687,311.885437 
z"/>
<path fill="#C9AB77" opacity="1.000000" stroke="none" 
	d="
M150.930466,205.047760 
	C150.736099,205.021164 150.541733,204.994553 150.090683,204.468643 
	C149.830139,201.138306 150.091766,198.269958 149.701309,195.493286 
	C149.527405,194.256561 148.070099,192.247055 147.144684,192.218323 
	C138.872437,191.961517 130.588898,192.068634 121.958870,192.068634 
	C121.958870,196.754028 121.958870,200.869736 121.958870,204.985458 
	C121.257324,205.000717 120.555779,205.015961 119.599945,204.568665 
	C119.345657,200.222610 119.345657,196.339111 119.345657,192.388077 
	C109.730080,192.388077 100.890358,192.388077 91.844864,192.388077 
	C91.844864,196.830017 91.844864,200.928238 91.844864,205.026489 
	C90.431664,204.993378 89.018471,204.960266 87.181099,204.887238 
	C86.784660,151.065796 86.812424,97.284271 86.839989,43.502743 
	C86.840996,41.541988 86.840118,39.581234 86.840118,37.021305 
	C129.544540,37.021305 171.776657,37.021305 214.465057,37.087532 
	C214.933029,166.446243 214.944717,295.738739 214.942764,425.496582 
	C200.268311,426.017212 185.607483,426.072449 170.476288,425.599365 
	C170.012619,418.426849 170.019302,411.782623 170.042801,404.779236 
	C169.746689,403.278595 169.433777,402.137115 169.327637,400.871429 
	C169.779221,400.523895 169.945602,400.252533 170.488876,399.939697 
	C173.858002,399.946320 176.771805,399.946320 179.649628,399.946320 
	C179.649628,390.238251 179.649628,381.324951 179.649628,371.938354 
	C176.231888,371.938354 173.110153,371.938354 169.988068,371.604126 
	C170.004288,370.824585 170.020889,370.379242 170.492432,369.939941 
	C173.860397,369.945953 176.773407,369.945953 179.557373,369.945953 
	C179.557373,330.282959 179.557373,291.412506 179.557373,252.068787 
	C176.271393,252.068787 173.153442,252.068787 170.019760,251.761368 
	C169.984756,251.044022 169.965485,250.634094 170.410110,250.226715 
	C173.771072,250.229263 176.668121,250.229263 179.646057,250.229263 
	C179.646057,240.456177 179.646057,231.467224 179.646057,222.065689 
	C176.238464,222.065689 173.137100,222.065689 170.020569,221.760590 
	C169.984634,221.048767 169.963852,220.642029 170.407257,220.235748 
	C173.786346,220.236191 176.701263,220.236191 179.534515,220.236191 
	C179.534515,210.342697 179.534515,201.302979 179.534515,192.346375 
	C170.176682,192.346375 161.246689,192.346375 151.957199,192.346375 
	C151.957199,196.758148 151.957199,200.871231 151.700775,205.004440 
	C151.273056,205.032303 151.101761,205.040039 150.930466,205.047760 
M181.993576,310.680511 
	C181.993225,311.111420 181.992874,311.542358 181.640015,312.513763 
	C181.757111,321.686249 181.874207,330.858734 181.993622,340.673859 
	C181.989563,341.102478 181.985519,341.531097 181.822037,342.891571 
	C181.822037,351.794983 181.822037,360.698395 181.822037,369.535156 
	C191.658081,369.535156 200.698227,369.535156 209.906174,369.535156 
	C209.906174,360.130249 209.906174,351.149109 209.947495,341.386963 
	C209.932419,340.865906 209.917343,340.344818 209.938232,338.909363 
	C209.926437,329.997925 209.914642,321.086517 209.946884,311.393921 
	C209.933304,310.873230 209.919724,310.352509 209.945801,308.916534 
	C209.932388,300.000763 209.918976,291.084991 209.947296,281.388275 
	C209.932495,280.867249 209.917694,280.346191 209.939423,278.910614 
	C209.939423,270.040039 209.939423,261.169434 209.939423,252.470154 
	C199.967911,252.470154 190.793533,252.470154 181.990936,252.470154 
	C181.990936,261.941040 181.990936,270.986816 181.993576,280.675171 
	C181.989700,281.103790 181.985840,281.532379 181.823517,282.892792 
	C181.877075,291.939911 181.930649,300.987030 181.993576,310.680511 
M160.578415,72.107750 
	C158.749542,72.108536 156.913177,72.214661 155.093521,72.085510 
	C152.335526,71.889771 151.168686,73.008430 151.204956,75.816727 
	C151.297272,82.964775 151.096481,90.120087 151.367416,97.259041 
	C151.414444,98.498215 153.160843,100.682030 154.179642,100.716110 
	C162.597809,100.997673 171.029495,100.875389 179.676636,100.875389 
	C179.676636,91.068054 179.676636,81.861061 179.676636,72.107948 
	C173.441132,72.107948 167.500336,72.107948 160.578415,72.107750 
M151.229080,167.757278 
	C151.228424,174.063446 151.083572,180.375504 151.339844,186.671204 
	C151.396027,188.051712 152.841034,190.516449 153.712692,190.546265 
	C162.282730,190.839447 170.866791,190.723236 179.657242,190.723236 
	C179.657242,180.971664 179.657242,171.790512 179.657242,162.104782 
	C171.411636,162.104782 163.480362,162.266602 155.560684,162.033859 
	C151.818497,161.923889 150.891495,163.619080 151.229080,167.757278 
M147.160172,102.112495 
	C139.853729,102.110573 132.541138,101.953850 125.246338,102.244370 
	C123.875557,102.298958 121.467659,104.090767 121.421143,105.162643 
	C121.090302,112.786530 121.172752,120.433411 121.349525,128.067734 
	C121.371185,129.003204 122.715446,130.690414 123.475319,130.706818 
	C132.186722,130.894760 140.903656,130.826492 149.889481,130.826492 
	C149.889481,121.723320 149.950943,113.431351 149.809555,105.142845 
	C149.792404,104.137520 148.681747,103.150856 147.160172,102.112495 
M158.599915,102.137238 
	C156.493195,102.137238 154.386475,102.137238 152.189575,102.137238 
	C152.189575,112.033554 152.189575,121.231316 152.189575,130.428223 
	C161.645126,130.428223 170.678833,130.428223 179.684296,130.428223 
	C179.684296,120.891571 179.684296,111.793991 179.684296,102.137444 
	C172.801483,102.137444 166.190186,102.137444 158.599915,102.137238 
M181.781418,128.244919 
	C182.541626,129.106934 183.286194,130.701782 184.064438,130.718399 
	C192.507217,130.898499 200.955261,130.830948 209.660980,130.830948 
	C209.660980,121.090355 209.660980,111.875671 209.660980,102.511383 
	C200.307175,102.511383 191.259750,102.511383 181.769196,102.511383 
	C181.769196,111.015892 181.769196,119.152710 181.781418,128.244919 
M209.963943,80.559288 
	C209.963943,77.825150 209.963943,75.091011 209.963943,72.484299 
	C200.122269,72.484299 191.198959,72.484299 182.188354,72.484299 
	C182.188354,82.032494 182.188354,91.228355 182.188354,100.430367 
	C191.646362,100.430367 200.679291,100.430367 209.963669,100.430367 
	C209.963669,93.847649 209.963669,87.696465 209.963943,80.559288 
M107.476883,70.865883 
	C110.471085,70.865257 113.496017,71.111679 116.444687,70.744934 
	C117.659424,70.593857 119.659859,69.153290 119.687386,68.250000 
	C119.939285,59.982605 119.835526,51.704369 119.835526,43.102798 
	C110.105919,43.102798 100.913223,43.102798 91.130600,43.102798 
	C91.130600,47.355465 91.053879,51.307373 91.150009,55.255070 
	C91.270416,60.199936 89.690453,66.924850 92.257874,69.576866 
	C94.767555,72.169250 101.570641,70.605186 107.476883,70.865883 
M145.198593,72.134300 
	C137.588379,72.134300 129.978165,72.134300 122.129501,72.134300 
	C122.129501,81.948135 122.129501,91.143921 122.129501,100.853172 
	C130.597870,100.853172 138.718216,100.958817 146.828552,100.721825 
	C147.862885,100.691612 149.683105,98.901329 149.717285,97.878906 
	C149.967331,90.397614 149.795197,82.903450 149.886734,75.414948 
	C149.920502,72.653198 148.483322,71.966682 145.198593,72.134300 
M119.865837,178.484680 
	C119.863144,174.160034 120.083176,169.816284 119.714577,165.523056 
	C119.611397,164.321198 117.809280,162.337967 116.726234,162.296768 
	C109.252129,162.012314 101.759636,162.055252 94.279900,162.252472 
	C93.229607,162.280151 91.342438,163.700485 91.321220,164.514709 
	C91.101837,172.932907 91.186394,181.358994 91.186394,189.799484 
	C101.064980,189.799484 110.256897,189.799484 119.865540,189.799484 
	C119.865540,186.076645 119.865540,182.775620 119.865837,178.484680 
M97.597595,160.233109 
	C104.852890,160.233109 112.108192,160.233109 119.851913,160.233109 
	C119.851913,151.391647 119.957596,143.274704 119.720383,135.167801 
	C119.690163,134.134903 117.896080,132.315903 116.873802,132.283310 
	C109.228966,132.039581 101.570068,132.060074 93.923401,132.275528 
	C92.977379,132.302185 91.300888,133.943390 91.277512,134.869614 
	C91.069031,143.131866 91.156075,151.401566 91.156075,160.234207 
	C93.395523,160.234207 95.012650,160.234207 97.597595,160.233109 
M193.513779,42.767883 
	C190.692841,42.770943 187.849823,42.571449 185.061646,42.875256 
	C183.922272,42.999401 181.986145,44.189442 181.966919,44.934673 
	C181.746918,53.461452 181.826935,61.995972 181.826935,70.595123 
	C191.600296,70.595123 200.490860,70.595123 209.642975,70.595123 
	C209.642975,61.308311 209.642975,52.294300 209.642975,42.767426 
	C204.384872,42.767426 199.445724,42.767426 193.513779,42.767883 
M153.706161,42.839546 
	C153.118958,43.325699 152.025635,43.805820 152.019760,44.298904 
	C151.915894,53.006645 151.944550,61.715973 151.944550,70.473381 
	C161.614532,70.473381 170.632416,70.473381 179.683289,70.473381 
	C179.683289,61.176361 179.683289,52.277222 179.683289,42.780411 
	C171.164032,42.780411 162.917526,42.780411 153.706161,42.839546 
M203.419220,250.233765 
	C205.487549,250.233765 207.555878,250.233765 209.529800,250.233765 
	C209.529800,240.312759 209.529800,231.276657 209.529800,222.347351 
	C200.165634,222.347351 191.239029,222.347351 181.793137,222.347351 
	C181.793137,230.921814 181.673599,239.201050 181.954742,247.466690 
	C181.987381,248.426331 184.203384,250.038864 185.471237,250.104187 
	C191.113144,250.394852 196.778366,250.232681 203.419220,250.233765 
M151.770645,139.574524 
	C151.771896,145.217087 151.642944,150.865036 151.875092,156.498077 
	C151.926712,157.750519 153.219299,159.991959 153.992996,160.014984 
	C162.527908,160.269104 171.073181,160.174713 179.511826,160.174713 
	C179.511826,150.371262 179.511826,141.366577 179.511826,132.451447 
	C170.152222,132.451447 161.251968,132.451447 151.770065,132.451447 
	C151.770065,134.710144 151.770065,136.653931 151.770645,139.574524 
M194.506500,160.233383 
	C199.559769,160.233383 204.613022,160.233383 209.672974,160.233383 
	C209.672974,150.444901 209.672974,141.559067 209.672974,132.468353 
	C200.355911,132.468353 191.335190,132.468353 181.769669,132.468353 
	C181.769669,138.066818 181.769669,143.337662 181.769669,148.608490 
	C181.769669,160.231888 181.769669,160.231888 194.506500,160.233383 
M185.641144,190.230804 
	C193.559265,190.230804 201.477386,190.230804 209.632645,190.230804 
	C209.632645,180.625412 209.632645,171.612579 209.632645,162.505798 
	C200.267578,162.505798 191.241653,162.505798 181.800568,162.505798 
	C181.800568,171.145554 181.715881,179.422516 181.926178,187.691986 
	C181.948212,188.557770 183.713226,189.379227 185.641144,190.230804 
M201.446136,399.956665 
	C204.191467,399.956665 206.936798,399.956665 209.674042,399.956665 
	C209.674042,390.270569 209.674042,381.373077 209.674042,372.259583 
	C200.367874,372.259583 191.348495,372.259583 182.191864,372.259583 
	C182.191864,381.594543 182.191864,390.587524 182.191864,399.956604 
	C188.555191,399.956604 194.506851,399.956604 201.446136,399.956665 
M122.170464,132.907898 
	C122.040154,141.028961 121.842354,149.150238 121.868790,157.270798 
	C121.871933,158.237076 123.080391,160.023254 123.761147,160.038422 
	C132.315094,160.229065 140.874771,160.163498 149.856628,160.163498 
	C149.856628,151.310425 149.981567,143.196335 149.700317,135.096329 
	C149.664703,134.070541 147.519760,132.295685 146.317734,132.266190 
	C138.521393,132.074844 130.715530,132.270844 122.170464,132.907898 
M149.870422,169.638962 
	C148.996567,167.165939 151.980942,162.663773 147.370972,162.341278 
	C139.005493,161.756058 130.569748,162.175323 121.776794,162.175323 
	C121.776794,171.016235 121.692131,179.136261 121.885315,187.249680 
	C121.909119,188.249527 123.394516,190.045059 124.238152,190.066406 
	C132.625732,190.278580 141.020813,190.195007 149.870453,190.195007 
	C149.870453,183.164902 149.870453,176.887054 149.870422,169.638962 
M149.090317,43.173172 
	C140.969574,43.042377 132.848618,42.844082 124.728371,42.870052 
	C123.762062,42.873142 121.975723,44.081604 121.960541,44.762348 
	C121.769882,53.315750 121.835457,61.874863 121.835457,70.854889 
	C130.690948,70.854889 138.804733,70.979477 146.904480,70.698708 
	C147.928009,70.663223 149.698822,68.519852 149.728439,67.318680 
	C149.920624,59.522587 149.726532,51.716961 149.090317,43.173172 
M113.433067,130.410599 
	C118.339005,131.227768 119.822205,129.058243 119.498489,124.299339 
	C119.114998,118.661865 119.278496,112.974350 119.456581,107.316437 
	C119.559525,104.045670 118.741188,102.399277 115.045692,102.530197 
	C108.557426,102.760048 102.054306,102.656395 95.559204,102.564796 
	C92.940872,102.527870 91.509682,103.250153 91.559914,106.202873 
	C91.676071,113.030411 91.670975,119.862427 91.563087,126.690216 
	C91.518143,129.534424 92.743980,130.490952 95.458496,130.439957 
	C101.119995,130.333603 106.784920,130.410233 113.433067,130.410599 
M91.973801,73.664070 
	C91.852394,81.478218 91.599579,89.295029 91.757149,97.103546 
	C91.779701,98.221352 93.747734,100.200401 94.880028,100.248154 
	C101.863991,100.542694 108.874413,100.566849 115.855423,100.240288 
	C117.087563,100.182655 119.185974,98.094803 119.243233,96.867920 
	C119.569000,89.886917 119.542908,82.876503 119.247375,75.892555 
	C119.199272,74.755623 117.229210,72.778908 116.115532,72.756180 
	C108.306633,72.596764 100.489342,72.848427 91.973801,73.664070 
M198.467560,401.985168 
	C201.890732,401.985168 205.313904,401.985168 208.737091,401.985168 
	C208.721954,401.752777 208.706818,401.520355 208.691696,401.287964 
	C200.161118,401.287964 191.630539,401.287964 183.099960,401.287964 
	C183.098480,401.520355 183.097000,401.752747 183.095535,401.985138 
	C187.890945,401.985138 192.686371,401.985138 198.467560,401.985168 
z"/>
<path fill="#BD8C52" opacity="1.000000" stroke="none" 
	d="
M272.490479,426.039673 
	C272.028717,406.314392 272.028717,386.662750 272.028717,366.119171 
	C293.853851,366.119171 315.416840,366.119171 337.471161,366.613159 
	C337.971588,386.723358 337.980682,406.339539 337.989777,425.955750 
	C316.310608,426.008270 294.631409,426.060791 272.490479,426.039673 
z"/>
<path fill="#C08F53" opacity="1.000000" stroke="none" 
	d="
M233.504883,115.975273 
	C236.343033,115.958969 238.806747,116.090988 242.001205,116.262177 
	C242.001205,219.347961 242.001205,322.189911 241.998322,425.497589 
	C238.988037,425.997162 235.980621,426.030975 232.534973,425.978394 
	C232.087982,324.173889 232.074524,222.455795 232.114487,120.737709 
	C232.115097,119.199539 232.777100,117.661636 233.504883,115.975273 
z"/>
<path fill="#04B12E" opacity="1.000000" stroke="none" 
	d="
M56.602547,317.587646 
	C61.896862,330.371155 66.922714,343.330475 71.929420,356.297211 
	C73.122696,359.387634 74.251968,362.502747 75.720856,366.204559 
	C76.443748,367.901459 76.856468,369.000336 77.269180,370.099182 
	C77.423271,370.575378 77.577362,371.051605 77.917351,372.101501 
	C80.874313,380.183838 83.645378,387.692474 86.715401,396.011230 
	C82.438515,396.011230 79.300552,396.011230 76.162590,396.011230 
	C72.394287,395.957611 68.625977,395.904022 63.943199,395.846222 
	C58.698212,395.892120 54.367695,395.942230 50.037178,395.992371 
	C49.577133,395.915070 49.117088,395.837738 48.318863,395.228455 
	C48.320751,390.764343 48.562523,386.820740 49.019131,382.902191 
	C50.445259,370.663269 52.027138,358.442200 53.403748,346.197906 
	C54.420486,337.154480 55.210655,328.085571 56.101772,319.028015 
	C56.176880,318.607422 56.251980,318.186798 56.602547,317.587646 
z"/>
<path fill="#04B22F" opacity="1.000000" stroke="none" 
	d="
M355.121399,395.690186 
	C355.168945,370.070923 355.216461,344.451691 355.491150,318.496094 
	C365.239685,343.791229 374.761017,369.422760 384.570740,395.830688 
	C376.786224,395.830688 369.709534,395.830688 361.751251,395.835388 
	C358.953552,395.790131 357.037476,395.740143 355.121399,395.690186 
z"/>
<path fill="#039523" opacity="1.000000" stroke="none" 
	d="
M55.913006,319.329102 
	C55.210655,328.085571 54.420486,337.154480 53.403748,346.197906 
	C52.027138,358.442200 50.445259,370.663269 49.019131,382.902191 
	C48.562523,386.820740 48.320751,390.764343 47.984688,395.120758 
	C41.342167,395.545044 34.695637,395.545044 27.155567,395.545044 
	C36.736176,370.086731 46.230209,344.858459 55.913006,319.329102 
z"/>
<path fill="#D3A664" opacity="1.000000" stroke="none" 
	d="
M338.424133,426.021973 
	C337.980682,406.339539 337.971588,386.723358 337.930786,366.661072 
	C340.021149,366.214996 342.143188,366.214996 345.019257,366.214996 
	C345.019257,386.026733 345.019257,405.542023 345.008667,425.525269 
	C342.951538,426.024872 340.904999,426.056519 338.424133,426.021973 
z"/>
<path fill="#BD6800" opacity="1.000000" stroke="none" 
	d="
M50.036678,396.461426 
	C54.367695,395.942230 58.698212,395.892120 63.480545,395.921814 
	C63.949509,405.669281 63.966648,415.336975 63.978138,425.468628 
	C59.544907,425.932556 55.117332,425.932556 50.036175,425.932556 
	C50.036175,416.256226 50.036175,406.593384 50.036678,396.461426 
z"/>
<path fill="#F2C172" opacity="1.000000" stroke="none" 
	d="
M170.025986,405.138397 
	C170.019302,411.782623 170.012619,418.426849 170.011688,425.540466 
	C165.302139,426.030060 160.586853,426.050262 155.413239,425.550964 
	C154.967880,418.463501 154.980865,411.895569 155.456924,405.248932 
	C160.622009,405.159637 165.323990,405.149017 170.025986,405.138397 
z"/>
<path fill="#C06F10" opacity="1.000000" stroke="none" 
	d="
M355.059326,396.179962 
	C357.037476,395.740143 358.953552,395.790131 361.267761,395.918945 
	C361.665894,405.848145 361.665894,415.698578 361.665894,426.217041 
	C359.500610,426.217041 357.595398,426.217041 355.346497,426.107544 
	C355.000946,416.221954 354.999084,406.445862 355.059326,396.179962 
z"/>
<path fill="#BC6800" opacity="1.000000" stroke="none" 
	d="
M154.993835,405.327606 
	C154.980865,411.895569 154.967880,418.463501 154.945557,425.497864 
	C151.937469,426.002838 148.938766,426.041412 145.501389,425.976929 
	C145.345566,419.323151 145.628418,412.772369 146.362030,405.689453 
	C149.539795,405.214081 152.266815,405.270844 154.993835,405.327606 
z"/>
<path fill="#F3CD97" opacity="1.000000" stroke="none" 
	d="
M328.791565,37.834927 
	C328.782104,38.091942 328.388672,38.030796 328.193390,37.991360 
	C327.998108,37.951923 327.995392,37.525085 327.977264,37.312763 
	C328.239777,37.259598 328.520386,37.418755 328.791565,37.834927 
z"/>
<path fill="#D4A764" opacity="1.000000" stroke="none" 
	d="
M338.017426,250.971512 
	C316.257324,250.971512 294.497223,250.971512 272.372406,250.971512 
	C272.372406,245.940414 272.372406,241.379608 272.372406,236.039078 
	C293.997894,236.039078 315.555054,236.039078 337.563385,236.526947 
	C338.015533,241.667053 338.016479,246.319275 338.017426,250.971512 
z"/>
<path fill="#D4A764" opacity="1.000000" stroke="none" 
	d="
M338.054535,183.896332 
	C316.290314,183.896332 294.526123,183.896332 272.384277,183.896332 
	C272.384277,178.947372 272.384277,174.388855 272.384277,168.987808 
	C293.972992,168.987808 315.525665,168.987808 337.541565,169.470734 
	C338.021332,174.601212 338.037933,179.248764 338.054535,183.896332 
z"/>
<path fill="#D5A765" opacity="1.000000" stroke="none" 
	d="
M338.016052,205.975815 
	C316.255066,205.975815 294.494110,205.975815 272.369324,205.975815 
	C272.369324,200.941330 272.369324,196.384872 272.369324,191.101074 
	C294.033997,191.101074 315.595795,191.101074 337.597351,191.601227 
	C338.030060,196.726181 338.023071,201.350998 338.016052,205.975815 
z"/>
<path fill="#D5A765" opacity="1.000000" stroke="none" 
	d="
M337.964447,161.047775 
	C317.664673,161.050919 297.364258,160.971802 277.065704,161.130936 
	C273.287476,161.160553 271.490692,160.324570 271.936584,156.179459 
	C272.269226,153.087189 272.002167,149.930405 272.002167,146.102478 
	C294.040466,146.102478 315.599060,146.102478 337.597107,146.602997 
	C338.012543,151.751602 337.988495,156.399689 337.964447,161.047775 
z"/>
<path fill="#D5A765" opacity="1.000000" stroke="none" 
	d="
M338.099792,228.786789 
	C316.328857,228.786789 294.557922,228.786789 272.047241,228.786789 
	C272.047241,224.406067 271.765625,220.281998 272.257477,216.252350 
	C272.371643,215.317078 275.118225,214.051529 276.661133,214.040939 
	C296.803528,213.902664 316.947235,213.963043 337.548889,214.471436 
	C338.038055,219.575195 338.068909,224.181000 338.099792,228.786789 
z"/>
<path fill="#D4A764" opacity="1.000000" stroke="none" 
	d="
M338.054504,295.896362 
	C316.290314,295.896362 294.526093,295.896362 272.384277,295.896362 
	C272.384277,290.947357 272.384277,286.388855 272.384277,280.987793 
	C293.972992,280.987793 315.525696,280.987793 337.541534,281.470703 
	C338.021301,286.601227 338.037903,291.248779 338.054504,295.896362 
z"/>
<path fill="#D5A765" opacity="1.000000" stroke="none" 
	d="
M337.878601,318.136200 
	C317.591797,318.109833 297.304352,317.993103 277.018768,318.136902 
	C273.167999,318.164154 271.516205,317.206085 271.938843,313.138306 
	C272.260010,310.046875 272.002563,306.895355 272.002563,303.101105 
	C294.059998,303.101105 315.608795,303.101105 337.597351,303.601501 
	C337.984253,308.779968 337.931427,313.458099 337.878601,318.136200 
z"/>
<path fill="#D4A764" opacity="1.000000" stroke="none" 
	d="
M338.055420,340.895233 
	C316.290802,340.895233 294.526184,340.895233 272.384094,340.895233 
	C272.384094,335.947174 272.384094,331.388519 272.384094,325.989227 
	C293.972778,325.989227 315.525970,325.989227 337.541992,326.471863 
	C338.021667,331.601410 338.038544,336.248322 338.055420,340.895233 
z"/>
<path fill="#D4A764" opacity="1.000000" stroke="none" 
	d="
M338.017670,362.969788 
	C316.257538,362.969788 294.497406,362.969788 272.372467,362.969788 
	C272.372467,357.941376 272.372467,353.381592 272.372467,348.039124 
	C293.997833,348.039124 315.555023,348.039124 337.563385,348.526978 
	C338.015594,353.666473 338.016632,358.318146 338.017670,362.969788 
z"/>
<path fill="#D4A764" opacity="1.000000" stroke="none" 
	d="
M338.054535,138.894913 
	C316.290436,138.894913 294.526337,138.894913 272.384521,138.894913 
	C272.384521,133.945953 272.384521,129.386246 272.384521,123.990173 
	C293.973022,123.990173 315.525696,123.990173 337.541504,124.472321 
	C338.021271,129.601288 338.037903,134.248093 338.054535,138.894913 
z"/>
<path fill="#D4A764" opacity="1.000000" stroke="none" 
	d="
M337.966797,273.046143 
	C317.832947,273.049530 297.697815,272.936310 277.566193,273.150360 
	C273.309998,273.195587 271.685822,272.267181 271.901733,267.681580 
	C272.382599,257.467194 270.697144,259.008667 280.683350,258.968903 
	C299.485626,258.894073 318.288513,258.965485 337.549500,259.472931 
	C337.994202,264.328583 337.980499,268.687347 337.966797,273.046143 
z"/>
<path fill="#BE8C51" opacity="1.000000" stroke="none" 
	d="
M338.170563,318.404449 
	C337.931427,313.458099 337.984253,308.779968 338.069000,303.658203 
	C340.206635,303.214508 342.312286,303.214508 345.033997,303.214508 
	C345.033997,307.716553 345.315369,311.833679 344.958191,315.894653 
	C344.568390,320.326477 341.123291,318.864075 338.170563,318.404449 
z"/>
<path fill="#BE8C51" opacity="1.000000" stroke="none" 
	d="
M338.463623,251.004486 
	C338.016479,246.319275 338.015533,241.667053 338.034393,236.559326 
	C340.172455,236.103851 342.290649,236.103851 344.732056,236.103851 
	C344.732056,241.094971 344.732056,245.660797 344.732056,251.037445 
	C342.732117,251.037445 340.820984,251.037445 338.463623,251.004486 
z"/>
<path fill="#BE8C51" opacity="1.000000" stroke="none" 
	d="
M338.496124,138.932755 
	C338.037903,134.248093 338.021271,129.601288 338.010925,124.491486 
	C340.143188,124.028511 342.269135,124.028511 344.718506,124.028511 
	C344.718506,129.028625 344.718506,133.597916 344.718506,138.970596 
	C342.760529,138.970596 340.849121,138.970596 338.496124,138.932755 
z"/>
<path fill="#BE8C51" opacity="1.000000" stroke="none" 
	d="
M338.416992,161.079071 
	C337.988495,156.399689 338.012543,151.751602 338.068726,146.660278 
	C340.207581,146.217026 342.314362,146.217026 344.737671,146.217026 
	C344.737671,151.203903 344.737671,155.758331 344.737671,161.110352 
	C342.690521,161.110352 340.780029,161.110352 338.416992,161.079071 
z"/>
<path fill="#BE8C51" opacity="1.000000" stroke="none" 
	d="
M338.496216,183.933624 
	C338.037933,179.248764 338.021332,174.601212 338.010925,169.490540 
	C340.138794,169.027451 342.260468,169.027451 344.718750,169.027451 
	C344.718750,174.027481 344.718750,178.596436 344.718750,183.970917 
	C342.761230,183.970917 340.849548,183.970917 338.496216,183.933624 
z"/>
<path fill="#BE8C51" opacity="1.000000" stroke="none" 
	d="
M338.462463,206.006836 
	C338.023071,201.350998 338.030060,196.726181 338.069000,191.657928 
	C340.203400,191.214508 342.305847,191.214508 344.730988,191.214508 
	C344.730988,196.170258 344.730988,200.711212 344.730988,206.037857 
	C342.718414,206.037857 340.813660,206.037857 338.462463,206.006836 
z"/>
<path fill="#BE8C51" opacity="1.000000" stroke="none" 
	d="
M338.533905,228.840195 
	C338.068909,224.181000 338.038055,219.575195 338.018188,214.508667 
	C340.141479,214.047943 342.253754,214.047943 344.710968,214.047943 
	C344.710968,219.016129 344.710968,223.550934 344.710968,228.893600 
	C342.764557,228.893600 340.866302,228.893600 338.533905,228.840195 
z"/>
<path fill="#BE8C51" opacity="1.000000" stroke="none" 
	d="
M338.463806,363.002319 
	C338.016632,358.318146 338.015594,353.666473 338.034393,348.559326 
	C340.176727,348.103851 342.299255,348.103851 344.731720,348.103851 
	C344.731720,353.094666 344.731720,357.660889 344.731720,363.034882 
	C342.731781,363.034882 340.820862,363.034882 338.463806,363.002319 
z"/>
<path fill="#BE8C51" opacity="1.000000" stroke="none" 
	d="
M338.496185,295.933655 
	C338.037903,291.248779 338.021301,286.601227 338.010925,281.490540 
	C340.138794,281.027466 342.260437,281.027466 344.718750,281.027466 
	C344.718750,286.027496 344.718750,290.596405 344.718750,295.970947 
	C342.761230,295.970947 340.849548,295.970947 338.496185,295.933655 
z"/>
<path fill="#BE8C51" opacity="1.000000" stroke="none" 
	d="
M338.496979,340.932556 
	C338.038544,336.248322 338.021667,331.601410 338.011444,326.491516 
	C340.139618,326.028534 342.261139,326.028534 344.719238,326.028534 
	C344.719238,331.027710 344.719238,335.596039 344.719238,340.969849 
	C342.761169,340.969849 340.849854,340.969849 338.496979,340.932556 
z"/>
<path fill="#BE8C51" opacity="1.000000" stroke="none" 
	d="
M338.419067,273.078033 
	C337.980499,268.687347 337.994202,264.328583 338.018799,259.510376 
	C340.128723,259.050995 342.227722,259.050995 344.691833,259.050995 
	C344.691833,263.751617 344.691833,268.063202 344.691833,273.109924 
	C342.657654,273.109924 340.764496,273.109924 338.419067,273.078033 
z"/>
<path fill="#F0C175" opacity="1.000000" stroke="none" 
	d="
M169.943085,220.235306 
	C169.963852,220.642029 169.984634,221.048767 169.951141,222.220062 
	C169.913330,232.064484 169.929779,241.144333 169.946228,250.224167 
	C169.965485,250.634094 169.984756,251.044022 169.953796,252.220993 
	C169.894684,262.983795 169.865891,272.979584 169.880676,282.975311 
	C169.923569,311.961517 169.983963,340.947723 170.037491,369.933929 
	C170.020889,370.379242 170.004288,370.824585 169.939880,372.076263 
	C169.939255,381.899445 169.986404,390.916260 170.033554,399.933075 
	C169.945602,400.252533 169.779221,400.523895 169.148499,400.549011 
	C162.777130,384.307068 156.791687,368.263306 150.806244,352.219543 
	C150.858139,321.773682 150.921967,291.327820 150.957474,260.881958 
	C150.978806,242.579605 150.956039,224.277206 150.941772,205.511292 
	C151.101761,205.040039 151.273056,205.032303 152.173920,205.010773 
	C158.460632,204.996979 164.017761,204.996979 169.943085,204.996979 
	C169.943085,210.643921 169.943085,215.439621 169.943085,220.235306 
z"/>
<path fill="#75C0F2" opacity="1.000000" stroke="none" 
	d="
M104.442574,252.035065 
	C102.803383,251.603104 101.170227,250.826889 99.523972,250.798065 
	C91.912560,250.664734 84.297501,250.739197 76.399155,250.739197 
	C76.399155,241.078293 76.399155,231.985382 76.399155,222.439972 
	C85.674103,222.439972 95.010567,222.439972 105.329811,222.439972 
	C105.329811,231.813583 105.329811,241.073944 105.760406,250.546341 
	C106.191010,250.758362 106.108696,250.712845 106.108696,250.712845 
	C106.087288,250.930130 106.065880,251.147430 106.280670,251.619568 
	C106.516884,251.874390 106.512123,251.827713 106.512123,251.827728 
	C106.143013,251.719086 105.773903,251.610458 104.902283,251.756531 
	C104.399765,252.011246 104.442574,252.035049 104.442574,252.035065 
z"/>
<path fill="#75C1F2" opacity="1.000000" stroke="none" 
	d="
M106.641449,250.706818 
	C106.108696,250.712845 106.191010,250.758362 106.200531,250.780334 
	C106.210060,241.383591 106.210060,231.964874 106.210060,222.272156 
	C115.861771,222.272156 125.069054,222.272156 134.591019,222.272156 
	C134.591019,231.675369 134.591019,240.875244 134.591019,250.700806 
	C125.334213,250.700806 116.254204,250.700806 106.641449,250.706818 
z"/>
<path fill="#73C1F4" opacity="1.000000" stroke="none" 
	d="
M104.835884,282.229401 
	C104.835884,291.347504 104.835884,300.465607 104.835884,309.861237 
	C95.200005,309.861237 86.095657,309.861237 76.124954,309.861237 
	C76.124954,300.958679 76.124954,292.047272 76.595001,282.610077 
	C86.321999,282.132629 95.578941,282.181030 104.835884,282.229401 
z"/>
<path fill="#74C2F5" opacity="1.000000" stroke="none" 
	d="
M106.160522,309.774506 
	C106.160522,300.699066 106.160522,291.623596 106.160522,282.199951 
	C115.772614,282.199951 124.957245,282.199951 134.877335,282.199951 
	C134.877335,291.102142 134.877335,299.984955 134.407593,309.392731 
	C124.678734,309.869965 115.419624,309.822235 106.160522,309.774506 
z"/>
<path fill="#74C1F5" opacity="1.000000" stroke="none" 
	d="
M103.942787,252.021393 
	C104.442574,252.035049 104.399765,252.011246 104.378601,251.999115 
	C104.530846,260.946564 104.704262,269.906128 104.406693,279.390198 
	C94.678734,279.866455 85.421768,279.818146 76.164795,279.769836 
	C76.164795,270.812073 76.164795,261.854309 76.164795,252.007721 
	C85.361969,252.007721 94.402481,252.007721 103.942787,252.021393 
z"/>
<path fill="#74C1F5" opacity="1.000000" stroke="none" 
	d="
M134.840027,342.224060 
	C134.840027,351.192047 134.840027,360.160095 134.840027,369.566833 
	C125.310555,369.566833 115.982246,369.566833 106.124481,369.566833 
	C106.124481,360.672913 106.124481,351.904510 106.594917,342.610596 
	C116.323578,342.131378 125.581802,342.177704 134.840027,342.224060 
z"/>
<path fill="#5265AA" opacity="1.000000" stroke="none" 
	d="
M83.087387,311.885468 
	C90.497612,311.885498 97.418121,311.885498 104.624756,311.885498 
	C104.624756,321.399719 104.624756,330.294861 104.624756,339.651978 
	C95.286484,339.651978 85.981079,339.651978 76.372635,339.651978 
	C76.372635,330.590881 76.372635,321.695801 76.372635,312.168823 
	C78.455475,312.074005 80.526581,311.979736 83.087387,311.885468 
z"/>
<path fill="#74C2F5" opacity="1.000000" stroke="none" 
	d="
M106.161407,339.773743 
	C106.150002,330.893860 106.138603,322.013916 106.595444,312.609314 
	C116.322586,312.131012 125.581482,312.177399 134.840378,312.223816 
	C134.852356,321.104584 134.864319,329.985352 134.406113,339.390747 
	C124.677765,339.868195 115.419586,339.820984 106.161407,339.773743 
z"/>
<path fill="#5265AA" opacity="1.000000" stroke="none" 
	d="
M106.364372,252.288544 
	C106.512123,251.827713 106.516884,251.874390 106.496170,251.866241 
	C115.737495,251.858093 124.999542,251.858093 134.592102,251.858093 
	C134.592102,261.382477 134.592102,270.274719 134.592102,279.640839 
	C125.309296,279.640839 115.998924,279.640839 106.216621,279.640839 
	C106.216621,270.587585 106.216621,261.668488 106.364372,252.288544 
z"/>
<path fill="#74C1F5" opacity="1.000000" stroke="none" 
	d="
M77.716156,370.065033 
	C76.856468,369.000336 76.443748,367.901459 75.980576,366.456207 
	C75.930122,358.308594 75.930122,350.507385 75.930122,342.279907 
	C85.669785,342.279907 94.886673,342.279907 104.500015,342.279907 
	C104.500015,351.236542 104.500015,360.284515 104.500015,370.030884 
	C95.685410,370.030884 86.924271,370.030884 77.716156,370.065033 
z"/>
<path fill="#5265AA" opacity="1.000000" stroke="none" 
	d="
M131.541229,400.068237 
	C123.271919,400.068237 115.002602,400.068237 106.407097,400.068237 
	C106.407097,390.610443 106.407097,381.716461 106.407097,372.354126 
	C115.707001,372.354126 125.018501,372.354126 134.993027,372.354126 
	C134.993027,378.117462 134.993027,383.720428 135.001907,390.157379 
	C133.854263,394.016998 132.697739,397.042603 131.541229,400.068237 
z"/>
<path fill="#02B12D" opacity="1.000000" stroke="none" 
	d="
M150.616608,352.291504 
	C156.791687,368.263306 162.777130,384.307068 168.941727,400.673248 
	C169.433777,402.137115 169.746689,403.278595 170.042801,404.779236 
	C165.323990,405.149017 160.622009,405.159637 155.456924,405.248932 
	C152.266815,405.270844 149.539795,405.214081 146.355865,405.241821 
	C145.476471,405.241302 145.054001,405.156250 144.315643,404.570984 
	C144.377289,400.130249 144.673203,396.179840 145.147308,392.250946 
	C146.725906,379.169739 148.368439,366.096252 149.986481,353.019806 
	C150.031082,352.732391 150.177902,352.513611 150.616608,352.291504 
z"/>
<path fill="#73C2F4" opacity="1.000000" stroke="none" 
	d="
M76.145309,396.435547 
	C79.300552,396.011230 82.438515,396.011230 86.715401,396.011230 
	C83.645378,387.692474 80.874313,380.183838 78.080109,372.299683 
	C86.796066,371.924225 95.535156,371.924225 104.579781,371.924225 
	C104.579781,381.393341 104.579781,390.403687 104.579781,399.983521 
	C95.647575,399.983521 86.915871,400.055939 78.190842,399.848297 
	C77.479927,399.831390 76.814552,397.901123 76.145309,396.435547 
z"/>
<path fill="#039421" opacity="1.000000" stroke="none" 
	d="
M149.688446,353.206726 
	C148.368439,366.096252 146.725906,379.169739 145.147308,392.250946 
	C144.673203,396.179840 144.377289,400.130249 143.998856,404.497559 
	C139.604477,404.924347 135.211014,404.924347 130.356232,404.924347 
	C130.703491,403.464874 131.015350,402.154144 131.434204,400.455841 
	C132.697739,397.042603 133.854263,394.016998 135.036957,390.643127 
	C139.838882,377.994446 144.614639,365.694061 149.688446,353.206726 
z"/>
<path fill="#75C2F4" opacity="1.000000" stroke="none" 
	d="
M122.431793,204.994156 
	C121.958870,200.869736 121.958870,196.754028 121.958870,192.068634 
	C130.588898,192.068634 138.872437,191.961517 147.144684,192.218323 
	C148.070099,192.247055 149.527405,194.256561 149.701309,195.493286 
	C150.091766,198.269958 149.830139,201.138306 149.801239,204.415619 
	C140.813889,204.908890 131.859299,204.955872 122.431793,204.994156 
z"/>
<path fill="#74C2F6" opacity="1.000000" stroke="none" 
	d="
M92.327881,205.017365 
	C91.844864,200.928238 91.844864,196.830017 91.844864,192.388077 
	C100.890358,192.388077 109.730080,192.388077 119.345657,192.388077 
	C119.345657,196.339111 119.345657,200.222610 119.249008,204.566437 
	C110.371872,205.020584 101.591393,205.014404 92.327881,205.017365 
z"/>
<path fill="#A99A80" opacity="1.000000" stroke="none" 
	d="
M76.124550,280.178894 
	C85.421768,279.818146 94.678734,279.866455 104.386978,279.843994 
	C104.864418,280.319305 104.890587,280.865356 104.876312,281.820374 
	C95.578941,282.181030 86.321999,282.132629 76.614059,282.156372 
	C76.136803,281.681641 76.110550,281.134796 76.124550,280.178894 
z"/>
<path fill="#A99A80" opacity="1.000000" stroke="none" 
	d="
M106.122475,340.182281 
	C115.419586,339.820984 124.677765,339.868195 134.387192,339.844604 
	C134.865677,340.318542 134.892914,340.863220 134.880096,341.815979 
	C125.581802,342.177704 116.323578,342.131378 106.614349,342.156921 
	C106.136742,341.682831 106.110138,341.136810 106.122475,340.182281 
z"/>
<path fill="#A99A80" opacity="1.000000" stroke="none" 
	d="
M134.881577,311.816559 
	C125.581482,312.177399 116.322586,312.131012 106.612427,312.155396 
	C106.133354,311.681122 106.105537,311.136047 106.119125,310.182739 
	C115.419624,309.822235 124.678734,309.869965 134.389175,309.846741 
	C134.867935,310.320282 134.895355,310.864807 134.881577,311.816559 
z"/>
<path fill="#72C3F7" opacity="1.000000" stroke="none" 
	d="
M170.492432,369.939941 
	C169.983963,340.947723 169.923569,311.961517 169.880676,282.975311 
	C169.865891,272.979584 169.894684,262.983795 169.969528,252.528412 
	C173.153442,252.068787 176.271393,252.068787 179.557373,252.068787 
	C179.557373,291.412506 179.557373,330.282959 179.557373,369.945953 
	C176.773407,369.945953 173.860397,369.945953 170.492432,369.939941 
z"/>
<path fill="#5567AA" opacity="1.000000" stroke="none" 
	d="
M161.068970,72.107849 
	C167.500336,72.107948 173.441132,72.107948 179.676636,72.107948 
	C179.676636,81.861061 179.676636,91.068054 179.676636,100.875389 
	C171.029495,100.875389 162.597809,100.997673 154.179642,100.716110 
	C153.160843,100.682030 151.414444,98.498215 151.367416,97.259041 
	C151.096481,90.120087 151.297272,82.964775 151.204956,75.816727 
	C151.168686,73.008430 152.335526,71.889771 155.093521,72.085510 
	C156.913177,72.214661 158.749542,72.108536 161.068970,72.107849 
z"/>
<path fill="#5567A9" opacity="1.000000" stroke="none" 
	d="
M151.229294,167.291595 
	C150.891495,163.619080 151.818497,161.923889 155.560684,162.033859 
	C163.480362,162.266602 171.411636,162.104782 179.657242,162.104782 
	C179.657242,171.790512 179.657242,180.971664 179.657242,190.723236 
	C170.866791,190.723236 162.282730,190.839447 153.712692,190.546265 
	C152.841034,190.516449 151.396027,188.051712 151.339844,186.671204 
	C151.083572,180.375504 151.228424,174.063446 151.229294,167.291595 
z"/>
<path fill="#5567A9" opacity="1.000000" stroke="none" 
	d="
M147.619019,102.134018 
	C148.681747,103.150856 149.792404,104.137520 149.809555,105.142845 
	C149.950943,113.431351 149.889481,121.723320 149.889481,130.826492 
	C140.903656,130.826492 132.186722,130.894760 123.475319,130.706818 
	C122.715446,130.690414 121.371185,129.003204 121.349525,128.067734 
	C121.172752,120.433411 121.090302,112.786530 121.421143,105.162643 
	C121.467659,104.090767 123.875557,102.298958 125.246338,102.244370 
	C132.541138,101.953850 139.853729,102.110573 147.619019,102.134018 
z"/>
<path fill="#76C2F3" opacity="1.000000" stroke="none" 
	d="
M159.089401,102.137344 
	C166.190186,102.137444 172.801483,102.137444 179.684296,102.137444 
	C179.684296,111.793991 179.684296,120.891571 179.684296,130.428223 
	C170.678833,130.428223 161.645126,130.428223 152.189575,130.428223 
	C152.189575,121.231316 152.189575,112.033554 152.189575,102.137238 
	C154.386475,102.137238 156.493195,102.137238 159.089401,102.137344 
z"/>
<path fill="#76C2F3" opacity="1.000000" stroke="none" 
	d="
M181.775299,127.767220 
	C181.769196,119.152710 181.769196,111.015892 181.769196,102.511383 
	C191.259750,102.511383 200.307175,102.511383 209.660980,102.511383 
	C209.660980,111.875671 209.660980,121.090355 209.660980,130.830948 
	C200.955261,130.830948 192.507217,130.898499 184.064438,130.718399 
	C183.286194,130.701782 182.541626,129.106934 181.775299,127.767220 
z"/>
<path fill="#75C2F3" opacity="1.000000" stroke="none" 
	d="
M209.963806,81.052292 
	C209.963669,87.696465 209.963669,93.847649 209.963669,100.430367 
	C200.679291,100.430367 191.646362,100.430367 182.188354,100.430367 
	C182.188354,91.228355 182.188354,82.032494 182.188354,72.484299 
	C191.198959,72.484299 200.122269,72.484299 209.963943,72.484299 
	C209.963943,75.091011 209.963943,77.825150 209.963806,81.052292 
z"/>
<path fill="#76C2F2" opacity="1.000000" stroke="none" 
	d="
M106.982979,70.865768 
	C101.570641,70.605186 94.767555,72.169250 92.257874,69.576866 
	C89.690453,66.924850 91.270416,60.199936 91.150009,55.255070 
	C91.053879,51.307373 91.130600,47.355465 91.130600,43.102798 
	C100.913223,43.102798 110.105919,43.102798 119.835526,43.102798 
	C119.835526,51.704369 119.939285,59.982605 119.687386,68.250000 
	C119.659859,69.153290 117.659424,70.593857 116.444687,70.744934 
	C113.496017,71.111679 110.471085,70.865257 106.982979,70.865768 
z"/>
<path fill="#76C2F2" opacity="1.000000" stroke="none" 
	d="
M145.664642,72.135239 
	C148.483322,71.966682 149.920502,72.653198 149.886734,75.414948 
	C149.795197,82.903450 149.967331,90.397614 149.717285,97.878906 
	C149.683105,98.901329 147.862885,100.691612 146.828552,100.721825 
	C138.718216,100.958817 130.597870,100.853172 122.129501,100.853172 
	C122.129501,91.143921 122.129501,81.948135 122.129501,72.134300 
	C129.978165,72.134300 137.588379,72.134300 145.664642,72.135239 
z"/>
<path fill="#76C2F2" opacity="1.000000" stroke="none" 
	d="
M119.865692,178.979645 
	C119.865540,182.775620 119.865540,186.076645 119.865540,189.799484 
	C110.256897,189.799484 101.064980,189.799484 91.186394,189.799484 
	C91.186394,181.358994 91.101837,172.932907 91.321220,164.514709 
	C91.342438,163.700485 93.229607,162.280151 94.279900,162.252472 
	C101.759636,162.055252 109.252129,162.012314 116.726234,162.296768 
	C117.809280,162.337967 119.611397,164.321198 119.714577,165.523056 
	C120.083176,169.816284 119.863144,174.160034 119.865692,178.979645 
z"/>
<path fill="#76C2F2" opacity="1.000000" stroke="none" 
	d="
M97.113693,160.233658 
	C95.012650,160.234207 93.395523,160.234207 91.156075,160.234207 
	C91.156075,151.401566 91.069031,143.131866 91.277512,134.869614 
	C91.300888,133.943390 92.977379,132.302185 93.923401,132.275528 
	C101.570068,132.060074 109.228966,132.039581 116.873802,132.283310 
	C117.896080,132.315903 119.690163,134.134903 119.720383,135.167801 
	C119.957596,143.274704 119.851913,151.391647 119.851913,160.233109 
	C112.108192,160.233109 104.852890,160.233109 97.113693,160.233658 
z"/>
<path fill="#73C2F7" opacity="1.000000" stroke="none" 
	d="
M209.902847,312.175079 
	C209.914642,321.086517 209.926437,329.997925 209.463425,339.432831 
	C199.989517,339.981262 190.990402,340.006256 181.991302,340.031219 
	C181.874207,330.858734 181.757111,321.686249 182.285553,312.252319 
	C191.921661,312.052277 200.912262,312.113678 209.902847,312.175079 
z"/>
<path fill="#73C2F7" opacity="1.000000" stroke="none" 
	d="
M181.990936,280.032562 
	C181.990936,270.986816 181.990936,261.941040 181.990936,252.470154 
	C190.793533,252.470154 199.967911,252.470154 209.939423,252.470154 
	C209.939423,261.169434 209.939423,270.040039 209.464264,279.434021 
	C199.989731,279.982452 190.990326,280.007507 181.990936,280.032562 
z"/>
<path fill="#74C2F5" opacity="1.000000" stroke="none" 
	d="
M209.906174,342.167969 
	C209.906174,351.149109 209.906174,360.130249 209.906174,369.535156 
	C200.698227,369.535156 191.658081,369.535156 181.822037,369.535156 
	C181.822037,360.698395 181.822037,351.794983 182.371887,342.437317 
	C191.916534,342.044708 200.911362,342.106323 209.906174,342.167969 
z"/>
<path fill="#74C2F5" opacity="1.000000" stroke="none" 
	d="
M209.905579,282.169250 
	C209.918976,291.084991 209.932388,300.000763 209.468903,309.440613 
	C199.989395,309.987823 190.986801,310.010986 181.984207,310.034149 
	C181.930649,300.987030 181.877075,291.939911 182.372833,282.438110 
	C191.916626,282.045349 200.911102,282.107300 209.905579,282.169250 
z"/>
<path fill="#76C1F2" opacity="1.000000" stroke="none" 
	d="
M194.010178,42.767654 
	C199.445724,42.767426 204.384872,42.767426 209.642975,42.767426 
	C209.642975,52.294300 209.642975,61.308311 209.642975,70.595123 
	C200.490860,70.595123 191.600296,70.595123 181.826935,70.595123 
	C181.826935,61.995972 181.746918,53.461452 181.966919,44.934673 
	C181.986145,44.189442 183.922272,42.999401 185.061646,42.875256 
	C187.849823,42.571449 190.692841,42.770943 194.010178,42.767654 
z"/>
<path fill="#76C1F2" opacity="1.000000" stroke="none" 
	d="
M154.188599,42.809978 
	C162.917526,42.780411 171.164032,42.780411 179.683289,42.780411 
	C179.683289,52.277222 179.683289,61.176361 179.683289,70.473381 
	C170.632416,70.473381 161.614532,70.473381 151.944550,70.473381 
	C151.944550,61.715973 151.915894,53.006645 152.019760,44.298904 
	C152.025635,43.805820 153.118958,43.325699 154.188599,42.809978 
z"/>
<path fill="#76C1F3" opacity="1.000000" stroke="none" 
	d="
M202.927185,250.233978 
	C196.778366,250.232681 191.113144,250.394852 185.471237,250.104187 
	C184.203384,250.038864 181.987381,248.426331 181.954742,247.466690 
	C181.673599,239.201050 181.793137,230.921814 181.793137,222.347351 
	C191.239029,222.347351 200.165634,222.347351 209.529800,222.347351 
	C209.529800,231.276657 209.529800,240.312759 209.529800,250.233765 
	C207.555878,250.233765 205.487549,250.233765 202.927185,250.233978 
z"/>
<path fill="#76C1F2" opacity="1.000000" stroke="none" 
	d="
M151.770355,139.086121 
	C151.770065,136.653931 151.770065,134.710144 151.770065,132.451447 
	C161.251968,132.451447 170.152222,132.451447 179.511826,132.451447 
	C179.511826,141.366577 179.511826,150.371262 179.511826,160.174713 
	C171.073181,160.174713 162.527908,160.269104 153.992996,160.014984 
	C153.219299,159.991959 151.926712,157.750519 151.875092,156.498077 
	C151.642944,150.865036 151.771896,145.217087 151.770355,139.086121 
z"/>
<path fill="#76C1F2" opacity="1.000000" stroke="none" 
	d="
M194.010056,160.233612 
	C181.769669,160.231888 181.769669,160.231888 181.769669,148.608490 
	C181.769669,143.337662 181.769669,138.066818 181.769669,132.468353 
	C191.335190,132.468353 200.355911,132.468353 209.672974,132.468353 
	C209.672974,141.559067 209.672974,150.444901 209.672974,160.233383 
	C204.613022,160.233383 199.559769,160.233383 194.010056,160.233612 
z"/>
<path fill="#76C1F2" opacity="1.000000" stroke="none" 
	d="
M185.155350,190.226028 
	C183.713226,189.379227 181.948212,188.557770 181.926178,187.691986 
	C181.715881,179.422516 181.800568,171.145554 181.800568,162.505798 
	C191.241653,162.505798 200.267578,162.505798 209.632645,162.505798 
	C209.632645,171.612579 209.632645,180.625412 209.632645,190.230804 
	C201.477386,190.230804 193.559265,190.230804 185.155350,190.226028 
z"/>
<path fill="#74C2F5" opacity="1.000000" stroke="none" 
	d="
M200.952332,399.956635 
	C194.506851,399.956604 188.555191,399.956604 182.191864,399.956604 
	C182.191864,390.587524 182.191864,381.594543 182.191864,372.259583 
	C191.348495,372.259583 200.367874,372.259583 209.674042,372.259583 
	C209.674042,381.373077 209.674042,390.270569 209.674042,399.956665 
	C206.936798,399.956665 204.191467,399.956665 200.952332,399.956635 
z"/>
<path fill="#77C1F1" opacity="1.000000" stroke="none" 
	d="
M122.541626,132.623932 
	C130.715530,132.270844 138.521393,132.074844 146.317734,132.266190 
	C147.519760,132.295685 149.664703,134.070541 149.700317,135.096329 
	C149.981567,143.196335 149.856628,151.310425 149.856628,160.163498 
	C140.874771,160.163498 132.315094,160.229065 123.761147,160.038422 
	C123.080391,160.023254 121.871933,158.237076 121.868790,157.270798 
	C121.842354,149.150238 122.040154,141.028961 122.541626,132.623932 
z"/>
<path fill="#77C1F1" opacity="1.000000" stroke="none" 
	d="
M149.870438,170.124084 
	C149.870453,176.887054 149.870453,183.164902 149.870453,190.195007 
	C141.020813,190.195007 132.625732,190.278580 124.238152,190.066406 
	C123.394516,190.045059 121.909119,188.249527 121.885315,187.249680 
	C121.692131,179.136261 121.776794,171.016235 121.776794,162.175323 
	C130.569748,162.175323 139.005493,161.756058 147.370972,162.341278 
	C151.980942,162.663773 148.996567,167.165939 149.870438,170.124084 
z"/>
<path fill="#77C1F1" opacity="1.000000" stroke="none" 
	d="
M149.374634,43.543816 
	C149.726532,51.716961 149.920624,59.522587 149.728439,67.318680 
	C149.698822,68.519852 147.928009,70.663223 146.904480,70.698708 
	C138.804733,70.979477 130.690948,70.854889 121.835457,70.854889 
	C121.835457,61.874863 121.769882,53.315750 121.960541,44.762348 
	C121.975723,44.081604 123.762062,42.873142 124.728371,42.870052 
	C132.848618,42.844082 140.969574,43.042377 149.374634,43.543816 
z"/>
<path fill="#76C2F3" opacity="1.000000" stroke="none" 
	d="
M112.940750,130.411133 
	C106.784920,130.410233 101.119995,130.333603 95.458496,130.439957 
	C92.743980,130.490952 91.518143,129.534424 91.563087,126.690216 
	C91.670975,119.862427 91.676071,113.030411 91.559914,106.202873 
	C91.509682,103.250153 92.940872,102.527870 95.559204,102.564796 
	C102.054306,102.656395 108.557426,102.760048 115.045692,102.530197 
	C118.741188,102.399277 119.559525,104.045670 119.456581,107.316437 
	C119.278496,112.974350 119.114998,118.661865 119.498489,124.299339 
	C119.822205,129.058243 118.339005,131.227768 112.940750,130.411133 
z"/>
<path fill="#75C2F3" opacity="1.000000" stroke="none" 
	d="
M92.324265,73.316345 
	C100.489342,72.848427 108.306633,72.596764 116.115532,72.756180 
	C117.229210,72.778908 119.199272,74.755623 119.247375,75.892555 
	C119.542908,82.876503 119.569000,89.886917 119.243233,96.867920 
	C119.185974,98.094803 117.087563,100.182655 115.855423,100.240288 
	C108.874413,100.566849 101.863991,100.542694 94.880028,100.248154 
	C93.747734,100.200401 91.779701,98.221352 91.757149,97.103546 
	C91.599579,89.295029 91.852394,81.478218 92.324265,73.316345 
z"/>
<path fill="#74C2F5" opacity="1.000000" stroke="none" 
	d="
M170.407257,220.235748 
	C169.943085,215.439621 169.943085,210.643921 169.943085,204.996979 
	C164.017761,204.996979 158.460632,204.996979 152.430344,204.990662 
	C151.957199,200.871231 151.957199,196.758148 151.957199,192.346375 
	C161.246689,192.346375 170.176682,192.346375 179.534515,192.346375 
	C179.534515,201.302979 179.534515,210.342697 179.534515,220.236191 
	C176.701263,220.236191 173.786346,220.236191 170.407257,220.235748 
z"/>
<path fill="#72C3F7" opacity="1.000000" stroke="none" 
	d="
M170.488876,399.939697 
	C169.986404,390.916260 169.939255,381.899445 169.940262,372.410492 
	C173.110153,371.938354 176.231888,371.938354 179.649628,371.938354 
	C179.649628,381.324951 179.649628,390.238251 179.649628,399.946320 
	C176.771805,399.946320 173.858002,399.946320 170.488876,399.939697 
z"/>
<path fill="#74C2F6" opacity="1.000000" stroke="none" 
	d="
M170.410126,250.226715 
	C169.929779,241.144333 169.913330,232.064484 169.966309,222.525177 
	C173.137100,222.065689 176.238464,222.065689 179.646057,222.065689 
	C179.646057,231.467224 179.646057,240.456177 179.646057,250.229263 
	C176.668121,250.229263 173.771072,250.229263 170.410126,250.226715 
z"/>
<path fill="#B9AE8E" opacity="1.000000" stroke="none" 
	d="
M181.988892,310.357330 
	C190.986801,310.010986 199.989395,309.987823 209.449066,309.898254 
	C209.919724,310.352509 209.933304,310.873230 209.924866,311.784485 
	C200.912262,312.113678 191.921661,312.052277 182.461807,311.982056 
	C181.992874,311.542358 181.993225,311.111420 181.988892,310.357330 
z"/>
<path fill="#B9AE8E" opacity="1.000000" stroke="none" 
	d="
M209.926437,281.778748 
	C200.911102,282.107300 191.916626,282.045349 182.452057,281.972198 
	C181.985840,281.532379 181.989700,281.103790 181.992249,280.353882 
	C190.990326,280.007507 199.989731,279.982452 209.446014,279.891296 
	C209.917694,280.346191 209.932495,280.867249 209.926437,281.778748 
z"/>
<path fill="#B9AE8E" opacity="1.000000" stroke="none" 
	d="
M209.926834,341.777466 
	C200.911362,342.106323 191.916534,342.044708 182.451599,341.971375 
	C181.985519,341.531097 181.989563,341.102478 181.992462,340.352539 
	C190.990402,340.006256 199.989517,339.981262 209.445435,339.890015 
	C209.917343,340.344818 209.932419,340.865906 209.926834,341.777466 
z"/>
<path fill="#B9AE8E" opacity="1.000000" stroke="none" 
	d="
M197.974670,401.985168 
	C192.686371,401.985138 187.890945,401.985138 183.095535,401.985138 
	C183.097000,401.752747 183.098480,401.520355 183.099960,401.287964 
	C191.630539,401.287964 200.161118,401.287964 208.691696,401.287964 
	C208.706818,401.520355 208.721954,401.752777 208.737091,401.985168 
	C205.313904,401.985168 201.890732,401.985168 197.974670,401.985168 
z"/>
</svg>