<svg id="Layer_1" data-name="Layer 1" xmlns="http://www.w3.org/2000/svg" xmlns:xlink="http://www.w3.org/1999/xlink" viewBox="0 0 463.59 312"><defs><style>.cls-1{opacity:0.33;isolation:isolate;fill:url(#linear-gradient);}.cls-2{fill:#06baeb;}.cls-3{fill:#467dfa;}.cls-4{fill:#fe9658;}.cls-5{fill:url(#linear-gradient-2);}.cls-6{fill:#000f4e;}.cls-7{fill:#85b5ff;}.cls-8{fill:url(#linear-gradient-3);}.cls-9{fill:#faa;}.cls-10{fill:#f49373;}.cls-11{fill:#0a3c5f;}.cls-12{fill:url(#linear-gradient-4);}.cls-13{fill:url(#linear-gradient-5);}.cls-14{fill:url(#linear-gradient-6);}.cls-15{fill:url(#linear-gradient-7);}.cls-16{fill:url(#linear-gradient-8);}.cls-17{fill:#df4223;}.cls-18{fill:url(#linear-gradient-9);}.cls-19{fill:url(#linear-gradient-10);}.cls-20{fill:#004e97;}.cls-21{fill:url(#linear-gradient-11);}.cls-22{fill:url(#linear-gradient-12);}.cls-23{fill:#522808;}.cls-24{fill:#004275;}.cls-25{fill:#fdd247;}.cls-26{fill:#f7a60f;}.cls-27{fill:url(#linear-gradient-13);}.cls-28{fill:#0071bc;}.cls-29{fill:url(#linear-gradient-14);}.cls-30{fill:url(#linear-gradient-15);}.cls-31{fill:url(#linear-gradient-16);}.cls-32{fill:#f48a69;}.cls-33{fill:#d43c1e;}.cls-34{fill:#fff;}.cls-35{fill:#f45e32;}.cls-36{fill:#fed20f;}.cls-37{fill:#b2ebf3;}.cls-38{fill:url(#linear-gradient-17);}.cls-39{fill:#d3edee;}.cls-40{fill:url(#linear-gradient-18);}.cls-41{fill:url(#linear-gradient-19);}.cls-42{fill:url(#linear-gradient-20);}.cls-43{fill:url(#linear-gradient-21);}</style><linearGradient id="linear-gradient" x1="-725.49" y1="315.37" x2="-724.49" y2="315.37" gradientTransform="matrix(339.08, 195.77, 195.77, -339.08, 184457.77, 249056.91)" gradientUnits="userSpaceOnUse"><stop offset="0" stop-color="#e54600"/><stop offset="0.03" stop-color="#e64b04" stop-opacity="0.93"/><stop offset="0.13" stop-color="#ec5b14" stop-opacity="0.72"/><stop offset="0.23" stop-color="#f16a21" stop-opacity="0.52"/><stop offset="0.33" stop-color="#f5772d" stop-opacity="0.37"/><stop offset="0.44" stop-color="#f88136" stop-opacity="0.23"/><stop offset="0.56" stop-color="#fb893d" stop-opacity="0.13"/><stop offset="0.68" stop-color="#fd8e42" stop-opacity="0.05"/><stop offset="0.82" stop-color="#fe9146" stop-opacity="0.01"/><stop offset="0.99" stop-color="#ff9347" stop-opacity="0"/></linearGradient><linearGradient id="linear-gradient-2" x1="-689.35" y1="314.28" x2="-688.35" y2="314.28" gradientTransform="matrix(19.31, 0, 0, -8.97, 13357.49, 2912.61)" gradientUnits="userSpaceOnUse"><stop offset="0" stop-color="#1fd0f0"/><stop offset="1" stop-color="#06baeb"/></linearGradient><linearGradient id="linear-gradient-3" x1="-614.64" y1="314.19" x2="-613.64" y2="314.19" gradientTransform="matrix(6.47, 0, 0, -6.47, 4391.89, 2253.38)" xlink:href="#linear-gradient-2"/><linearGradient id="linear-gradient-4" x1="-700.47" y1="314.48" x2="-699.47" y2="314.48" gradientTransform="matrix(27.4, 0, 0, -97.8, 19543.16, 30995.77)" gradientUnits="userSpaceOnUse"><stop offset="0" stop-color="#6277d7"/><stop offset="1" stop-color="#3a4aa6"/></linearGradient><linearGradient id="linear-gradient-5" x1="-646.02" y1="314.28" x2="-645.02" y2="314.28" gradientTransform="matrix(8.98, 0, 0, -8.98, 6178.92, 3067.47)" xlink:href="#linear-gradient-4"/><linearGradient id="linear-gradient-6" x1="-684.43" y1="314.45" x2="-683.43" y2="314.45" gradientTransform="matrix(17.08, 0, 0, -42.62, 12067.02, 13666.73)" xlink:href="#linear-gradient-4"/><linearGradient id="linear-gradient-7" x1="-699.29" y1="314.47" x2="-698.29" y2="314.47" gradientTransform="matrix(26.24, 0, 0, -61.15, 18714.1, 19450.13)" xlink:href="#linear-gradient-4"/><linearGradient id="linear-gradient-8" x1="-716.76" y1="314.48" x2="-715.76" y2="314.48" gradientTransform="matrix(70.97, 0, 0, -111.62, 51220.8, 35255.39)" gradientUnits="userSpaceOnUse"><stop offset="0" stop-color="#fe9658"/><stop offset="1" stop-color="#f76e48"/></linearGradient><linearGradient id="linear-gradient-9" x1="-709.32" y1="314.48" x2="-708.32" y2="314.48" gradientTransform="matrix(41.12, 0, 0, -82.49, 29265.45, 26166.76)" xlink:href="#linear-gradient-8"/><linearGradient id="linear-gradient-10" x1="-697.11" y1="314.48" x2="-696.11" y2="314.48" gradientTransform="matrix(24.33, 0, 0, -98.89, 17062.22, 31337.07)" xlink:href="#linear-gradient-8"/><linearGradient id="linear-gradient-11" x1="-697.17" y1="314.44" x2="-696.17" y2="314.44" gradientTransform="matrix(24.37, 0, 0, -35.75, 17111.16, 11364.57)" xlink:href="#linear-gradient-2"/><linearGradient id="linear-gradient-12" x1="-706.96" y1="314.47" x2="-705.96" y2="314.47" gradientTransform="matrix(36.28, 0, 0, -71.82, 25748.28, 22751.27)" xlink:href="#linear-gradient-2"/><linearGradient id="linear-gradient-13" x1="-680.61" y1="314.44" x2="-679.61" y2="314.44" gradientTransform="matrix(15.67, 0, 0, -34.45, 10794.94, 10926.7)" xlink:href="#linear-gradient-2"/><linearGradient id="linear-gradient-14" x1="-704.19" y1="314.43" x2="-703.19" y2="314.43" gradientTransform="matrix(31.87, 0, 0, -29.83, 22525.08, 9509.24)" xlink:href="#linear-gradient-2"/><linearGradient id="linear-gradient-15" x1="-663.56" y1="314.44" x2="-662.56" y2="314.44" gradientTransform="matrix(11.46, 0, 0, -35.3, 7687.63, 11206.49)" xlink:href="#linear-gradient-2"/><linearGradient id="linear-gradient-16" x1="-704.49" y1="314.48" x2="-703.49" y2="314.48" gradientTransform="matrix(32.3, 0, 0, -97.09, 22784.96, 30717.35)" xlink:href="#linear-gradient-2"/><linearGradient id="linear-gradient-17" x1="-702.37" y1="314.44" x2="-701.37" y2="314.44" gradientTransform="matrix(29.51, 0, 0, -33.14, 21031.55, 10641.71)" xlink:href="#linear-gradient-8"/><linearGradient id="linear-gradient-18" x1="-708.84" y1="289.56" x2="-707.84" y2="289.56" gradientTransform="matrix(13.93, -19.01, -19.01, -13.93, 15575.39, -9238.76)" xlink:href="#linear-gradient-4"/><linearGradient id="linear-gradient-19" x1="-699" y1="314.48" x2="-698" y2="314.48" gradientTransform="matrix(25.96, 0, 0, -91.03, 18342.26, 28868.62)" xlink:href="#linear-gradient-4"/><linearGradient id="linear-gradient-20" x1="-696.66" y1="308.83" x2="-695.66" y2="308.83" gradientTransform="matrix(23.16, -4.26, -4.26, -23.16, 17636.92, 4381.8)" xlink:href="#linear-gradient-4"/><linearGradient id="linear-gradient-21" x1="-698.61" y1="314.48" x2="-697.61" y2="314.48" gradientTransform="matrix(25.61, 0, 0, -90.94, 18070.45, 28840.4)" xlink:href="#linear-gradient-4"/></defs><title>Artboard 1</title><g id="Group_48110" data-name="Group 48110"><g id="Mask_Group_31" data-name="Mask Group 31"><path id="Path_38261" data-name="Path 38261" class="cls-1" d="M269.41,361C175.93,307,143.78,187,197.75,93.55S371.69-32.08,465.18,21.89s125.63,173.94,71.65,267.43S362.89,415,269.41,361ZM433.08,77.48C370.25,41.2,289.62,62.81,253.34,125.64S238.67,269.11,301.5,305.39,445,320.06,481.25,257.22,495.92,113.76,433.08,77.48Z"/></g><g id="Group_48109" data-name="Group 48109"><path id="Path_38543" data-name="Path 38543" class="cls-2" d="M250.81,109.53c.22-.44.57-.44.78,0l.88,1.78a1.88,1.88,0,0,0,1.27.92l2,.29c.48.07.59.4.24.74l-1.42,1.39a1.89,1.89,0,0,0-.49,1.49l.34,2c.08.48-.2.68-.64.46l-1.76-.93a1.93,1.93,0,0,0-1.56,0l-1.76.93c-.43.22-.72,0-.63-.46l.33-2a1.88,1.88,0,0,0-.48-1.49l-1.43-1.39c-.34-.34-.24-.67.25-.74l2-.29a1.88,1.88,0,0,0,1.26-.92Z"/><path id="Path_38544" data-name="Path 38544" class="cls-2" d="M335,174.66c.21-.41.54-.41.75,0l.84,1.7a1.75,1.75,0,0,0,1.2.88l1.88.27c.46.07.57.39.23.71l-1.36,1.33a1.8,1.8,0,0,0-.46,1.42l.32,1.87c.08.45-.19.65-.6.44l-1.68-.89a1.84,1.84,0,0,0-1.49,0l-1.68.89c-.41.21-.68,0-.6-.44l.32-1.87a1.8,1.8,0,0,0-.46-1.42l-1.36-1.33c-.33-.32-.23-.64.23-.71l1.88-.27a1.78,1.78,0,0,0,1.21-.88Z"/><g id="Group_47932" data-name="Group 47932"><path id="Path_38545" data-name="Path 38545" class="cls-3" d="M327.92,83.72a2.14,2.14,0,0,1-1.51-3.64h0a5.74,5.74,0,0,1,3.88-1.7c.7-.07.92-.09,1.3-.47s.4-.6.48-1.3A5.82,5.82,0,0,1,337.67,71c.7-.07.92-.09,1.3-.48a2.13,2.13,0,0,1,3,0h0a2.13,2.13,0,0,1,0,3h0a5.75,5.75,0,0,1-3.89,1.7c-.7.07-.92.09-1.3.47s-.4.6-.47,1.3a5.82,5.82,0,0,1-5.59,5.59c-.7.07-.92.09-1.3.47A2.13,2.13,0,0,1,327.92,83.72Z"/></g><g id="Group_47933" data-name="Group 47933"><path id="Path_38546" data-name="Path 38546" class="cls-4" d="M84.42,50.66A2.13,2.13,0,0,1,82.91,50a5.74,5.74,0,0,1-1.7-3.88c-.07-.7-.09-.92-.47-1.3s-.6-.4-1.3-.48a5.82,5.82,0,0,1-5.59-5.59c-.07-.7-.09-.92-.47-1.3a2.12,2.12,0,0,1,0-3h0a2.13,2.13,0,0,1,3,0,5.75,5.75,0,0,1,1.7,3.89c.07.7.09.92.48,1.3s.6.4,1.3.47a5.82,5.82,0,0,1,5.58,5.59c.07.7.1.91.48,1.3a2.13,2.13,0,0,1,0,3h0A2.13,2.13,0,0,1,84.42,50.66Z"/></g><g id="Group_47934" data-name="Group 47934"><path id="Path_38547" data-name="Path 38547" class="cls-5" d="M66.8,96.45a2.18,2.18,0,0,1-1.59.36,5.74,5.74,0,0,1-3.64-2.19c-.46-.53-.6-.69-1.13-.78s-.72,0-1.34.37a5.83,5.83,0,0,1-7.8-1.33c-.46-.53-.6-.7-1.14-.78a2.13,2.13,0,0,1-1.74-2.46h0a2.12,2.12,0,0,1,2.45-1.74,5.73,5.73,0,0,1,3.64,2.18c.47.54.61.7,1.15.79s.72,0,1.33-.37a5.83,5.83,0,0,1,7.79,1.32c.47.54.6.7,1.14.79a2.14,2.14,0,0,1,.88,3.84Z"/></g><g id="Group_47936" data-name="Group 47936"><g id="Group_47935" data-name="Group 47935"><rect id="Rectangle_19189" data-name="Rectangle 19189" class="cls-6" x="170.79" y="115.8" width="4.79" height="1.04" transform="translate(-31.52 156.53) rotate(-45)"/><rect id="Rectangle_19190" data-name="Rectangle 19190" class="cls-6" x="172.67" y="113.92" width="1.04" height="4.79" transform="translate(-31.52 156.53) rotate(-45)"/></g></g><g id="Group_47938" data-name="Group 47938"><g id="Group_47937" data-name="Group 47937"><path id="Path_38548" data-name="Path 38548" class="cls-7" d="M159.82,180.81a.85.85,0,0,1-.85.84h0a.85.85,0,0,1-.85-.84h0A.85.85,0,0,1,159,180h0a.85.85,0,0,1,.85.85Z"/><path id="Path_38549" data-name="Path 38549" class="cls-7" d="M164,180.81a.85.85,0,0,1-1.7,0h0a.85.85,0,0,1,.85-.85h0a.85.85,0,0,1,.85.85Z"/><path id="Path_38550" data-name="Path 38550" class="cls-7" d="M167.91,180.81a.85.85,0,0,1-.85.84h0a.84.84,0,0,1-.85-.84h0a.85.85,0,0,1,.85-.85h0a.85.85,0,0,1,.85.85Z"/><path id="Path_38551" data-name="Path 38551" class="cls-7" d="M171.6,180.81a.85.85,0,0,1-.85.84h0a.84.84,0,0,1-.84-.84h0a.85.85,0,0,1,.84-.85h0a.85.85,0,0,1,.85.85Z"/><path id="Path_38552" data-name="Path 38552" class="cls-7" d="M159.82,177.11a.85.85,0,0,1-.85.85h0a.85.85,0,0,1-.85-.85h0a.85.85,0,0,1,.85-.85h0a.85.85,0,0,1,.85.85Z"/><path id="Path_38553" data-name="Path 38553" class="cls-7" d="M164,177.11a.85.85,0,0,1-1.7,0h0a.85.85,0,0,1,.85-.85h0a.85.85,0,0,1,.85.85Z"/><path id="Path_38554" data-name="Path 38554" class="cls-7" d="M167.91,177.11a.85.85,0,0,1-.85.85h0a.85.85,0,0,1-.85-.85h0a.85.85,0,0,1,.85-.85h0A.85.85,0,0,1,167.91,177.11Z"/><path id="Path_38555" data-name="Path 38555" class="cls-7" d="M171.6,177.11a.85.85,0,0,1-.85.85h0a.85.85,0,0,1-.84-.85h0a.85.85,0,0,1,.84-.85h0a.85.85,0,0,1,.85.85Z"/><path id="Path_38556" data-name="Path 38556" class="cls-7" d="M159.82,185a.85.85,0,0,1-.85.84h0a.85.85,0,0,1-.85-.84h0a.85.85,0,0,1,.85-.85h0a.85.85,0,0,1,.85.85Z"/><path id="Path_38557" data-name="Path 38557" class="cls-7" d="M164,185a.85.85,0,0,1-.85.84h0a.85.85,0,0,1-.85-.84h0a.85.85,0,0,1,.85-.85h0A.85.85,0,0,1,164,185Z"/><path id="Path_38558" data-name="Path 38558" class="cls-7" d="M167.91,185a.85.85,0,0,1-.85.84h0a.84.84,0,0,1-.85-.84h0a.85.85,0,0,1,.85-.85h0a.85.85,0,0,1,.85.85Z"/><path id="Path_38559" data-name="Path 38559" class="cls-7" d="M171.6,185a.85.85,0,0,1-.84.84h0a.84.84,0,0,1-.84-.84h0a.85.85,0,0,1,.84-.85h0a.85.85,0,0,1,.85.85Z"/></g></g><g id="Group_47940" data-name="Group 47940"><g id="Group_47939" data-name="Group 47939"><path id="Path_38560" data-name="Path 38560" class="cls-7" d="M428.51,193.6,410,183.49l.22-.41L428.39,193,444,172.82l.37.28Z"/></g><circle id="Ellipse_2381" data-name="Ellipse 2381" class="cls-7" cx="410.12" cy="183.29" r="2"/><circle id="Ellipse_2382" data-name="Ellipse 2382" class="cls-7" cx="428.45" cy="193.3" r="2"/><circle id="Ellipse_2383" data-name="Ellipse 2383" class="cls-7" cx="444.16" cy="172.96" r="2"/></g><rect id="Rectangle_19191" data-name="Rectangle 19191" class="cls-8" x="415.2" y="217.33" width="6.47" height="6.47"/><g id="Group_47956" data-name="Group 47956"><g id="Group_47945" data-name="Group 47945"><path id="Path_38561" data-name="Path 38561" class="cls-9" d="M358.12,92.6s.2-.72.41-1.55c-.86-.24-1.73-.46-2.57-.78l-2.36-.47a7.6,7.6,0,0,0-.16,3.7,6.53,6.53,0,0,1,0,2.53.85.85,0,0,0,.57.9l.06,0a.84.84,0,0,0,1-.55h0a2.68,2.68,0,0,1,1.43-1.74,3.08,3.08,0,0,0,1.59-2.06Z"/><path id="Path_38562" data-name="Path 38562" class="cls-9" d="M358.65,89.29c-.4-.3-.58.23-.83.11s-.11-1.07-.56-1.2-.71.69-1,.58-.25-.7-.62-.75-.47.7-.75.69-.35-.57-.66-.55-.79.86-.87,1.78,0,1.65.37,1.74.45-.67.68-.63.06,1.07.54,1.06.61-.8.94-.75-.19.95.42,1.08c.45.09.51-.84.76-.72s0,.77.33.9.76-.54,1.11-1.3S358.9,89.47,358.65,89.29Z"/><path id="Path_38563" data-name="Path 38563" class="cls-9" d="M356.88,90.08c.43-.54,2.52,1.13,2.24,2.07a4.18,4.18,0,0,1-2.3,2.37c-.68,0-1.42-.52-1.15-1.27a1.93,1.93,0,0,1,1.63-1.13c.44,0,.53-.63-.1-1C356.86,90.92,356.56,90.47,356.88,90.08Z"/><g id="Group_47944" data-name="Group 47944"><g id="Group_47941" data-name="Group 47941"><path id="Path_38564" data-name="Path 38564" class="cls-10" d="M356.33,92.57a0,0,0,0,1-.05,0c-.46-.1-.43-.52-.41-.8a.87.87,0,0,0,0-.28c-.1,0-.18.12-.28.26s-.33.48-.64.49h0c-.37,0-.44-.43-.48-.74a1.16,1.16,0,0,0-.08-.32l-.12.21c-.11.2-.26.49-.55.42-.5-.12-.52-1.08-.46-1.86a.11.11,0,0,1,.11-.11h0a.12.12,0,0,1,.11.13h0c-.08.93,0,1.55.28,1.61.1,0,.19-.1.3-.3s.2-.36.38-.32.21.25.25.5.09.54.26.54h0c.2,0,.33-.2.46-.38s.26-.4.5-.37.23.3.21.53,0,.51.22.56a.12.12,0,0,1,0,.23Z"/></g><g id="Group_47942" data-name="Group 47942"><path id="Path_38565" data-name="Path 38565" class="cls-10" d="M356.72,92.35l-.19-.13a1.82,1.82,0,0,0,.15-.27c.09-.19.21-.42.41-.33s.17.26.18.47l-.23,0a.76.76,0,0,0-.05-.3,1.6,1.6,0,0,1-.1.22A2.14,2.14,0,0,1,356.72,92.35Z"/></g><g id="Group_47943" data-name="Group 47943"><path id="Path_38566" data-name="Path 38566" class="cls-10" d="M355.89,93a.11.11,0,0,1-.07,0,.11.11,0,0,1,0-.16,2.12,2.12,0,0,1,1.47-.79h.05a.19.19,0,0,0,.21-.15c.05-.16,0-.43-.38-.63a1,1,0,0,1-.51-.67.65.65,0,0,1,.15-.55.42.42,0,0,1,.38-.14A3.12,3.12,0,0,1,359,91.22a.11.11,0,0,1,0,.16h0a.11.11,0,0,1-.16,0,2.91,2.91,0,0,0-1.66-1.26c-.13,0-.17,0-.18.06a.43.43,0,0,0-.1.36.82.82,0,0,0,.4.51.81.81,0,0,1,.48.9.42.42,0,0,1-.45.32,1.79,1.79,0,0,0-1.31.7A.18.18,0,0,1,355.89,93Z"/></g></g></g><g id="Group_47950" data-name="Group 47950"><path id="Path_38567" data-name="Path 38567" class="cls-9" d="M415.81,110s-.07-.74-.14-1.59c.89-.09,1.78-.15,2.67-.32l2.41,0a7.68,7.68,0,0,1-.49,3.67,6.41,6.41,0,0,0-.43,2.49.83.83,0,0,1-.72.79h-.06a.83.83,0,0,1-.93-.72v0a2.72,2.72,0,0,0-1.11-2,3.06,3.06,0,0,1-1.2-2.31Z"/><path id="Path_38568" data-name="Path 38568" class="cls-9" d="M415.86,106.64c.45-.22.53.33.8.26s.29-1,.76-1.09.58.81.9.75.37-.64.74-.63.35.77.62.81.44-.49.75-.42.63,1,.54,1.91-.29,1.62-.67,1.64-.32-.73-.56-.73-.25,1-.72.94-.46-.89-.79-.9,0,1-.6,1c-.46,0-.36-.91-.62-.84s-.14.76-.48.82-.66-.66-.87-1.47S415.58,106.77,415.86,106.64Z"/><path id="Path_38569" data-name="Path 38569" class="cls-9" d="M417.46,107.72c-.33-.6-2.68.67-2.57,1.65a4.19,4.19,0,0,0,1.85,2.74c.65.17,1.49-.27,1.35-1a1.91,1.91,0,0,0-1.4-1.4c-.44-.06-.41-.71.27-1C417.33,108.55,417.71,108.17,417.46,107.72Z"/><g id="Group_47949" data-name="Group 47949"><g id="Group_47946" data-name="Group 47946"><path id="Path_38570" data-name="Path 38570" class="cls-10" d="M417.63,110.28a.17.17,0,0,1-.1,0,.11.11,0,0,1-.06-.15h0a.11.11,0,0,1,.15-.06h0c.24,0,.28-.2.31-.52s.05-.48.29-.48h0c.23,0,.33.23.43.44s.19.42.38.46.25-.18.36-.49.15-.45.34-.45h0c.18,0,.25.2.31.39s.12.34.23.34h0c.25,0,.47-.6.55-1.53a.11.11,0,0,1,.13-.1.11.11,0,0,1,.1.12c-.07.78-.27,1.72-.78,1.75h0c-.29,0-.38-.29-.45-.51a.67.67,0,0,0-.1-.23c0,.1-.08.2-.11.3-.1.3-.25.73-.63.65s-.44-.36-.54-.59-.14-.3-.23-.31a.67.67,0,0,0-.06.27C418.14,109.84,418.09,110.27,417.63,110.28Z"/></g><g id="Group_47947" data-name="Group 47947"><path id="Path_38571" data-name="Path 38571" class="cls-10" d="M417.22,110a3.19,3.19,0,0,1-.11-.33,1.17,1.17,0,0,0-.09-.24s0,.17-.07.26v0l-.22-.06v0c0-.2.1-.38.26-.42s.29.2.35.4a1.66,1.66,0,0,0,.1.29Z"/></g><g id="Group_47948" data-name="Group 47948"><path id="Path_38572" data-name="Path 38572" class="cls-10" d="M418,110.76a.14.14,0,0,1-.1-.07,1.88,1.88,0,0,0-1.17-.91.45.45,0,0,1-.4-.39.83.83,0,0,1,.64-.8.85.85,0,0,0,.48-.43.42.42,0,0,0,0-.38s0-.08-.17-.09a2.93,2.93,0,0,0-1.85.94.1.1,0,0,1-.16,0h0a.11.11,0,0,1,0-.16h0a3.07,3.07,0,0,1,2.05-1,.42.42,0,0,1,.35.21.67.67,0,0,1,.05.57,1,1,0,0,1-.62.56c-.36.14-.51.39-.49.56a.21.21,0,0,0,.2.19,2.06,2.06,0,0,1,1.34,1,.11.11,0,0,1-.05.15Z"/></g></g></g><g id="Group_47951" data-name="Group 47951"><path id="Path_38573" data-name="Path 38573" class="cls-11" d="M356.72,292.19l-12.69,0v-.24a1,1,0,0,1,.85-1,9.24,9.24,0,0,0,7.07-4.43l.19-.34a2.39,2.39,0,0,1,4.34,1c0,.13,0,.26,0,.39C356.62,289.13,356.75,291.17,356.72,292.19Z"/><path id="Path_38574" data-name="Path 38574" class="cls-11" d="M356.51,287.51v0a2.39,2.39,0,0,1-4.78,0h0a2.28,2.28,0,0,1,.22-1c.07-.11.13-.23.2-.35a2.36,2.36,0,0,1,2-1,2.39,2.39,0,0,1,2.36,2A2,2,0,0,1,356.51,287.51Z"/></g><path id="Path_38575" data-name="Path 38575" class="cls-12" d="M369.38,189.71a11.85,11.85,0,0,0-13.69,9.69h0c0,.15,0,.31-.06.46h0c0,.16,0,.32,0,.48s0,.26,0,.38c-1.38,15.33-2,27.63-2.52,44.63l.37.2-.37,0c-.55,9.94-1.27,25.26-1.16,40.24a23,23,0,0,0,5.22,1.53c3-17.79,10.08-30.55,6.75-40.23,7.2-12.63,15.1-35.45,15.24-43.71a11.85,11.85,0,0,0-9.69-13.69Z"/><g id="Group_47952" data-name="Group 47952"><path id="Path_38576" data-name="Path 38576" class="cls-11" d="M397,292.39h-9v-.25a1.15,1.15,0,0,1,.85-1c2-.82,2.37-2,3.43-4.44a3.72,3.72,0,0,1,.19-.34,2.41,2.41,0,0,1,2-1,2.37,2.37,0,0,1,2.35,2q0,.18,0,.39C396.93,289.33,397.06,291.37,397,292.39Z"/><path id="Path_38577" data-name="Path 38577" class="cls-11" d="M396.81,287.7v0a2.39,2.39,0,0,1-4.78,0h0a2.29,2.29,0,0,1,.23-1l.19-.35a2.41,2.41,0,0,1,2-1,2.38,2.38,0,0,1,2.35,2A2.19,2.19,0,0,1,396.81,287.7Z"/></g><g id="Group_47953" data-name="Group 47953"><path id="Path_38578" data-name="Path 38578" class="cls-13" d="M388.19,245a4.49,4.49,0,1,1-5.65-2.9,4.49,4.49,0,0,1,5.65,2.9Z"/><path id="Path_38579" data-name="Path 38579" class="cls-14" d="M391.3,286.23a12.88,12.88,0,0,0,5.42.34c-3-19.08.31-34.73-7.79-42.47l-9.29,3.6C382.27,257.3,386.45,272.05,391.3,286.23Z"/></g><path id="Path_38580" data-name="Path 38580" class="cls-15" d="M388.83,199.17a11.86,11.86,0,0,0-14-9.28h0a11.87,11.87,0,0,0-9.29,14h0l.12.45h0c0,.16.08.3.13.46s.06.25.1.37c4.24,14.8,8,26.5,13.73,42.54h0a1.17,1.17,0,0,0,.06.2,4.49,4.49,0,0,0,5.77,2.64h0a4.48,4.48,0,0,0,2.17-1.72l2,.29C392.66,235.58,391.94,207.63,388.83,199.17Z"/><path id="Path_38581" data-name="Path 38581" class="cls-16" d="M419.81,113.66h-.05l-2.15-.33h-.05l-.3,0c-3.13,9.53-6.5,18.24-8,25.51-5.43,0-6.83-2-16.78-1a13.62,13.62,0,0,0-5-4.17h0a12,12,0,0,0-9.68-.31c-9.44-6.37-14.5-6.46-20.6-10,.47-7.53-.72-17.11-1.46-27.49l-.3,0h0l-2.17-.22h-.05l-.24,0a225.64,225.64,0,0,0-3.78,28.83,4,4,0,0,0,1.45,4.1c8,6.9,14.32,10.7,18.81,12.8-.13.27-.27.54-.4.82-9.48,22.13-13,40.15-15,61.5,10.43,5.28,21.41,4.38,36.12-.57-1-18.68-.76-33.19,4.5-51.64a16.51,16.51,0,0,0,.5-2.5c3.63.08,9.18-.43,18.12-2.44a3.87,3.87,0,0,0,3.27-3.48,222.88,222.88,0,0,0,3.47-29.26Z"/><g id="Group_47954" data-name="Group 47954"><path id="Path_38582" data-name="Path 38582" class="cls-9" d="M388.14,134.84c-.46-1.72.14-4.49.72-6.5a2.36,2.36,0,0,0-1.52-3l0,0h0a2.36,2.36,0,0,0-2.81,1.79v.06c-.48,2-1.3,4.75-2.53,6C381.51,135.06,387.62,136.64,388.14,134.84Z"/></g><g id="Group_47955" data-name="Group 47955"><path id="Path_38583" data-name="Path 38583" class="cls-9" d="M382.27,113.53c-1.61,3.84-4.9,13.5-.48,15.9,3,1.64,9.82-2.46,11.2-5.48s5.23-7.18-1.88-11.23C385.39,109.46,383.15,111.43,382.27,113.53Z"/><path id="Path_38584" data-name="Path 38584" class="cls-17" d="M390.13,129.71s-2.09-1.76-.85-3.15,2.76-1.24,3.76-3a1.5,1.5,0,0,0-.2-2.1,1.54,1.54,0,0,0-1.24-.31,2.94,2.94,0,0,0-2,1.81s-1-1,.51-2.45,2.62-2,2.24-4.23-5.38-5.09-8.1-4.45a2.57,2.57,0,0,0-1.7,1.09,9.93,9.93,0,0,1,5.57-6.35c3.46-1.42,5.33-1,6.2,0s.5,4.17-.29,5.23c0,0,3.33-1.21,4,1.53a2.87,2.87,0,0,1-1.55,3.6,2,2,0,0,1,1.87,1.78c.14,1.63-.85,2.89-2.61,4.25a31.29,31.29,0,0,0-4.67,4.16A3.35,3.35,0,0,0,390.13,129.71Z"/></g></g><g id="Group_47973" data-name="Group 47973"><g id="Group_47957" data-name="Group 47957"><path id="Path_38585" data-name="Path 38585" class="cls-11" d="M97.91,264.89l3.44,12.54.24-.07a1,1,0,0,0,.77-1.11,9.49,9.49,0,0,1,2.47-8.19l.29-.28a2.49,2.49,0,0,0,.49-2.24,2.46,2.46,0,0,0-2.65-1.78l-.39.08C101,264.16,98.91,264.58,97.91,264.89Z"/><path id="Path_38586" data-name="Path 38586" class="cls-11" d="M102.6,263.83h0a2.45,2.45,0,0,0,1.32,4.72h0a2.38,2.38,0,0,0,.93-.49l.29-.28a2.49,2.49,0,0,0,.49-2.24,2.46,2.46,0,0,0-2.65-1.78Z"/></g><path id="Path_38587" data-name="Path 38587" class="cls-18" d="M141.34,243.56l.17-.2.11-.15.15-.21a1.4,1.4,0,0,0,.1-.16l.12-.21.1-.2a.93.93,0,0,0,.09-.2c0-.07.06-.15.08-.22l.06-.18c0-.09.05-.17.07-.25a1.16,1.16,0,0,0,0-.18c0-.09,0-.17,0-.26s0-.13,0-.19,0-.16,0-.24v-.44c0-.09,0-.18,0-.28a.41.41,0,0,0,0-.11.43.43,0,0,0,0,0l0-.17h0c-2.59-17.24-4.78-29.67-8.07-45.1,0-.13,0-.26-.08-.39l-.1-.48h0c0-.15-.06-.31-.11-.46a12.14,12.14,0,0,0-15.13-8.17h0a12.15,12.15,0,0,0-8.17,15.12h0c1,7.44,9.69,25.24,17.83,37.43-8.17,4.64-15.43,15.83-27.2,26.11a13.11,13.11,0,0,0,4.48,3.3c13.14-8,26.13-16.82,34.5-22.65l.1-.07.23-.16.16-.13.17-.15.18-.17Z"/><g id="Group_47958" data-name="Group 47958"><path id="Path_38588" data-name="Path 38588" class="cls-11" d="M111.29,292.37l12.6,0v-.24a1,1,0,0,0-.84-1,9.2,9.2,0,0,1-7-4.42l-.19-.35a2.38,2.38,0,0,0-4.31,1c0,.12,0,.25,0,.39C111.39,289.33,111.26,291.35,111.29,292.37Z"/><path id="Path_38589" data-name="Path 38589" class="cls-11" d="M111.51,287.71v0a2.38,2.38,0,0,0,4.75,0h0a2.28,2.28,0,0,0-.22-1l-.19-.34a2.37,2.37,0,0,0-4.31,1A2.19,2.19,0,0,0,111.51,287.71Z"/></g><path id="Path_38590" data-name="Path 38590" class="cls-19" d="M128.51,200v-.89h0c0-.16,0-.32,0-.48a12.16,12.16,0,0,0-24.25,1.85c-.63,8.21,4.93,31.19,10.88,44.93-5.27,8.69-2.15,22.93-4.19,40.73a23.59,23.59,0,0,0,5.57,0c4.35-14.73,8-30,10.25-40a4.58,4.58,0,0,0,.15-1.56C128,227.79,128.46,215.39,128.51,200Z"/><g id="Group_47959" data-name="Group 47959"><path id="Path_38591" data-name="Path 38591" class="cls-20" d="M128.83,137.89a4.83,4.83,0,0,0-8.34-4.86h0a4.82,4.82,0,0,0,1.73,6.6h0A4.82,4.82,0,0,0,128.83,137.89Z"/><path id="Path_38592" data-name="Path 38592" class="cls-20" d="M143.34,110.71a4,4,0,0,0-1.46-5.52h0a4,4,0,0,0-5.52,1.45h0a4,4,0,0,0,7,4.07Z"/><path id="Path_38593" data-name="Path 38593" class="cls-21" d="M128.53,138.46c-1.87,1.8-4,2.51-6.31,1.17-2.73-1.6-3-4.3-2-6.77,6.39-15.4,12-16.94,16.12-26.52.76-1.78,3.36-2.43,5.93-.93a4.08,4.08,0,0,1,1.48,4.93C137.44,129.6,130.34,136.73,128.53,138.46Z"/></g><g id="Group_47960" data-name="Group 47960"><path id="Path_38594" data-name="Path 38594" class="cls-22" d="M113,130.9h0a15.21,15.21,0,0,0-7.87,16.83c3.64,17.22,2.54,32.56-3.59,48C116,201.33,126,204,137.34,199.31c.52-24.55,2.27-31.62-6.56-56.34C127.29,133.58,119.41,127.38,113,130.9Z"/></g><g id="Group_47963" data-name="Group 47963"><g id="Group_47961" data-name="Group 47961"><path id="Path_38595" data-name="Path 38595" class="cls-9" d="M111.81,132.46c.75-1.62.64-4.48.42-6.57a2.38,2.38,0,0,1,2-2.68h.06a2.37,2.37,0,0,1,2.47,2.27v0c.12,2.1.46,4.94,1.46,6.43C118.34,133.83,112,134.34,111.81,132.46Z"/></g><g id="Group_47962" data-name="Group 47962"><path id="Path_38596" data-name="Path 38596" class="cls-23" d="M112.22,108a8.75,8.75,0,0,1,3.67,4.25L110,109.63Z"/><path id="Path_38597" data-name="Path 38597" class="cls-9" d="M115.05,110.61c2.63,3.25,8.55,11.66,5,15.22-2.47,2.44-10.19.4-12.37-2.13s-7.09-5.45-1.36-11.37C110.88,107.56,113.6,108.83,115.05,110.61Z"/><path id="Path_38598" data-name="Path 38598" class="cls-24" d="M100,111.61a21.47,21.47,0,0,1,6.32-8.09,12.23,12.23,0,0,0-1.36,3,16.19,16.19,0,0,1,9.56-4.4,20.46,20.46,0,0,1-2.21,4,5.42,5.42,0,0,0,2.69-1.5,15.08,15.08,0,0,1-3.91,5.86c-2.76,2.39-6.16,4.73-4.49,7.29.58.89,1.57,1.22,2.86,1.89,1.87,1,1.19,2.23,1.19,2.23a2.94,2.94,0,0,0-2.45-1.18,1.5,1.5,0,0,0-.71,2.73c1.45,1.37,2.88.8,4.47,1.79s.06,3.28.06,3.28a3.36,3.36,0,0,0-1.66-2.21,62.07,62.07,0,0,0-5.55-3.17C101.7,121.48,97.59,116.93,100,111.61Z"/></g></g><path id="Path_38599" data-name="Path 38599" class="cls-10" d="M94,86c.59.11,1.39-1.17.53-4.3s-1-2.63-1.2-2.2S91.61,85.55,94,86Z"/><path id="Path_38600" data-name="Path 38600" class="cls-9" d="M95.15,81.45c.26.35,1.17.52.82-.65s-.82-2.81-2.9-1.86a3.46,3.46,0,0,0-2.2,3.81c.08,1.34.43,6.69,2,6.77s3.29-2.54,1.16-6c-1.18-1.91-.64-2.7-.21-2.7A3.67,3.67,0,0,1,95.15,81.45Z"/><g id="Group_47969" data-name="Group 47969"><path id="Path_38601" data-name="Path 38601" class="cls-9" d="M124.39,77.85l-1.19-1.27a28.6,28.6,0,0,0,2-2.07l2-1.67a8.44,8.44,0,0,1,2.06,3.46,7.21,7.21,0,0,0,1.31,2.42.89.89,0,0,1-.07,1.15l-.05,0a.89.89,0,0,1-1.27,0l0,0A2.93,2.93,0,0,0,127,79a3.36,3.36,0,0,1-2.58-1.16Z"/><g id="Group_47964" data-name="Group 47964"><path id="Path_38602" data-name="Path 38602" class="cls-25" d="M105.83,53.57l.08-.08a1.44,1.44,0,0,1,.37-.28,1.48,1.48,0,0,1,.9-.15,1.32,1.32,0,0,1,.44.13.82.82,0,0,1,.2.12l.1.07,0,0,.62.53c.82.71,1.64,1.44,2.44,2.18l.14.14.09.08.14.15a1.48,1.48,0,0,1,.19.35,1.23,1.23,0,0,1,.08.38,1.26,1.26,0,0,1-.2.73l-.06.08,0,0v0l-.08.07-.14.15c-.38.39-.77.77-1.18,1.14l-.53-.43c.29-.47.59-.93.89-1.38l.12-.17,0-.09h0v0s0,0,0,0a0,0,0,0,0,0,0h0l0,0,0,0-.17-.12c-.89-.63-1.76-1.28-2.62-2l-.49-.38a0,0,0,0,0-.07,0h0l-.18.24-.46.64c-.61.87-1.18,1.77-1.7,2.69-.27.46-.52.92-.75,1.4s-.46,1-.67,1.43-.39,1-.55,1.47a15.16,15.16,0,0,0-.43,1.5,10.42,10.42,0,0,0-.27,3,7.58,7.58,0,0,0,.25,1.5,7.37,7.37,0,0,0,.55,1.44l-.61.38c-.16-.23-.32-.48-.46-.73s-.13-.26-.2-.39-.12-.26-.17-.4a7.92,7.92,0,0,1-.28-.82c-.07-.28-.13-.56-.18-.85a10.45,10.45,0,0,1,0-3.44,15.49,15.49,0,0,1,.36-1.67c.15-.55.33-1.08.53-1.61s.42-1,.66-1.56.49-1,.75-1.5.55-1,.84-1.44.6-.94.92-1.41l.49-.68.25-.33.07-.09,0,0Z"/><path id="Path_38603" data-name="Path 38603" class="cls-25" d="M113.27,78.74l-.24.67a6,6,0,0,0,.8.3c.14.05.28.08.42.12h0l.41.09a8.62,8.62,0,0,0,.87.11c.29,0,.58,0,.87,0a10.74,10.74,0,0,0,3.36-.72,14.64,14.64,0,0,0,1.57-.69c.5-.26,1-.54,1.47-.84s.94-.62,1.39-1,.89-.68,1.32-1,.84-.74,1.25-1.12.8-.78,1.19-1.18l.57-.61.28-.32.06-.08,0,0,0,0,.07-.1a1.62,1.62,0,0,0,.2-.42,1.54,1.54,0,0,0,0-.9,1.41,1.41,0,0,0-.22-.4c0-.07-.1-.12-.15-.18l-.09-.07,0,0-.65-.5c-.86-.67-1.73-1.32-2.62-1.95l-.17-.12-.1-.07a1,1,0,0,0-.17-.1,1.29,1.29,0,0,0-.38-.12,1.28,1.28,0,0,0-.39,0,1.18,1.18,0,0,0-.67.35.23.23,0,0,0-.07.07l0,0v0l-.06.08-.11.17c-.15.22-.3.44-.44.66l-.45.72.53.44.61-.59.57-.56.14-.15.07-.07h.08a.05.05,0,0,1,0,0h0v0l0,0,.15.14c.8.74,1.61,1.47,2.44,2.17l.47.41a.06.06,0,0,1,0,.07h0l-.2.22-.54.59c-.73.76-1.49,1.5-2.29,2.2-.4.35-.8.69-1.21,1s-.84.64-1.27.94-.88.58-1.33.84-.91.5-1.38.72a11.17,11.17,0,0,1-2.76.85l-.18,0a7.71,7.71,0,0,1-1.52,0A7.11,7.11,0,0,1,113.27,78.74Z"/><path id="Path_38604" data-name="Path 38604" class="cls-26" d="M122.79,68.86l-.45.72.53.43.62-.58Z"/><path id="Path_38605" data-name="Path 38605" class="cls-26" d="M103.69,76.8q.25-.61.48-1.29l.72.59,2.89,2.36q-.61.35-1.17.72a10.62,10.62,0,0,0-4.38,6.08L99.34,82.9l-.72-.59A10.66,10.66,0,0,0,103.69,76.8Z"/><path id="Path_38606" data-name="Path 38606" class="cls-26" d="M113.27,78.74l-.24.67a6,6,0,0,0,.8.3c.14.05.28.08.42.12h0a9.45,9.45,0,0,0,2.23-.92l-.17,0a8.7,8.7,0,0,1-1.53,0A7.9,7.9,0,0,1,113.27,78.74Z"/><path id="Path_38607" data-name="Path 38607" class="cls-25" d="M102.79,70.17l-.61.38a6.89,6.89,0,0,1-.46-.73,2.75,2.75,0,0,1-.2-.38h0l-.16-.39a6.62,6.62,0,0,1-.28-.82,8.23,8.23,0,0,1-.19-.86,11,11,0,0,1,0-3.44,13.85,13.85,0,0,1,.37-1.67c.15-.54.33-1.08.52-1.61s.42-1,.66-1.55.49-1,.75-1.5.55-1,.85-1.45.6-.94.92-1.4l.48-.68.26-.34.06-.08,0,0,0,0,.07-.08a1.64,1.64,0,0,1,.37-.28,1.48,1.48,0,0,1,.9-.16,1.51,1.51,0,0,1,.44.14l.2.11.1.07,0,0,.62.53c.83.71,1.64,1.44,2.44,2.18l.15.14.08.08.14.15a1.14,1.14,0,0,1,.19.34,1.36,1.36,0,0,1,.08.39,1.26,1.26,0,0,1-.2.73l-.06.07,0,0,0,0h0l-.07.08-.15.14c-.18.19-.37.38-.56.56s-.4.4-.61.59l-.53-.43c.14-.25.3-.49.45-.72l.43-.66.12-.17,0-.09h0s0,0,0,0,0,0,0,0h0l0,0-.17-.12c-.89-.63-1.76-1.28-2.62-2l-.49-.38a0,0,0,0,0-.07,0h0l-.18.24c-.15.21-.31.42-.46.64-.61.87-1.18,1.77-1.7,2.69-.26.46-.52.92-.75,1.4s-.46.94-.66,1.43-.4,1-.56,1.46-.31,1-.43,1.5a10.75,10.75,0,0,0-.28,2.88,1.09,1.09,0,0,0,0,.18,7.58,7.58,0,0,0,.25,1.5A7.05,7.05,0,0,0,102.79,70.17Z"/><path id="Path_38608" data-name="Path 38608" class="cls-26" d="M110.56,58.88l-.61.58-.53-.43c.14-.24.3-.48.45-.72Z"/><path id="Path_38609" data-name="Path 38609" class="cls-26" d="M102.79,70.17l-.61.38a6,6,0,0,1-.46-.73,2.75,2.75,0,0,1-.2-.38h0a9.56,9.56,0,0,1,.46-2.37.91.91,0,0,0,0,.17,7.68,7.68,0,0,0,.25,1.51A7.08,7.08,0,0,0,102.79,70.17Z"/><path id="Path_38610" data-name="Path 38610" class="cls-25" d="M110.35,61l1,.84,11.71,9.56-4.11,5A9.7,9.7,0,0,1,111.21,80h-.07l-.46,0h-.09l-.54-.07-.14,0-.44-.08-.12,0-.53-.14-.11,0-.44-.14-.13,0-.52-.2-.07,0L107.1,79,107,78.9c-.17-.08-.34-.18-.5-.27a10.66,10.66,0,0,1-1.17-.82,9.72,9.72,0,0,1-1.38-13.68l4.11-5Z"/><rect id="Rectangle_19192" data-name="Rectangle 19192" class="cls-26" x="114.67" y="56.22" width="0.61" height="19.44" transform="translate(-8.82 113.31) rotate(-50.77)"/><path id="Path_38611" data-name="Path 38611" class="cls-25" d="M108.84,57.87l3.26,2.66,12,9.81a.41.41,0,0,1,.06.56l-1,1.22a.4.4,0,0,1-.56.06l-12-9.81-3.26-2.66a.41.41,0,0,1,0-.56l1-1.22A.39.39,0,0,1,108.84,57.87Z"/><path id="Path_38612" data-name="Path 38612" class="cls-11" d="M98,81.15l2,1.64.31.26,3.13,2.55a1.22,1.22,0,0,1,.17,1.72h0l-.85,1-5-4.1L97.47,84l-2-1.65.85-1A1.22,1.22,0,0,1,98,81.15Z"/><path id="Path_38613" data-name="Path 38613" class="cls-11" d="M94.25,80.88l3.24,2.65.33.27,6.67,5.45a.57.57,0,0,1,.09.81l-.46.56-7.57-6.18-.33-.27L93,81.52l.45-.55A.59.59,0,0,1,94.25,80.88Z"/><circle id="Ellipse_2384" data-name="Ellipse 2384" class="cls-26" cx="110.5" cy="71.43" r="4.59"/><path id="Path_38614" data-name="Path 38614" class="cls-25" d="M108.69,70a2.34,2.34,0,0,0,3.62,3h0a2.32,2.32,0,0,0-.33-3.28h0A2.34,2.34,0,0,0,108.69,70Z"/></g><path id="Path_38615" data-name="Path 38615" class="cls-9" d="M122.17,75c.24-.49.68-.07.86-.32s-.46-1.08-.09-1.43,1,.29,1.27,0-.12-.8.21-1,.82.42,1.07.27.05-.72.36-.86,1.2.41,1.75,1.26.85,1.57.53,1.85-.76-.41-1-.25.5,1,0,1.29-1-.45-1.28-.24.67.82.15,1.26-.92-.54-1.1-.3.4.74.15,1-1-.11-1.73-.66S122,75.26,122.17,75Z"/><path id="Path_38616" data-name="Path 38616" class="cls-9" d="M124.27,74.8c-.68-.28-1.83,2.39-1.08,3.14s2.75,1.38,3.42,1.09a1.11,1.11,0,0,0,.69-1.41,1.1,1.1,0,0,0-.24-.4,2.09,2.09,0,0,0-2.14-.24c-.41.25-.83-.33-.42-1C124.72,75.6,124.79,75,124.27,74.8Z"/><g id="Group_47968" data-name="Group 47968"><g id="Group_47965" data-name="Group 47965"><path id="Path_38617" data-name="Path 38617" class="cls-10" d="M126,76.93a.12.12,0,0,1-.12-.09.13.13,0,0,1,.09-.16c.2-.17.1-.36-.09-.65s-.28-.45-.07-.61.44,0,.67.09.44.23.63.13.1-.32,0-.65-.18-.49,0-.62.35,0,.53.12.34.22.43.13.1-.66-.56-1.68a.13.13,0,0,1,0-.18h0a.13.13,0,0,1,.17,0h0c.47.72.93,1.65.52,2-.25.22-.54,0-.74-.11s-.19-.14-.24-.13a1.59,1.59,0,0,0,.1.33c.12.33.28.78-.1,1a1,1,0,0,1-.87-.13c-.16-.09-.32-.17-.4-.11s.08.18.13.27c.17.26.42.65,0,1a.33.33,0,0,1-.1.06Z"/></g><g id="Group_47966" data-name="Group 47966"><path id="Path_38618" data-name="Path 38618" class="cls-10" d="M124.94,77c-.1-.23-.19-.43-.08-.57s.39,0,.57.11a1.67,1.67,0,0,0,.28.18l-.11.23a3.28,3.28,0,0,1-.31-.2.73.73,0,0,0-.25-.15l.12.28-.1.07Z"/></g><g id="Group_47967" data-name="Group 47967"><path id="Path_38619" data-name="Path 38619" class="cls-10" d="M124.72,77.16a.47.47,0,0,1-.33-.14.89.89,0,0,1,0-1.11.91.91,0,0,0,.12-.7.53.53,0,0,0-.29-.3.27.27,0,0,0-.21,0,3.2,3.2,0,0,0-.93,2.06.14.14,0,0,1-.14.12.12.12,0,0,1-.11-.14h0a3.33,3.33,0,0,1,1-2.25.49.49,0,0,1,.44-.06.76.76,0,0,1,.43.45,1.14,1.14,0,0,1-.15.9.68.68,0,0,0,0,.8.23.23,0,0,0,.29,0,2.25,2.25,0,0,1,1.85,0,.12.12,0,0,1,.06.16h0a.12.12,0,0,1-.16.07h0a2,2,0,0,0-1.61,0A.5.5,0,0,1,124.72,77.16Z"/></g></g></g><g id="Group_47970" data-name="Group 47970"><path id="Path_38620" data-name="Path 38620" class="cls-20" d="M143.87,108.28a4,4,0,1,0-8,.8h0a4,4,0,0,0,4.41,3.61h0a4,4,0,0,0,3.62-4.41Z"/><path id="Path_38621" data-name="Path 38621" class="cls-27" d="M131,78.39a225.5,225.5,0,0,1,12.74,29.23,4,4,0,0,1-2.74,4.93l-.09,0c-2.15.58-4,.35-5.1-2.32-3.28-7.71-5-18.82-7.59-30.75Z"/></g><g id="Group_47971" data-name="Group 47971"><path id="Path_38622" data-name="Path 38622" class="cls-28" d="M106.91,144.2a4.82,4.82,0,1,1,6.81-.4h0a4.82,4.82,0,0,1-6.81.4Z"/><path id="Path_38623" data-name="Path 38623" class="cls-28" d="M84.68,122.85a4,4,0,0,1-.33-5.69h0a4,4,0,0,1,5.7-.33h0a4,4,0,0,1,.33,5.7h0a4,4,0,0,1-5.7.33Z"/><path id="Path_38624" data-name="Path 38624" class="cls-29" d="M107.36,144.64c2.34,1.14,4.59,1.15,6.36-.84,2.11-2.36,1.56-5-.17-7.06C102.69,124.08,96.88,124.36,90,116.52c-1.28-1.45-4-1.27-5.93,1a4.09,4.09,0,0,0,.12,5.15C96.14,139,105.1,143.56,107.36,144.64Z"/></g><g id="Group_47972" data-name="Group 47972"><path id="Path_38625" data-name="Path 38625" class="cls-28" d="M83.34,120a4,4,0,0,1,3.86-4.2h0a4,4,0,0,1,4.2,3.87h0a4,4,0,0,1-3.86,4.2h0a4,4,0,0,1-4.2-3.86Z"/><path id="Path_38626" data-name="Path 38626" class="cls-30" d="M91.88,88.61a225.64,225.64,0,0,0-8.52,30.73,4,4,0,0,0,3.41,4.49h.09c2.2.27,4-.21,4.72-3,2.17-8.09,2.32-19.34,3.2-31.51Z"/></g></g><g id="Group_47975" data-name="Group 47975"><path id="Path_38627" data-name="Path 38627" class="cls-9" d="M51.41,230.7s-8.68,14.1-11.81,15.87c0,0-4.91,1.39-7-4.22,0,0,5.58-16.77,8.6-20.07Z"/><path id="Path_38628" data-name="Path 38628" class="cls-9" d="M58.54,232.58S56.41,249,54.29,251.9c0,0-3.9,3.29-8.13-1,0,0-1.8-17.58-.4-21.83Z"/><path id="Path_38629" data-name="Path 38629" class="cls-9" d="M67.66,144.83a18,18,0,0,0,3-3.37c1.13-1.79,2.36-6.38,1.92-6.46s-1.15,2.62-1.46,2.57.42-3.91,0-4.06S69.9,137,69.6,137s.17-4.36-.49-4.38-.55,3.94-1,4.05-.33-3.71-.92-3.67-.94,6-.85,7.43.68,2.72,0,3.6S67.66,144.83,67.66,144.83Z"/><path id="Path_38630" data-name="Path 38630" class="cls-9" d="M67,142.09c-.1-.1-1.67-3-2.87-3.5s2.06-.67,3.28,1.82S67,142.09,67,142.09Z"/><path id="Path_38631" data-name="Path 38631" class="cls-9" d="M76.34,142.62c-.13-.05-2.67-2.16-4-2.18s1.65-1.38,3.71.47S76.34,142.62,76.34,142.62Z"/><path id="Path_38632" data-name="Path 38632" class="cls-9" d="M77.46,145.12a18.4,18.4,0,0,0,2.25-3.89c.76-2,1.06-6.72.61-6.72s-.62,2.8-.93,2.82-.35-3.92-.82-4-.45,3.67-.76,3.69-.68-4.31-1.33-4.2.23,4-.21,4.18-1.06-3.58-1.63-3.42.26,6.09.63,7.45,1.2,2.53.72,3.53S77.46,145.12,77.46,145.12Z"/><path id="Path_38633" data-name="Path 38633" class="cls-9" d="M45.22,165s5.15,3.82,9.58-.12a56.9,56.9,0,0,0,14.28-21.44l-2.46-.77s-10.05,13.78-15,17.7a2.36,2.36,0,0,1-3,0,32.32,32.32,0,0,1-2.88-2.47Z"/><path id="Path_38634" data-name="Path 38634" class="cls-31" d="M57.21,187.51a195.4,195.4,0,0,1-5.45-30.27c4.83-3.67,2-10.45,2-10.45-6.57-1.8-11.52-7.7-15.16-9-2.14-.75-5.07-1.57-7.44,1-5.59,6,5.8,27.43,5.8,27.43,5.09,13.14-.45,21.2-.45,21.2h0c-9.73,7.2-5.12,17.63-2.31,22.28a25.19,25.19,0,0,1,3.31,8.75,21.15,21.15,0,0,1,.31,2.52c-.19,6.09-4,7.46-4,7.46,11.3,9.27,28.12,4.46,28.12,4.46C57,218,59.8,196.87,57.21,187.51Z"/><path id="Path_38635" data-name="Path 38635" class="cls-9" d="M76,143.15s-10.64,18.69-14.47,20c-1.43.49-5.38,5.92,1.36,5.39,0,0,7.44-.86,15.54-24.85Z"/><path id="Path_38636" data-name="Path 38636" class="cls-9" d="M59.94,168.3c-7.94-2.31-16.11-6.1-24-18-2.05-3.1-1.55-4.32-.53-5.25s4.48-.56,6.78,1.41,12.45,11.76,18.29,16.32c1,.75,3.82,1.06,3.49,3.42S63.33,169.29,59.94,168.3Z"/><path id="Path_38637" data-name="Path 38637" class="cls-9" d="M39.55,280.92a9.88,9.88,0,0,0,1.4-3.41c1.42-6.39,3.21-22.3,5.21-26.57l8.13,1-9.82,29.67a9.93,9.93,0,0,0,1.2,7.81c-.32,2.15-2.58,3.48-6.36-8.1C39.39,281.17,39.47,281,39.55,280.92Z"/><path id="Path_38638" data-name="Path 38638" class="cls-11" d="M36.7,286.32c.7.62,5,3.51,6.6,5,2,1.9,6.83.78,6.83.78l-.1-.28a1.67,1.67,0,0,0-1.51-1.14c-1.44-.07-1.88-.7-2.85-1.26-1.49.81-1.77,1.14-6.36-8.1C36.49,284.18,36.7,286.32,36.7,286.32Z"/><path id="Path_38639" data-name="Path 38639" class="cls-9" d="M11.4,231.56l.35.25A7.49,7.49,0,0,0,14.31,233c6.19,1.75,22.25,4.31,26.45,6.53l-.87,5.15a2.42,2.42,0,0,1-2.79,2,2.52,2.52,0,0,1-.47-.13l-25.39-9.81a10.14,10.14,0,0,0-8.18.83C.93,237.19-.31,234.89,11.4,231.56Z"/><path id="Path_38640" data-name="Path 38640" class="cls-11" d="M6.48,228.75c-.65.68-3.7,4.91-5.22,6.41-2,2-1,6.8-1,6.8l.29-.08A1.7,1.7,0,0,0,1.7,240.4c.13-1.43.77-1.84,1.37-2.8-.75-1.52-1.08-1.81,8.33-6C8.62,228.63,6.48,228.75,6.48,228.75Z"/><g id="Group_47974" data-name="Group 47974"><path id="Path_38641" data-name="Path 38641" class="cls-32" d="M31.28,138.45c.72-1.63.74-4.57.63-6.74a2.32,2.32,0,0,1,1.95-2.64h0a2.33,2.33,0,0,1,2.1,2.52c0,2.17.21,5.11,1,6.69C37,140.22,31.38,140.39,31.28,138.45Z"/></g><path id="Path_38642" data-name="Path 38642" class="cls-9" d="M39.23,115.81c3.86,5.53,2.14,13.5,2.14,13.5-2.07,9.74-10,.08-10.69-.87-1.88-2.52-2.78-7.75-.69-10.21C32.64,115.13,38.37,114.61,39.23,115.81Z"/><path id="Path_38643" data-name="Path 38643" class="cls-33" d="M41.4,122.2a20.55,20.55,0,0,0-2.26-6.34c.29,3.27-2.16,3.86-4.56,4.93-5.16,2.32-1.44,8-2,12.22-.28,1.9-1.39,3.55-2.1,5.32-.92,2.25-.4,3.83.22,6A47.56,47.56,0,0,1,32,152.8c.22,2.3.3,4.74-.72,6.82a7.17,7.17,0,0,1-5.39,3.81,4.1,4.1,0,0,1-3.55-1,4.58,4.58,0,0,1-.94-4c.24-1.41.82-2.74,1.1-4.14.53-2.71-.85-3.83-2.18-5.88-1.43-2.21-2.84-4.76-2.28-7.33.63-2.87,3.54-4.85,4-7.74.42-2.35-.85-4.63-1.32-7a11.94,11.94,0,0,1,4.92-11.7,14.69,14.69,0,0,1,10-2.49c1.12.11,2.8.11,3.74.79a7.35,7.35,0,0,1,2.28,4,7.55,7.55,0,0,1,.25,2.72A13.76,13.76,0,0,1,41.4,122.2Z"/></g><g id="Group_48008" data-name="Group 48008"><g id="Group_47984" data-name="Group 47984"><path id="Path_38644" data-name="Path 38644" class="cls-9" d="M242,183.36h0l0,0c.5-.65-1.21-2.25-2.3-3.17a2.08,2.08,0,0,0-.42-1.2h0a2.51,2.51,0,0,0-1.14-.9c-1.54-.65-3.39,1.24-3.86,1.75a4.55,4.55,0,0,1-2.48.73,3.08,3.08,0,0,0-.28,1.4s.55.58,1.34,1.3c-.11.29.21.79.54.6l.08,0,.07.06h0c-.63.16-.2,1.16.37.94a.79.79,0,0,0,.41-.33l.19.15h-.07c-.5.13-.2,1.05.4.78a.67.67,0,0,0,.33-.29l.16.1c-.31.21-.05.73.46.65a.4.4,0,0,0,.28-.19c.65.35,1.2.5,1.54.27.12-.08.12-.5.34-.47s.78.59,1.14.24-.13-.54.13-.8,1,.86,1.52.09c.27-.45-.51-.65-.3-.86s1.58.6,1.84-.15a.47.47,0,0,0-.2-.64Zm-4.48-3.4a.52.52,0,0,1,0-.11.31.31,0,0,1,.18-.33c.23-.12.44,0,.65.17l-.81.27Z"/><g id="Group_47980" data-name="Group 47980"><g id="Group_47976" data-name="Group 47976"><path id="Path_38645" data-name="Path 38645" class="cls-10" d="M233.42,183.94a.13.13,0,0,1-.07-.23.44.44,0,0,0,.21-.46c0-.1-.22-.13-.48-.06a.18.18,0,0,0-.13.12.12.12,0,0,1-.15.09h0a.12.12,0,0,1-.09-.15h0a.38.38,0,0,1,.31-.3c.53-.14.71.06.77.2a.67.67,0,0,1-.29.77A.11.11,0,0,1,233.42,183.94Z"/></g><g id="Group_47977" data-name="Group 47977"><path id="Path_38646" data-name="Path 38646" class="cls-10" d="M235.11,185.28l-.06,0a.13.13,0,0,1-.05-.17.23.23,0,0,0,0-.25c-.08-.12-.3-.15-.56-.08a.13.13,0,0,1-.15-.1.12.12,0,0,1,.09-.15.79.79,0,0,1,.83.17.49.49,0,0,1,0,.53A.14.14,0,0,1,235.11,185.28Z"/></g><g id="Group_47978" data-name="Group 47978"><path id="Path_38647" data-name="Path 38647" class="cls-10" d="M236,185.84l-.07,0a.12.12,0,0,1,0-.18.26.26,0,0,0,0-.29c-.06-.1-.24-.13-.49-.06a.27.27,0,0,0-.11.05.12.12,0,0,1-.17,0h0a.13.13,0,0,1,0-.18.72.72,0,0,1,.2-.09c.49-.12.69.06.77.17a.53.53,0,0,1-.05.59A.15.15,0,0,1,236,185.84Z"/></g><g id="Group_47979" data-name="Group 47979"><path id="Path_38648" data-name="Path 38648" class="cls-10" d="M234.24,184.65a.11.11,0,0,1-.07,0,.12.12,0,0,1,0-.17h0a.32.32,0,0,0,.05-.38c-.09-.14-.34-.17-.67-.08a.15.15,0,0,1-.17-.09.12.12,0,0,1,.07-.15h0c.61-.16.85,0,.94.18a.6.6,0,0,1-.05.68A.16.16,0,0,1,234.24,184.65Z"/></g></g><path id="Path_38649" data-name="Path 38649" class="cls-9" d="M243.47,180.25a3.75,3.75,0,0,1-2.08-.41,10.14,10.14,0,0,0-2.13-.87h0a4.63,4.63,0,0,0-3.3.05c-.49.24-.68.32-.64.51s.46.49,1,.29a2.18,2.18,0,0,1,1.16,0c1.17.31,1.62,1.55,1.93,2.18l.09.08a18.62,18.62,0,0,0,2.48,1.26h0a8.68,8.68,0,0,0,2-2.13Z"/><g id="Group_47983" data-name="Group 47983"><g id="Group_47981" data-name="Group 47981"><path id="Path_38650" data-name="Path 38650" class="cls-10" d="M242.12,183.6a.15.15,0,0,1-.1,0l0,0h0l-.05-.07a6.94,6.94,0,0,0-.83-.39,6.07,6.07,0,0,1-1.65-.87l-.09-.08c-1.16-1-1.94-1.75-2-2.28a.15.15,0,0,1,.14-.17h0a.15.15,0,0,1,.17.13h0c0,.51,1.33,1.6,1.88,2.07l.09.08a5.68,5.68,0,0,0,1.56.82c.24.1.47.19.66.29v0l.24.16.12.09a.15.15,0,0,1,0,.22h0A.16.16,0,0,1,242.12,183.6Z"/></g><g id="Group_47982" data-name="Group 47982"><path id="Path_38651" data-name="Path 38651" class="cls-10" d="M239.21,181.69a.15.15,0,0,1-.14-.09,2.67,2.67,0,0,0-1.6-1.6,2,2,0,0,0-1.07,0,1.13,1.13,0,0,1-1,0,.57.57,0,0,1-.29-.37c0-.3.19-.41.68-.65l0,0a4.88,4.88,0,0,1,3.39-.07h0l.21.06a.16.16,0,0,1,.11.19h0a.16.16,0,0,1-.2.1h0l-.18-.05h0a4.52,4.52,0,0,0-3.18,0l-.05,0c-.3.15-.52.26-.5.32a.24.24,0,0,0,.13.15.83.83,0,0,0,.69,0,2.31,2.31,0,0,1,1.25,0,3,3,0,0,1,1.81,1.77.15.15,0,0,1-.07.21h0A.11.11,0,0,1,239.21,181.69Z"/></g></g></g><g id="Group_47985" data-name="Group 47985"><circle id="Ellipse_2385" data-name="Ellipse 2385" class="cls-24" cx="273.94" cy="169.26" r="4.28"/><path id="Path_38652" data-name="Path 38652" class="cls-24" d="M277.52,171.6l-.06.08a4.82,4.82,0,0,1-1.72,1.45l-.27.13c-2.49,1.07-12,5.63-32.12,9.52l-.09-.27,0,0-.76-2.32v0l-.11-.33c11.42-6,21.61-12.24,30.1-14.85,2.89-.88,4.32.37,5.3,2.44l.05.1,0,.05.12.3a.11.11,0,0,1,0,.08l.06.2a.27.27,0,0,1,0,.12A4,4,0,0,1,277.52,171.6Z"/></g><path id="Path_38653" data-name="Path 38653" class="cls-11" d="M270.53,292.39H254.78v-.3a1.27,1.27,0,0,1,1.05-1.25c7.28-1.53,8.93-5.8,9-5.95a3,3,0,0,1,2.45-1.29,3,3,0,0,1,2.93,2.52l0,.49C270.4,288.59,270.56,291.12,270.53,292.39Z"/><g id="Group_47986" data-name="Group 47986"><path id="Path_38654" data-name="Path 38654" class="cls-24" d="M271.42,240.05a4.93,4.93,0,0,1-9.83.83h0a4.93,4.93,0,0,1,4.5-5.33h0A4.94,4.94,0,0,1,271.42,240.05Z"/><path id="Path_38655" data-name="Path 38655" class="cls-24" d="M263.4,286.13c1.39.74,5,.58,7-.5,1.48-21.18,8.81-36,2.05-46.31l-10.83,1.56C262,251.82,261.71,269.75,263.4,286.13Z"/></g><g id="Group_47987" data-name="Group 47987"><path id="Path_38656" data-name="Path 38656" class="cls-24" d="M271.46,240.28a4.94,4.94,0,0,1-4.78,5.08h0a4.93,4.93,0,1,1,4.78-5.08Z"/><path id="Path_38657" data-name="Path 38657" class="cls-24" d="M262.36,189.77a4.26,4.26,0,0,0-.06.5.71.71,0,0,1,0,.14c0,.21,0,.41,0,.62a7.63,7.63,0,0,0,0,.83,13,13,0,1,0,14.67-13.38h0a13,13,0,0,0-14.57,11.26Z"/><path id="Path_38658" data-name="Path 38658" class="cls-24" d="M262.29,190.27v.14c0,.21,0,.41,0,.62s0,.54,0,.8c-.76,16.62-.9,30-.63,48.52h0l7.93,4,2,1c6.62-11,14.13-33.73,16.12-46.47a32.57,32.57,0,0,0,.52-5.83l-25.91-2.78Z"/></g><path id="Path_38659" data-name="Path 38659" class="cls-11" d="M306.51,292.39H295.18v-.28a1.26,1.26,0,0,1,1-1.17c4-1.21,5-5.39,5-5.53a2.76,2.76,0,0,1,5,1.15l0,.45C306.39,288.85,306.54,291.2,306.51,292.39Z"/><g id="Group_47988" data-name="Group 47988"><path id="Path_38660" data-name="Path 38660" class="cls-20" d="M293.46,242.34a4.93,4.93,0,0,1-2.69,6.44h0a4.93,4.93,0,0,1-6.43-2.69h0a4.93,4.93,0,0,1,2.69-6.44h0a4.93,4.93,0,0,1,6.43,2.69Z"/><path id="Path_38661" data-name="Path 38661" class="cls-20" d="M300.27,286.59c2.09-.09,4.23-.09,5.61-2.14-4.95-20.64-2.14-35.33-11.68-43.11l-9.86,4.75C288.05,256.38,293.72,271.47,300.27,286.59Z"/></g><g id="Group_47989" data-name="Group 47989"><circle id="Ellipse_2386" data-name="Ellipse 2386" class="cls-20" cx="284.42" cy="194.89" r="13.03"/><path id="Path_38662" data-name="Path 38662" class="cls-20" d="M271.61,197.25c3.81,16.95,7.3,30.17,12.63,48.46l10.95,2.17c4.09-14.65,5-45.37,2.14-54.84Z"/></g><path id="Path_38663" data-name="Path 38663" class="cls-34" d="M265.79,194.34c3.46,2.08,10.8,2.09,14,1.93-2.24-16.54-2.2-35.13.54-50.71,2.4-13.73,7.78-16.45,10.74-16.87a15.15,15.15,0,0,0-3.23-1.59,12.52,12.52,0,0,0-6.59-.43c-3.4,1.83-8.17,5.9-11.22,16.09C264.38,161.76,265.16,184.53,265.79,194.34Z"/><g id="Group_47990" data-name="Group 47990"><path id="Path_38664" data-name="Path 38664" class="cls-35" d="M275.52,197.14A27.85,27.85,0,0,1,265,195.06l.73-1.61a26.48,26.48,0,0,0,13.35,1.65l.28,1.75A24.48,24.48,0,0,1,275.52,197.14Z"/></g><path id="Path_38665" data-name="Path 38665" class="cls-36" d="M272.18,197.5l-2.59-.43a.7.7,0,0,1-.59-.69v-1.65a.7.7,0,0,1,.7-.7h.11l2.6.42a.7.7,0,0,1,.58.69v1.66a.7.7,0,0,1-.7.7Z"/><g id="Group_47993" data-name="Group 47993"><g id="Group_47991" data-name="Group 47991"><path id="Path_38666" data-name="Path 38666" class="cls-9" d="M288,127.67c-.89-1.64-1-4.64-.89-6.85a2.49,2.49,0,0,0-2.3-2.66h-.06a2.49,2.49,0,0,0-2.43,2.54v.06c0,2.21-.13,5.2-1.08,6.82C281.22,129.56,287.87,129.65,288,127.67Z"/></g><g id="Group_47992" data-name="Group 47992"><path id="Path_38667" data-name="Path 38667" class="cls-9" d="M275.75,107.7c-.46,4.36-.85,15.13,4.34,16.21,3.56.74,9.19-5.47,9.66-8.94s3.11-8.85-5.31-10.78C277.67,102.64,276,105.3,275.75,107.7Z"/><path id="Path_38668" data-name="Path 38668" class="cls-11" d="M292.82,105.55a6.57,6.57,0,0,0-2.48-3.68c-3.22-1.84-6.12-1.25-10.48-1.31s-3.25-2-3.25-2-2.42,2.36-2.3,4.76a3.3,3.3,0,0,0,1.76,3.06,13.07,13.07,0,0,1,6.29-.66c3.38.53,5.22,2.74,4.08,5.1s-1.57,2.83-1.15,4.43l.74-.17a3.08,3.08,0,0,1,1.49-2.43c1-.56,2.63.14,2.18,2-.49,2-1.43,1.51-2,2.85-.78,1.8.33,2.07.57,2.09,0-1.07,1.3-2.84,1.75-3.55a12.51,12.51,0,0,0,1.49-4.34c.09-.49.14-1,.24-1.54h0a5.54,5.54,0,0,1,.7-1.68C293.05,107.2,293.24,106.87,292.82,105.55Z"/></g></g><path id="Path_38669" data-name="Path 38669" class="cls-20" d="M266.9,199.14c-.64-9.82-1.6-36.93,4.09-55.94,3.05-10.19,6.9-14.7,10.3-16.53-5.21,1-10,5.28-11.93,11.84-7.18,24.77-9.15,35.54-8.45,58.5A10.88,10.88,0,0,0,266.9,199.14Z"/><path id="Path_38670" data-name="Path 38670" class="cls-17" d="M280.05,130.6a19.7,19.7,0,0,0-1.61,2.78c-.48,1-.92,2-1.32,3a48.67,48.67,0,0,0-2.05,6.22,31.87,31.87,0,0,0-.66,3.17,23.13,23.13,0,0,0-.25,3.21c-.06,2.2-.08,4.41-.1,6.62,0,4.42-.05,8.85-.18,13.29-.06,2.22-.16,4.44-.33,6.68a45.1,45.1,0,0,1-.93,6.75l-1.65.91-.82-1.53a44,44,0,0,0,1.05-6.35c.23-2.17.39-4.36.52-6.56.26-4.4.4-8.81.57-13.23.08-2.21.17-4.42.29-6.64a27.44,27.44,0,0,1,.36-3.39c.22-1.11.47-2.22.79-3.29a50.72,50.72,0,0,1,2.29-6.32c.44-1,.92-2,1.45-3a18.83,18.83,0,0,1,1.8-2.89Z"/><path id="Path_38671" data-name="Path 38671" class="cls-17" d="M282.14,129.89l-3.32,1.56,1-3.75,1.88-.92Z"/><path id="Path_38672" data-name="Path 38672" class="cls-34" d="M289.05,127.64l-1.72-1.84a4.25,4.25,0,0,1-5.06,1c-.55-.27-.3-1.57-.3-1.57l-3.88,4,3.12-1.68-.09,3.84A9.74,9.74,0,0,0,289.05,127.64Z"/><g id="Group_47994" data-name="Group 47994"><path id="Path_38673" data-name="Path 38673" class="cls-37" d="M281.51,131.6a3.89,3.89,0,0,1-.41,0,.24.24,0,0,1-.22-.24l.08-3.44-2.17,1.17a.23.23,0,0,1-.32-.1.24.24,0,0,1,.1-.33l2.53-1.36a.23.23,0,0,1,.24,0,.22.22,0,0,1,.11.21l-.08,3.61a7.62,7.62,0,0,0,1.26-.08.24.24,0,0,1,.27.21.24.24,0,0,1-.21.27A7.72,7.72,0,0,1,281.51,131.6Z"/></g><path id="Path_38674" data-name="Path 38674" class="cls-20" d="M277.67,145.26c-2.74,15.58-2.14,41,.11,57.55,6.85,1.56,14.25.87,22.32-3-3.56-19.73-5.43-34.48-2.25-54.79,1-6.6-1-12.68-6.13-16.06l-2.64-1.61C286.12,127.76,280.07,131.53,277.67,145.26Z"/><g id="Group_47997" data-name="Group 47997"><g id="Group_47995" data-name="Group 47995"><path id="Path_38675" data-name="Path 38675" class="cls-28" d="M277.44,160h-.07a.26.26,0,0,1-.17-.31h0l5.18-17.6-1.82-2.18a.25.25,0,0,1,0-.27.25.25,0,0,1,.23-.15h3l2.13-9.07a.25.25,0,0,1,.3-.19h0a.25.25,0,0,1,.19.3l-2.18,9.26a.24.24,0,0,1-.24.19h-2.69l1.57,1.88a.27.27,0,0,1,0,.23l-5.22,17.73A.24.24,0,0,1,277.44,160Z"/></g><g id="Group_47996" data-name="Group 47996"><path id="Path_38676" data-name="Path 38676" class="cls-28" d="M267.16,158h0a.26.26,0,0,1-.25-.26h0c.25-7.55,2.83-18.1,2.86-18.2a.21.21,0,0,1,.11-.15l1.37-.85-.6-.3a.26.26,0,0,1-.11-.34,35.85,35.85,0,0,1,6.06-8.77.25.25,0,0,1,.36,0,.26.26,0,0,1,0,.36,35.41,35.41,0,0,0-5.87,8.43l.78.39a.27.27,0,0,1,.14.22.25.25,0,0,1-.12.22l-1.67,1c-.26,1.1-2.58,10.9-2.81,18A.25.25,0,0,1,267.16,158Z"/></g></g><g id="Group_47998" data-name="Group 47998"><path id="Path_38677" data-name="Path 38677" class="cls-24" d="M284.59,203.9a31.14,31.14,0,0,1-6.88-.77.33.33,0,0,1-.26-.28l-.11-.9a.32.32,0,0,1,.28-.37h0a.34.34,0,0,1,.37.29l.09.66a32.28,32.28,0,0,0,19.54-2,.33.33,0,1,1,.25.61A34.81,34.81,0,0,1,284.59,203.9Z"/></g><g id="Group_47999" data-name="Group 47999"><path id="Path_38678" data-name="Path 38678" class="cls-20" d="M297.81,135.1a5.39,5.39,0,1,1-9.72,4.64h0a5.39,5.39,0,0,1,2.54-7.18h0A5.39,5.39,0,0,1,297.81,135.1Z"/><circle id="Ellipse_2387" data-name="Ellipse 2387" class="cls-20" cx="307.36" cy="168.64" r="4.51"/><path id="Path_38679" data-name="Path 38679" class="cls-20" d="M297.54,134.45c-1.92-2.18-4.22-3.17-6.91-1.89-3.19,1.52-3.79,4.5-2.88,7.34,5.68,17.73,11.78,20,15.47,31,.68,2,3.51,3,6.51,1.59,2-.94,2.6-3.25,2.1-5.35C306.63,145.13,299.39,136.55,297.54,134.45Z"/></g><g id="Group_48000" data-name="Group 48000"><path id="Path_38680" data-name="Path 38680" class="cls-24" d="M295.65,157.34a.31.31,0,0,1-.27-.15A68.64,68.64,0,0,1,287.44,140c-1-3-.19-5.67,2.14-7.22a.32.32,0,0,1,.45.09.31.31,0,0,1-.09.45c-2.07,1.39-2.75,3.75-1.88,6.48a68.31,68.31,0,0,0,7.87,17,.33.33,0,0,1-.1.45h0A.27.27,0,0,1,295.65,157.34Z"/></g><g id="Group_48006" data-name="Group 48006"><path id="Path_38681" data-name="Path 38681" class="cls-9" d="M312.52,203.63s-1.15,2.57-.25,4.21c1.18,2.14.69,2.83,1.12,2.84s.67-.38.51-1.45C313.69,207.86,312.52,203.63,312.52,203.63Z"/><g id="Group_48004" data-name="Group 48004"><path id="Path_38682" data-name="Path 38682" class="cls-38" d="M322.57,204.27l9.48,22.82a1,1,0,0,1-.4,1.29L315,236.5a1.27,1.27,0,0,1-1.62-.71l-10.6-23.1a1,1,0,0,1,.38-1.33l0,0L308.6,209l2.06-.91,1.09-.48,7.12-3.14,2.08-.92A1.3,1.3,0,0,1,322.57,204.27Z"/><g id="Group_48003" data-name="Group 48003"><g id="Group_48001" data-name="Group 48001"><path id="Path_38683" data-name="Path 38683" class="cls-39" d="M314.11,235.81a.26.26,0,0,1-.23-.14l-10.33-22.83a.65.65,0,0,1,.29-.87h0l7.38-3.4a.25.25,0,0,1,.32.12h0a.26.26,0,0,1-.13.33h0l-7.37,3.4c-.08,0-.08.13,0,.21l10.33,22.83a.25.25,0,0,1-.13.33Z"/></g><g id="Group_48002" data-name="Group 48002"><path id="Path_38684" data-name="Path 38684" class="cls-39" d="M319.54,205.61a.27.27,0,0,1-.22-.15.24.24,0,0,1,.12-.33h0l1.3-.61a.27.27,0,0,1,.34.12.25.25,0,0,1-.13.33l-1.3.61Z"/></g></g></g><path id="Path_38685" data-name="Path 38685" class="cls-9" d="M312.39,206.52c.4,1.59,2.57,5.83,3.23,5.35s-1.52-3-1.18-3.33,2,4.14,2.85,3.68-1.89-3.82-1.28-4.13,1.18,3.94,2.08,3.4c.71-.43-1-4.19-.58-4.49s1.11,2.64,1.77,2.31-.58-2.88-1.66-4.6c-1.21-1.94-2.36-1.93-2.4-2.82-.05-1.2-1.11-1.44-2-.81C312.79,201.4,312,204.86,312.39,206.52Z"/><g id="Group_48005" data-name="Group 48005"><path id="Path_38686" data-name="Path 38686" class="cls-10" d="M314.2,210.63a.17.17,0,0,1-.14-.07,18.5,18.5,0,0,1-1.82-4c-.06-.26-.11-.51-.15-.77a.16.16,0,0,1,.14-.18h0a.15.15,0,0,1,.18.13h0a6,6,0,0,0,.14.74,17.72,17.72,0,0,0,1.79,3.91.17.17,0,0,1-.06.22Z"/></g></g><g id="Group_48007" data-name="Group 48007"><path id="Path_38687" data-name="Path 38687" class="cls-20" d="M311.41,167.1a4.5,4.5,0,0,1-2.17,6h0a4.5,4.5,0,0,1-6-2.17h0a4.52,4.52,0,0,1,2.18-6h0A4.51,4.51,0,0,1,311.41,167.1Z"/><path id="Path_38688" data-name="Path 38688" class="cls-20" d="M310.37,165.69l.08.07a5.13,5.13,0,0,1,1.22,2,2.81,2.81,0,0,1,.08.31c.68,2.77,3.49,13.68,3.87,33.83l-.29,0h-.05l-2.55.4h-.05l-.36.06c-4.33-12.92-8.52-23.38-9.76-32.65-.43-3.16,1.13-4.43,3.45-5.09l.11,0h.05a1.94,1.94,0,0,1,.33-.07.1.1,0,0,1,.09,0,.78.78,0,0,1,.22,0,.25.25,0,0,1,.12,0A4.21,4.21,0,0,1,310.37,165.69Z"/></g></g><g id="Group_48029" data-name="Group 48029"><g id="Group_48009" data-name="Group 48009"><path id="Path_38689" data-name="Path 38689" class="cls-11" d="M214.63,292.19l12.6,0v-.24a1,1,0,0,0-.85-1,9.17,9.17,0,0,1-7-4.4,4,4,0,0,1-.2-.35,2.38,2.38,0,0,0-4.3,1l0,.39C214.72,289.15,214.6,291.18,214.63,292.19Z"/><path id="Path_38690" data-name="Path 38690" class="cls-11" d="M214.84,287.54v0a2.37,2.37,0,0,0,4.74,0h0a2.27,2.27,0,0,0-.22-1l-.19-.35a2.4,2.4,0,0,0-2-1,2.36,2.36,0,0,0-2.34,2A2.19,2.19,0,0,0,214.84,287.54Z"/></g><circle id="Ellipse_2388" data-name="Ellipse 2388" class="cls-20" cx="214.89" cy="246.07" r="4.46"/><g id="Group_48010" data-name="Group 48010"><circle id="Ellipse_2389" data-name="Ellipse 2389" class="cls-40" cx="205.71" cy="197.84" r="11.78"/><path id="Path_38691" data-name="Path 38691" class="cls-41" d="M219.34,246.08l-.36,0,.36-.19c-.24-17.21-.74-33.74-1.93-49.39l-23.35,3.19c0,8.21,7.56,34.52,14.54,47.74-3.49,9.57,3.41,22.36,6.12,40.1a23.32,23.32,0,0,0,5.2-1.44C220.24,271.19,219.75,256,219.34,246.08Z"/></g><g id="Group_48011" data-name="Group 48011"><path id="Path_38692" data-name="Path 38692" class="cls-11" d="M182.05,292.39h9v-.24a1.13,1.13,0,0,0-.84-1c-2-.82-2.37-2-3.41-4.41,0-.12-.13-.23-.19-.35a2.43,2.43,0,0,0-2-1,2.38,2.38,0,0,0-2.35,2,2.66,2.66,0,0,1,0,.39C182.15,289.35,182,291.37,182.05,292.39Z"/><path id="Path_38693" data-name="Path 38693" class="cls-11" d="M182.26,287.73v0a2.38,2.38,0,0,0,4.75,0h0a2.27,2.27,0,0,0-.22-1l-.19-.35a2.38,2.38,0,0,0-4.31,1Z"/></g><path id="Path_38694" data-name="Path 38694" class="cls-28" d="M188.75,245.74a4.46,4.46,0,1,0,5.49-3.1,4.46,4.46,0,0,0-5.49,3.1Z"/><g id="Group_48012" data-name="Group 48012"><circle id="Ellipse_2390" data-name="Ellipse 2390" class="cls-42" cx="195.88" cy="197.84" r="11.78"/><path id="Path_38695" data-name="Path 38695" class="cls-43" d="M207.53,199.64l-23.35-3.13c-2.16,7.93-.94,35.46,2.43,50.07-5.87,8.37-2.59,23-4.69,40.79a12.63,12.63,0,0,0,5.36-.54c4.26-14.26,7.83-29.07,10.06-38.7a1.55,1.55,0,0,0,0-.21h0C201.73,231.26,204.53,215,207.53,199.64Z"/></g><g id="Group_48015" data-name="Group 48015"><path id="Path_38696" data-name="Path 38696" class="cls-9" d="M243,150.7h1.68c0,.94,0,1.88.12,2.81l-.14,2.53a8.16,8.16,0,0,1-3.8-.81,6.77,6.77,0,0,0-2.57-.65.87.87,0,0,1-.77-.81v-.07a.87.87,0,0,1,.82-.92h0a2.79,2.79,0,0,0,2.13-1,3.2,3.2,0,0,1,2.51-1.06Z"/><path id="Path_38697" data-name="Path 38697" class="cls-9" d="M246.53,151c.19.48-.39.53-.33.81s1.06.39,1.07.88-.89.54-.85.88.64.44.6.83-.84.3-.9.58.48.5.38.81-1.08.58-2,.41-1.68-.43-1.66-.83.79-.27.81-.52-1.07-.34-.93-.83,1-.4,1-.75-1-.06-1-.71c0-.48,1-.3.93-.58s-.79-.2-.83-.57.75-.64,1.61-.79S246.41,150.73,246.53,151Z"/><g id="Group_48013" data-name="Group 48013"><path id="Path_38698" data-name="Path 38698" class="cls-10" d="M244.46,156.36h0c-.81-.15-1.78-.43-1.76-1,0-.32.33-.39.56-.45a.73.73,0,0,0,.25-.08,2,2,0,0,0-.3-.14c-.31-.13-.74-.32-.63-.7a.92.92,0,0,1,.67-.53c.17-.06.33-.12.34-.21a.62.62,0,0,0-.28-.08c-.29-.06-.73-.14-.71-.62s.4-.44.67-.5a.77.77,0,0,0,.27-.07l-.26-.09c-.24-.08-.54-.19-.57-.47s.5-.71,1.7-.92a.11.11,0,0,1,.14.09h0a.12.12,0,0,1-.09.14h0c-1.4.24-1.52.54-1.5.66s.22.2.41.26.38.13.41.29-.23.3-.45.34-.47.11-.48.27.18.31.51.37.5.09.48.35-.27.33-.5.41-.46.17-.52.36.18.28.49.42.46.2.45.38-.24.25-.43.3-.38.1-.38.22.4.51,1.56.71a.12.12,0,0,1,.1.14h0A.14.14,0,0,1,244.46,156.36Z"/></g><path id="Path_38699" data-name="Path 38699" class="cls-9" d="M243,149.32c0-.67-.13-1.4-.45-1.42s-.35.28-.52,1.26a3.18,3.18,0,0,1-.86,1.85,1.87,1.87,0,0,0-.44.66,1.46,1.46,0,0,0,0,.51A1.07,1.07,0,0,0,242,153a1.05,1.05,0,0,0,.41-.17,1.92,1.92,0,0,0,.57-1.12A12.13,12.13,0,0,0,243,149.32Z"/><g id="Group_48014" data-name="Group 48014"><path id="Path_38700" data-name="Path 38700" class="cls-10" d="M242.13,153.13a.14.14,0,0,1-.12-.07.13.13,0,0,1,.07-.16.72.72,0,0,0,.24-.14,1.77,1.77,0,0,0,.53-1.06,7.37,7.37,0,0,0,.07-1.41.11.11,0,0,1,.11-.12h0a.11.11,0,0,1,.12.11,7.24,7.24,0,0,1-.06,1.47,2,2,0,0,1-.62,1.19,1.17,1.17,0,0,1-.3.19Z"/></g></g><g id="Group_48016" data-name="Group 48016"><path id="Path_38701" data-name="Path 38701" class="cls-34" d="M214.37,172.42a4.28,4.28,0,0,0,3-5.25h0a4.27,4.27,0,1,0-3,5.25Z"/><path id="Path_38702" data-name="Path 38702" class="cls-34" d="M240.25,155.18c-12.2,9.36-23.9,16.46-25.22,17a4.22,4.22,0,0,1-5.63-2,.36.36,0,0,1,0-.09c-1-2.13-1.07-4.07,1.52-5.73,7.47-4.78,15.71-7.08,27.71-11.88Z"/></g><g id="Group_48017" data-name="Group 48017"><path id="Path_38703" data-name="Path 38703" class="cls-34" d="M196,129.57h0c7.73-.89,13.1,5.42,16.06,13.24,7.78,20.61,5.84,47.61,4.88,48.41-.64.54-.24,1.16-.65,1.4-14.77,4.28-21.23,3.44-31.1.31-.82-5.6,2.79-12-1.8-46.81C182.77,137.78,188.26,130.47,196,129.57Z"/><path id="Path_38704" data-name="Path 38704" class="cls-34" d="M184.8,140.08a5.11,5.11,0,0,0,5.41,4.79h0a5.11,5.11,0,1,0-5.41-4.79Z"/></g><g id="Group_48018" data-name="Group 48018"><path id="Path_38705" data-name="Path 38705" class="cls-24" d="M201.19,136.69l-2.66-1.82,1.23-1.93,2.17.79Z"/><path id="Path_38706" data-name="Path 38706" class="cls-24" d="M201.12,135.2a58.18,58.18,0,0,1,3.9,12.13,87.93,87.93,0,0,1,1.75,12.61c.3,4.19,0,4.26.55,8.43s1.22,8.32,2.12,12.37l-.62,1.27-1.22-.85c-.84-4.21-1.41-8.39-1.89-12.6s-.08-4.32-.3-8.54A87.1,87.1,0,0,0,204,147.55a57,57,0,0,0-3.58-12Z"/></g><g id="Group_48020" data-name="Group 48020"><path id="Path_38707" data-name="Path 38707" class="cls-11" d="M200.45,195.79a50.62,50.62,0,0,1-15.6-2.3l.14-2c-.07,0,15.77,5.16,31.94-.23l-.22,1.92A51.06,51.06,0,0,1,200.45,195.79Z"/><g id="Group_48019" data-name="Group 48019"><rect id="Rectangle_19193" data-name="Rectangle 19193" class="cls-11" x="205.16" y="192.95" width="3.89" height="2.83" rx="0.74" transform="translate(-20.24 24.11) rotate(-6.35)"/><path id="Path_38708" data-name="Path 38708" class="cls-36" d="M205.82,196.21a.83.83,0,0,1-.83-.74l-.19-1.71a.83.83,0,0,1,.18-.62.85.85,0,0,1,.56-.31l2.76-.3a.85.85,0,0,1,.93.74l.19,1.71a.84.84,0,0,1-.74.92l-2.77.31Zm2.57-3.12h0l-2.76.3a.29.29,0,0,0-.18.1.25.25,0,0,0-.06.2l.19,1.71a.27.27,0,0,0,.1.19.29.29,0,0,0,.2,0l2.76-.3a.27.27,0,0,0,.24-.3h0l-.19-1.71A.26.26,0,0,0,208.39,193.09Z"/></g></g><g id="Group_48021" data-name="Group 48021"><circle id="Ellipse_2391" data-name="Ellipse 2391" class="cls-34" cx="187.93" cy="143.5" r="5.11"/><path id="Path_38709" data-name="Path 38709" class="cls-34" d="M197.06,175.05a4.27,4.27,0,0,0,5.6,2.27h0a4.28,4.28,0,0,0,2.27-5.6h0a4.27,4.27,0,0,0-5.6-2.27h0a4.27,4.27,0,0,0-2.27,5.6Z"/><path id="Path_38710" data-name="Path 38710" class="cls-34" d="M182.92,144.89c-.33-2.74.42-5,3-6.1,3.08-1.3,5.58.15,7,2.58,9,15.2,6.74,20.93,12.26,30.5,1,1.77-.08,4.4-3,5.62a4.33,4.33,0,0,1-5.12-1.87C184.78,158.06,183.25,147.52,182.92,144.89Z"/></g><g id="Group_48022" data-name="Group 48022"><path id="Path_38711" data-name="Path 38711" class="cls-34" d="M199.33,177.26a4.27,4.27,0,1,0-1.8-5.77h0a4.28,4.28,0,0,0,1.8,5.77Z"/><path id="Path_38712" data-name="Path 38712" class="cls-34" d="M231.72,182.78c-20.12.75-30.41-4.74-31.74-5.25a4.22,4.22,0,0,1-2.76-5.3.42.42,0,0,0,0-.1c.73-2.23,2-3.7,5-3.15,8.73,1.59,18.08,6.52,30.13,11.19Z"/></g><g id="Group_48025" data-name="Group 48025"><g id="Group_48023" data-name="Group 48023"><path id="Path_38713" data-name="Path 38713" class="cls-37" d="M216.65,174a.4.4,0,0,1-.15,0,81.55,81.55,0,0,0-12.7-4.32l-.18,0-.08-.17a50.37,50.37,0,0,1-3-8.94,66.69,66.69,0,0,0-7.87-19,5.45,5.45,0,0,0-3.75-2.83.38.38,0,0,1-.31-.43h0A.36.36,0,0,1,189,138a6.16,6.16,0,0,1,4.28,3.19,67.19,67.19,0,0,1,7.94,19.16,50.78,50.78,0,0,0,2.92,8.64,84.6,84.6,0,0,1,12.65,4.32.37.37,0,0,1,.2.49A.37.37,0,0,1,216.65,174Z"/></g><g id="Group_48024" data-name="Group 48024"><path id="Path_38714" data-name="Path 38714" class="cls-37" d="M216.65,182.5h-.05a56.45,56.45,0,0,1-16.23-4.39h0a5.29,5.29,0,0,1-3.53-2.27,95.36,95.36,0,0,1-12.1-22.27.38.38,0,0,1,.22-.48h0a.39.39,0,0,1,.49.23h0a94.36,94.36,0,0,0,12,22.08,4.47,4.47,0,0,0,3.06,2l.18.07a56,56,0,0,0,16,4.33.37.37,0,0,1,0,.74Z"/></g></g><g id="Group_48028" data-name="Group 48028"><g id="Group_48026" data-name="Group 48026"><path id="Path_38715" data-name="Path 38715" class="cls-9" d="M193.65,131c.82-1.69.76-4.69.57-6.89a2.47,2.47,0,0,1,2.17-2.77h.06a2.48,2.48,0,0,1,2.55,2.42v.06c.09,2.21.39,5.2,1.41,6.77C200.48,132.57,193.83,133,193.65,131Z"/></g><g id="Group_48027" data-name="Group 48027"><path id="Path_38716" data-name="Path 38716" class="cls-9" d="M202.22,109.2c1.46,4.15,4.34,14.54-.47,16.8-3.3,1.55-10.21-3.2-11.48-6.47s-5.07-7.9,2.68-11.73C199.18,104.72,201.42,106.93,202.22,109.2Z"/><path id="Path_38717" data-name="Path 38717" class="cls-24" d="M194.43,108.35c5.11-2.94,7.14-.44,7.14-.44s1.78-3.57-1.65-7.12c-2.36-2.45-6.64-1.32-6.64-1.32s4.31,2.42.37,5.14a3.11,3.11,0,0,1-.32-3,22.1,22.1,0,0,0-5.33,4.88c-2.18,2.92-2,4.9-1.51,6.14a1.44,1.44,0,0,0-1,1.78,1,1,0,0,0,.05.16,10.89,10.89,0,0,0,2.14,3.34,66.22,66.22,0,0,1,4.37,5.09,3.56,3.56,0,0,1,.86,2.78s2.31-1.73,1.09-3.27-2.83-1.48-3.78-3.34c-.87-1.7.61-2.87,1.66-2.46,1.76.7,3.29,3.37,3.62,5.73s1.49,4.59,5.66,4,3.38-7.7,3.32-7.92,0-1.71-2.56-.36c-2.22,1.13-4.26,2.63-5.34,1a13.46,13.46,0,0,0-3.71-3.66h0l-.51-.52C191.87,114.41,189.5,111.18,194.43,108.35Zm5.31,14.12c-.12-1.51,1.38-2.08,2.9-2.44,1.34-.33,1.41.45,1.38,1.45a1.79,1.79,0,0,1-1.31,1.85c-.43.16-2.85.64-3-.86Z"/></g></g></g></g></g></svg>