<svg version="1.1" id="Layer_1" xmlns="http://www.w3.org/2000/svg" xmlns:xlink="http://www.w3.org/1999/xlink" x="0px" y="0px"
	 width="100%" viewBox="0 0 293 382" enable-background="new 0 0 293 382" xml:space="preserve">
<path fill="#FEFEFE" opacity="1.000000" stroke="none" 
	d="
M294.000000,145.000000 
	C294.000000,224.637360 294.000000,303.774719 294.000000,382.956055 
	C196.398804,382.956055 98.797585,382.956055 1.098181,382.956055 
	C1.098181,255.779312 1.098181,128.558533 1.098181,1.168879 
	C98.666428,1.168879 196.333191,1.168879 294.000000,1.168879 
	C294.000000,48.869072 294.000000,96.684532 294.000000,145.000000 
M49.703468,355.032257 
	C50.183109,354.927246 50.662754,354.822205 52.061115,354.719666 
	C68.716423,354.720123 85.371872,354.760864 102.026985,354.704407 
	C110.672157,354.675079 119.316765,354.473877 128.868195,354.621307 
	C139.243439,354.532776 149.618698,354.444244 160.872086,354.640106 
	C163.945847,354.562134 167.019608,354.484192 170.981232,354.673462 
	C183.910156,354.649231 196.839066,354.625000 210.707352,354.734894 
	C213.565964,354.643402 216.424576,354.551910 220.147507,354.646454 
	C223.567017,354.646454 226.986542,354.646454 231.095276,354.646454 
	C231.095276,343.552429 231.095276,333.010345 231.677643,322.865204 
	C237.207092,326.220764 242.736542,329.576324 248.255447,333.876251 
	C248.255447,340.751007 248.255447,347.625793 248.255447,354.659210 
	C252.589523,354.659210 256.185944,354.659210 260.387878,354.659210 
	C260.387878,347.357269 260.387878,340.132080 261.114594,332.616272 
	C276.731781,327.795380 285.025085,316.188232 283.812714,300.314087 
	C281.303101,285.176819 271.674774,275.838776 256.113617,274.032990 
	C251.853317,274.657959 247.593002,275.282928 243.214890,274.968994 
	C242.206619,274.083008 241.282486,272.580780 240.173920,272.429413 
	C237.145721,272.015991 234.039734,272.172150 230.880630,271.239471 
	C230.977966,269.516296 231.075302,267.793152 232.079208,266.066559 
	C235.660461,266.066559 239.241730,266.066559 242.912598,266.066559 
	C242.912598,257.976593 242.912598,250.588211 242.912598,242.823090 
	C238.917679,242.823090 235.157715,242.823090 231.115265,242.020782 
	C231.174896,240.057892 231.234543,238.095001 232.185394,236.202225 
	C235.759811,236.202225 239.334229,236.202225 242.882751,236.202225 
	C242.882751,228.036667 242.882751,220.628922 242.882751,212.868134 
	C238.836182,212.868134 235.050705,212.868134 231.041168,212.045624 
	C231.106750,210.070740 231.172333,208.095840 232.136871,206.177368 
	C235.722687,206.177368 239.308502,206.177368 242.879471,206.177368 
	C242.879471,198.056320 242.879471,190.647369 242.879471,182.877472 
	C238.826035,182.877472 235.037811,182.877472 231.037033,182.053802 
	C231.177597,180.102509 231.318161,178.151199 232.321167,176.360611 
	C235.768860,176.360611 239.216553,176.360611 242.839645,176.360611 
	C242.839645,168.351242 242.839645,160.812119 242.839645,152.932571 
	C238.731781,152.932571 234.936127,152.932571 230.968567,152.081146 
	C230.962372,150.341095 230.956161,148.601028 231.853104,146.688080 
	C235.475647,146.688080 239.098190,146.688080 242.841812,146.688080 
	C242.841812,138.467667 242.841812,130.912933 242.841812,122.937210 
	C238.743423,122.937210 234.951355,122.937210 230.968552,122.074959 
	C230.813278,120.662987 230.657990,119.251015 230.481003,117.641579 
	C226.951447,117.641579 223.815338,117.641579 220.400085,116.793404 
	C220.400085,89.094315 220.400085,61.395229 220.400085,33.356010 
	C207.806442,33.356010 195.901611,33.356010 183.081223,33.149982 
	C152.815598,33.149982 122.549973,33.149982 91.506775,33.149982 
	C91.506775,55.016186 91.506775,76.441483 90.631401,97.866959 
	C75.541412,97.866959 60.451431,97.866959 44.930946,97.866959 
	C44.930946,150.730789 44.930946,203.079437 44.420109,255.929810 
	C44.249241,256.612579 44.078369,257.295319 43.982319,257.968414 
	C43.982319,257.968414 43.946491,257.902039 43.434307,258.397430 
	C34.935787,281.055237 26.437269,303.713013 17.867081,326.561890 
	C24.694744,326.561890 30.838852,326.561890 37.604389,326.785339 
	C38.037979,326.858978 38.471565,326.932587 38.924343,327.943268 
	C38.924343,336.875183 38.924343,345.807098 38.924343,354.903625 
	C42.686008,354.903625 45.827087,354.903625 49.703468,355.032257 
z"/>
<path fill="#D28501" opacity="1.000000" stroke="none" 
	d="
M44.930946,255.428085 
	C44.930946,203.079437 44.930946,150.730789 44.930946,97.866959 
	C60.451431,97.866959 75.541412,97.866959 91.572899,97.903481 
	C104.344574,97.961250 116.174751,97.982498 127.998840,98.472137 
	C127.982384,184.077118 127.972000,269.213715 127.961624,354.350311 
	C119.316765,354.473877 110.672157,354.675079 102.026985,354.704407 
	C85.371872,354.760864 68.716423,354.720123 51.580711,354.524292 
	C51.100311,354.328888 51.012207,353.948273 51.005981,353.482880 
	C50.988750,344.338989 50.977745,335.660492 51.370880,326.911407 
	C52.589909,326.897278 53.404793,326.953735 54.199753,327.470215 
	C54.173363,330.590240 54.243275,333.253235 54.139103,335.909424 
	C54.033329,338.606415 55.087067,339.863251 57.906429,339.855591 
	C76.692886,339.804871 95.480331,339.894318 114.264336,339.673584 
	C115.465294,339.659485 117.580643,337.492432 117.665138,336.220306 
	C118.038925,330.592621 117.747131,324.924347 117.859207,319.274017 
	C117.911308,316.647125 116.805954,315.816956 114.290047,315.837311 
	C98.997917,315.961060 83.704987,315.986298 68.180634,315.819122 
	C67.293892,313.724915 66.638840,311.856018 66.414505,309.965485 
	C68.211456,309.192810 70.688820,308.533051 70.759270,307.675598 
	C71.146248,302.965607 70.943962,298.207153 70.943962,293.211914 
	C66.651344,293.211914 63.185379,293.211914 59.503815,292.941345 
	C58.606087,290.720642 57.923954,288.770447 57.692001,286.838135 
	C62.238586,286.856018 66.334991,286.856018 70.635124,286.856018 
	C70.635124,280.976959 70.635124,275.766998 70.635124,270.343384 
	C65.102211,270.343384 59.900200,270.343384 54.465397,270.343384 
	C54.263218,272.946838 54.085838,275.230927 53.650795,277.235962 
	C50.645767,270.177673 47.898411,263.398468 45.107536,256.319366 
	C45.019661,255.822311 44.975304,255.625198 44.930946,255.428085 
M70.920944,168.141678 
	C70.941643,164.164352 71.200356,160.164963 70.835129,156.223389 
	C70.728317,155.070724 68.930229,153.264297 67.764297,153.144028 
	C54.157143,151.740341 53.476135,152.451904 54.047535,166.084595 
	C54.075287,166.746750 53.868164,167.544922 54.167282,168.039932 
	C54.615002,168.780899 55.431107,169.858582 56.062836,169.840210 
	C60.938141,169.698547 65.806763,169.327118 70.920944,168.141678 
M54.153881,236.253326 
	C55.029453,237.500717 55.821037,239.743317 56.794945,239.825531 
	C61.337254,240.208862 65.929924,239.995483 70.962410,239.995483 
	C70.962410,236.661804 70.962410,234.043304 70.962410,231.424805 
	C70.962410,228.830719 70.962410,226.236633 70.962410,223.432724 
	C69.033295,223.284363 67.747871,223.117432 66.460129,223.097031 
	C54.144627,222.901978 54.144512,222.909103 54.153881,236.253326 
M102.874710,286.822937 
	C106.687874,286.839844 110.518700,287.068237 114.304024,286.751892 
	C115.526619,286.649689 117.554955,285.188110 117.629654,284.225372 
	C117.982948,279.672180 117.787292,275.076416 117.787292,270.337799 
	C111.904663,270.337799 106.701851,270.337799 100.572479,270.337799 
	C101.065041,276.022400 101.524063,281.319855 102.874710,286.822937 
M101.053772,107.901611 
	C101.053772,112.797028 101.053772,117.692451 101.053772,122.651474 
	C106.927544,122.651474 112.117424,122.651474 117.798508,122.651474 
	C117.798508,117.865898 117.930763,113.426758 117.693253,109.007500 
	C117.642265,108.058922 116.253967,106.400635 115.481186,106.400337 
	C110.762810,106.398483 106.044281,106.780563 101.053772,107.901611 
M62.502422,129.971542 
	C59.912727,129.971542 57.323029,129.971542 54.169079,129.971542 
	C54.169079,135.023621 54.006001,139.456558 54.289684,143.860733 
	C54.356285,144.894730 55.881374,146.618011 56.823185,146.679459 
	C61.368572,146.975952 65.943932,146.812988 70.624016,146.812988 
	C70.624016,140.886658 70.624016,135.691101 70.624016,129.971664 
	C68.015694,129.971664 65.740822,129.971664 62.502422,129.971542 
M117.707893,225.084991 
	C117.022835,224.452881 116.355690,223.297394 115.649818,223.273224 
	C110.906456,223.110779 106.154869,223.188675 101.321037,223.188675 
	C101.321037,229.071472 101.321037,234.290436 101.321037,239.655487 
	C106.872002,239.655487 112.078476,239.655487 117.814346,239.655487 
	C117.814346,234.875244 117.814346,230.430466 117.707893,225.084991 
M102.019997,176.422043 
	C101.563438,181.830276 101.106880,187.238495 100.654205,192.600769 
	C107.037300,192.600769 112.233040,192.600769 117.834953,192.600769 
	C117.834953,188.224701 117.702103,184.267944 117.875450,180.324661 
	C118.023964,176.946548 116.419182,175.984329 113.348213,176.129150 
	C109.875275,176.292953 106.390266,176.200714 102.019997,176.422043 
M117.836929,212.181885 
	C117.836929,208.268753 117.836929,204.355621 117.836929,200.356888 
	C111.855301,200.356888 106.651924,200.356888 101.317841,200.356888 
	C101.317841,205.925232 101.317841,211.128891 101.317841,216.853851 
	C106.079216,216.853851 110.537567,217.091965 114.935608,216.682465 
	C116.003494,216.583023 116.872803,214.350937 117.836929,212.181885 
M106.618164,146.852936 
	C109.270546,146.848404 111.954330,147.079056 114.560875,146.731171 
	C115.709236,146.577896 117.564560,145.304016 117.619629,144.444168 
	C117.921104,139.736511 117.763313,134.999435 117.763313,130.391632 
	C111.724152,130.391632 106.517143,130.391632 101.195854,130.391632 
	C101.195854,135.901169 101.195854,140.991714 101.195854,146.496597 
	C102.809700,146.624603 104.242271,146.738205 106.618164,146.852936 
M65.377777,199.996017 
	C61.802635,199.996017 58.227489,199.996017 54.173683,199.996017 
	C54.173683,205.148560 54.007915,209.588547 54.299149,213.998367 
	C54.365604,215.004639 55.961643,216.664444 56.937115,216.727234 
	C61.477955,217.019470 66.048088,216.856674 70.757324,216.856674 
	C70.757324,210.965363 70.757324,205.886734 70.757324,200.375549 
	C69.170227,200.239822 67.749565,200.118332 65.377777,199.996017 
M111.337311,153.038086 
	C108.076180,153.038086 104.815056,153.038086 101.408051,153.038086 
	C101.408051,158.968262 101.408051,164.284744 101.408051,169.950912 
	C103.464272,169.950912 105.100060,169.977448 106.734779,169.946716 
	C119.639572,169.704193 117.480858,172.060638 117.915779,158.557724 
	C118.057083,154.170959 116.632317,152.358994 111.337311,153.038086 
M117.947769,306.140717 
	C117.949203,305.807526 117.956902,305.474243 117.951172,305.141205 
	C117.708786,291.043213 120.106758,293.342926 105.801476,292.963837 
	C102.186111,292.868042 100.882446,293.796417 100.884064,297.658936 
	C100.889694,311.054291 100.759148,311.140808 114.093498,309.856354 
	C115.446335,309.726013 116.647820,308.024414 117.947769,306.140717 
M68.222931,123.014999 
	C69.098145,122.471527 70.701317,121.966309 70.732201,121.378479 
	C70.958061,117.079964 72.101486,112.256432 70.584045,108.576363 
	C68.408257,103.299683 62.691181,107.046799 58.605518,106.353714 
	C57.315907,106.134956 54.509575,107.844131 54.402557,108.878433 
	C53.933727,113.409386 54.200611,118.016472 54.200611,123.024254 
	C59.039295,123.024254 63.158798,123.024254 68.222931,123.014999 
M57.888165,176.164673 
	C56.650059,177.141571 54.443737,178.028793 54.343491,179.111084 
	C53.935791,183.512802 54.173855,187.974335 54.173855,192.715210 
	C59.959572,192.715210 65.160728,192.715210 70.649963,192.715210 
	C70.767517,191.162674 70.930511,189.879028 70.951874,188.593018 
	C71.158379,176.164383 71.151581,176.164276 57.888165,176.164673 
M79.843178,309.858856 
	C84.429176,309.858856 89.015175,309.858856 93.630920,309.858856 
	C93.630920,303.941071 93.630920,298.737640 93.630920,293.116608 
	C89.104980,293.116608 84.972481,292.992828 80.857353,293.205444 
	C79.855385,293.257202 78.062607,294.429901 78.074127,295.060883 
	C78.162994,299.929962 78.606308,304.792572 79.843178,309.858856 
M93.688728,286.018219 
	C93.688728,280.784790 93.688728,275.551392 93.688728,270.359131 
	C88.244392,270.359131 83.327095,270.359131 78.259857,270.359131 
	C78.259857,275.925262 78.259857,281.137238 78.259857,286.614777 
	C83.427185,286.614777 88.212479,286.614777 93.688728,286.018219 
M77.880547,184.512558 
	C77.880547,187.246964 77.880547,189.981354 77.880547,192.676544 
	C83.727440,192.676544 88.634972,192.676544 93.668457,192.676544 
	C93.668457,187.114944 93.668457,181.905472 93.668457,176.176895 
	C90.685738,176.176895 88.061844,176.159210 85.438255,176.180130 
	C76.919174,176.248093 77.985062,175.279556 77.880547,184.512558 
M101.876678,247.167694 
	C101.488365,252.311295 101.100052,257.454895 100.711510,262.601532 
	C106.992729,262.601532 112.204483,262.601532 117.478119,262.601532 
	C117.478119,257.259705 117.478119,252.351501 117.478119,246.938416 
	C112.359428,246.938416 107.575790,246.938416 101.876678,247.167694 
M94.028038,157.662109 
	C93.906525,156.243256 93.785011,154.824402 93.672310,153.508484 
	C88.203804,153.508484 83.199051,153.508484 78.315041,153.508484 
	C78.315041,159.170685 78.315041,164.361771 78.315041,169.652924 
	C83.639053,169.652924 88.524345,169.652924 94.029800,169.652924 
	C94.029800,165.796432 94.029800,162.208237 94.028038,157.662109 
M59.627384,246.871414 
	C57.661594,247.351196 54.439117,245.478653 54.241146,249.329346 
	C54.014465,253.738419 54.188606,258.168091 54.188606,262.641846 
	C60.128494,262.641846 65.333313,262.641846 70.662827,262.641846 
	C70.662827,257.345612 70.662827,252.443039 70.662827,246.871719 
	C67.123405,246.871719 63.853596,246.871719 59.627384,246.871414 
M94.021675,132.770172 
	C93.145912,131.844635 92.381813,130.264465 91.377396,130.093109 
	C79.036064,127.987877 77.884247,129.011932 77.940208,141.422668 
	C77.943962,142.254105 77.635147,143.287582 78.015724,143.874100 
	C78.763298,145.026199 79.792519,146.673996 80.881638,146.822464 
	C93.601578,148.556396 94.037140,148.128860 94.035362,135.711349 
	C94.035263,135.046188 94.034035,134.381012 94.021675,132.770172 
M93.052177,223.360016 
	C88.156319,223.360016 83.260452,223.360016 78.215485,223.360016 
	C78.215485,229.048767 78.215485,234.246689 78.215485,239.625702 
	C83.574097,239.625702 88.587227,239.625702 93.722809,239.625702 
	C93.722809,234.168854 93.722809,229.077469 93.052177,223.360016 
M87.437752,216.958237 
	C94.028297,216.935211 94.028496,216.935211 94.035194,210.626678 
	C94.036430,209.462753 94.042488,208.298767 94.034256,207.134903 
	C93.977394,199.095459 94.781860,199.948608 86.776619,199.999649 
	C76.619057,200.064438 77.980705,198.548767 77.973251,208.564438 
	C77.966049,218.245209 76.654770,216.813278 87.437752,216.958237 
M94.011726,109.724205 
	C93.675407,108.854439 93.369499,107.242844 92.998154,107.227615 
	C88.390381,107.038727 83.771782,107.031403 79.160446,107.150436 
	C78.736816,107.161377 78.005928,108.352974 77.991035,109.009338 
	C77.887878,113.556618 77.936661,118.107353 77.936661,122.718704 
	C83.646179,122.718704 88.536415,122.718704 94.021278,122.718704 
	C94.021278,118.526421 94.021278,114.603477 94.011726,109.724205 
M90.291901,246.943497 
	C87.146149,246.946915 83.987434,246.791351 80.862175,247.046112 
	C79.864906,247.127411 78.186440,248.244034 78.135605,248.978058 
	C77.861794,252.931778 77.669952,256.962738 78.237709,260.851990 
	C78.376434,261.802246 81.605904,263.131683 83.182938,262.873535 
	C86.774704,262.285461 91.865402,265.691986 93.713341,260.889893 
	C95.045029,257.429352 94.117378,253.034882 93.851967,249.080154 
	C93.800705,248.316452 92.148499,247.660187 90.291901,246.943497 
z"/>
<path fill="#ED9F01" opacity="1.000000" stroke="none" 
	d="
M128.414917,354.485809 
	C127.972000,269.213715 127.982384,184.077118 128.466919,98.465294 
	C137.704300,97.988022 146.471359,98.135712 155.228897,97.911522 
	C158.818756,97.819618 160.333740,98.738419 160.093643,102.589638 
	C159.795914,107.365028 160.047119,112.174637 160.040710,117.402161 
	C160.033539,119.564285 160.046875,121.293709 160.046753,123.439880 
	C160.057922,124.967789 160.082565,126.078949 160.087311,127.637703 
	C160.078720,132.679688 160.090042,137.274078 160.079498,142.292740 
	C160.060181,144.132401 160.062759,145.547806 160.044128,147.396942 
	C160.035156,149.563736 160.047394,151.296753 160.047379,153.449524 
	C160.062286,154.988129 160.089447,156.107025 160.095886,157.671478 
	C160.075821,162.732697 160.076462,167.348358 160.062927,172.365387 
	C160.051483,173.837524 160.054199,174.908279 160.039093,176.419479 
	C160.036438,178.916962 160.051575,180.973999 160.052780,183.435303 
	C160.042099,185.187698 160.045334,186.535828 160.042755,188.361526 
	C160.036942,193.082184 160.036942,197.325287 160.036942,201.880981 
	C184.160736,201.880981 207.519623,201.880981 230.627411,202.207489 
	C228.580551,202.678955 226.784973,202.947281 224.988998,202.949966 
	C204.948654,202.979919 184.908203,202.948563 164.867935,202.999146 
	C162.786407,203.004395 159.796509,201.975174 160.045959,206.410248 
	C160.039749,208.911682 160.054245,210.971680 160.056976,213.452759 
	C159.729904,217.760788 162.565399,217.020462 164.778244,217.023041 
	C184.778015,217.046310 204.777908,217.015244 224.777542,217.073242 
	C226.536880,217.078339 228.294708,217.602890 229.581299,217.929337 
	C206.233490,217.972488 183.357605,217.972488 160.060654,217.972488 
	C160.060654,223.196213 160.060654,227.653915 160.058228,232.497467 
	C160.059921,233.911850 160.064056,234.940369 160.046631,236.409882 
	C160.034317,238.904327 160.043549,240.957779 160.040787,243.415680 
	C160.047562,244.898758 160.066330,245.977386 160.065674,247.517212 
	C160.062775,252.591980 160.079300,257.205536 160.073639,262.233887 
	C160.053909,263.756317 160.056351,264.863892 160.040146,266.404297 
	C160.036087,268.569611 160.050690,270.302155 160.054443,272.455688 
	C159.729446,276.765076 162.567596,276.021332 164.778564,276.023956 
	C184.778183,276.047852 204.777893,276.015869 224.777359,276.076416 
	C226.529449,276.081726 228.279892,276.628784 229.560516,276.960693 
	C206.218719,276.997162 183.347519,276.997162 160.167389,276.997162 
	C160.167389,282.406494 160.167389,287.029572 160.125702,292.083435 
	C160.078476,293.666321 160.072968,294.818420 160.049194,296.440674 
	C160.018616,316.059113 160.006271,335.207428 159.993942,354.355713 
	C149.618698,354.444244 139.243439,354.532776 128.414917,354.485809 
z"/>
<path fill="#BF7A00" opacity="1.000000" stroke="none" 
	d="
M160.061203,116.969467 
	C160.047119,112.174637 159.795914,107.365028 160.093643,102.589638 
	C160.333740,98.738419 158.818756,97.819618 155.228897,97.911522 
	C146.471359,98.135712 137.704300,97.988022 128.473007,97.996902 
	C116.174751,97.982498 104.344574,97.961250 92.010590,97.903397 
	C91.506775,76.441483 91.506775,55.016186 91.506775,33.149982 
	C122.549973,33.149982 152.815598,33.149982 183.537247,33.697540 
	C184.000504,61.830688 184.007751,89.416275 183.544662,117.002693 
	C175.403290,116.992172 167.732254,116.980820 160.061203,116.969467 
M115.578995,59.013409 
	C125.995544,59.013416 125.995544,59.013416 125.988083,48.569790 
	C125.987968,48.403999 125.964531,48.234268 125.991501,48.072987 
	C126.771591,43.408230 125.056061,41.760582 120.130974,41.912495 
	C108.978676,42.256489 109.168808,42.006443 108.904205,53.234989 
	C108.799438,57.680492 109.904655,59.854523 115.578995,59.013409 
M132.163177,47.738991 
	C132.163177,51.334652 132.163177,54.930313 132.163177,58.712547 
	C138.065796,58.712547 143.274200,58.712547 148.732666,58.712547 
	C148.732666,53.179211 148.732666,47.972511 148.732666,42.150700 
	C144.506287,42.150700 140.559174,42.319084 136.633530,42.101055 
	C133.053833,41.902237 131.778320,43.467857 132.163177,47.738991 
M162.562744,59.030491 
	C165.646774,59.030491 168.730789,59.030491 171.850159,59.030491 
	C171.850159,53.060543 171.850159,47.956203 171.850159,42.527374 
	C166.535370,42.527374 161.497742,42.527374 156.349854,42.527374 
	C156.349854,48.124393 156.349854,53.347385 156.349854,59.030586 
	C158.338943,59.030586 159.973480,59.030586 162.562744,59.030491 
M149.023300,77.341034 
	C149.018799,74.517822 149.239792,71.666550 148.893646,68.885864 
	C148.763641,67.841331 147.441666,66.291389 146.451599,66.106895 
	C133.935928,63.774696 131.282211,66.099525 132.035950,78.411224 
	C132.076385,79.071930 131.989075,79.786613 132.218460,80.376083 
	C132.430527,80.921028 132.981247,81.732544 133.394943,81.739838 
	C138.192230,81.824448 142.997086,81.875656 147.782532,81.615334 
	C148.254562,81.589661 148.611282,79.444130 149.023300,77.341034 
M109.035530,74.478867 
	C109.035530,76.897034 109.035530,79.315193 109.035530,81.618759 
	C115.118011,81.618759 120.347977,81.618759 125.582367,81.618759 
	C125.582367,76.276321 125.582367,71.364075 125.582367,66.311310 
	C119.996689,66.311310 114.767677,66.311310 109.035789,66.311310 
	C109.035789,68.935478 109.035789,71.229279 109.035530,74.478867 
M155.992767,69.709152 
	C155.992767,73.649384 155.992767,77.589607 155.992767,81.630951 
	C161.685760,81.630951 166.720779,81.630951 171.773163,81.630951 
	C171.773163,76.310196 171.773163,71.405090 171.773163,65.999306 
	C167.148834,65.999306 162.851089,65.841591 158.582611,66.124924 
	C157.667374,66.185669 156.858124,67.843140 155.992767,69.709152 
z"/>
<path fill="#D99303" opacity="1.000000" stroke="none" 
	d="
M184.014984,117.001862 
	C184.007751,89.416275 184.000504,61.830688 183.995026,33.800556 
	C195.901611,33.356010 207.806442,33.356010 220.400085,33.356010 
	C220.400085,61.395229 220.400085,89.094315 220.024643,117.319099 
	C210.197296,117.895714 200.744919,118.015442 191.293808,117.950218 
	C188.865479,117.933464 186.441147,117.333763 184.014984,117.001862 
z"/>
<path fill="#B04400" opacity="1.000000" stroke="none" 
	d="
M209.767990,354.600800 
	C196.839066,354.625000 183.910156,354.649231 170.523804,354.111969 
	C170.055710,338.618439 170.144730,323.685181 169.962173,308.755249 
	C169.918213,305.161499 170.793945,303.783173 174.650269,303.866089 
	C186.424683,304.119263 198.207199,303.996002 209.980286,304.485901 
	C209.905334,321.501953 209.836655,338.051392 209.767990,354.600800 
z"/>
<path fill="#D18400" opacity="1.000000" stroke="none" 
	d="
M209.986557,304.019226 
	C198.207199,303.996002 186.424683,304.119263 174.650269,303.866089 
	C170.793945,303.783173 169.918213,305.161499 169.962173,308.755249 
	C170.144730,323.685181 170.055710,338.618439 170.079865,353.978363 
	C167.019608,354.484192 163.945847,354.562134 160.433014,354.497925 
	C160.006271,335.207428 160.018616,316.059113 160.510254,296.450562 
	C184.365906,296.013214 207.742218,296.036102 231.049164,296.519653 
	C231.018295,305.476318 231.056778,313.972290 231.095276,322.468292 
	C231.095276,333.010345 231.095276,343.552429 231.095276,354.646454 
	C226.986542,354.646454 223.567017,354.646454 219.646988,354.128418 
	C219.146469,337.202118 219.146469,320.793854 219.146469,304.019226 
	C215.567276,304.019226 212.776917,304.019226 209.986557,304.019226 
z"/>
<path fill="#02B12D" opacity="1.000000" stroke="none" 
	d="
M256.977173,274.287659 
	C271.674774,275.838776 281.303101,285.176819 283.536407,300.979156 
	C278.738800,318.534668 262.137054,322.947205 249.713898,316.325043 
	C241.998489,312.212341 237.659027,303.117462 240.322479,296.147736 
	C241.428375,296.026459 242.170746,295.987366 243.098083,295.926147 
	C243.381531,295.830994 243.569199,295.748199 243.562454,295.686676 
	C243.538101,295.464386 243.448380,295.249237 243.327637,294.584351 
	C243.321335,291.735382 243.370728,289.333496 243.617477,286.645752 
	C245.382690,283.646698 246.456467,280.395996 248.658066,278.372101 
	C250.839325,276.366882 254.157593,275.598511 256.977173,274.287659 
z"/>
<path fill="#05B12D" opacity="1.000000" stroke="none" 
	d="
M54.219673,327.010193 
	C53.404793,326.953735 52.589909,326.897278 50.917458,326.837341 
	C46.341644,326.891296 42.623398,326.948730 38.905151,327.006195 
	C38.471565,326.932587 38.037979,326.858978 37.292259,326.239685 
	C38.176041,314.399719 39.399212,303.108215 40.560196,291.810272 
	C41.721329,280.510864 42.820282,269.205048 43.946491,257.902039 
	C43.946491,257.902039 43.982319,257.968414 44.227112,257.826294 
	C44.698288,257.329193 44.924679,256.974243 45.151062,256.619293 
	C47.898411,263.398468 50.645767,270.177673 53.677338,277.570160 
	C55.054970,281.062408 56.148396,283.941345 57.241821,286.820282 
	C57.923954,288.770447 58.606087,290.720642 59.538765,293.312256 
	C61.854134,299.298187 63.918961,304.642670 65.983795,309.987122 
	C66.638840,311.856018 67.293892,313.724915 68.182182,316.224915 
	C69.481285,320.045990 70.547157,323.236023 71.808220,327.010223 
	C65.461906,327.010223 59.840790,327.010223 54.219673,327.010193 
z"/>
<path fill="#039522" opacity="1.000000" stroke="none" 
	d="
M239.958939,296.229858 
	C237.659027,303.117462 241.998489,312.212341 249.713898,316.325043 
	C262.137054,322.947205 278.738800,318.534668 283.450775,301.366150 
	C285.025085,316.188232 276.731781,327.795380 260.334290,332.739014 
	C255.791321,332.885132 252.028671,332.908508 248.266006,332.931854 
	C242.736542,329.576324 237.207092,326.220764 231.386459,322.666748 
	C231.056778,313.972290 231.018295,305.476318 231.490356,296.505554 
	C234.653580,296.097168 237.306259,296.163513 239.958939,296.229858 
z"/>
<path fill="#E16C00" opacity="1.000000" stroke="none" 
	d="
M160.107208,127.190109 
	C160.082565,126.078949 160.057922,124.967789 160.508667,123.431931 
	C184.375793,122.983894 207.767548,122.960548 231.159286,122.937210 
	C234.951355,122.937210 238.743423,122.937210 242.841812,122.937210 
	C242.841812,130.912933 242.841812,138.467667 242.841812,146.688080 
	C239.098190,146.688080 235.475647,146.688080 231.104736,146.610931 
	C228.713104,146.686737 227.069992,146.971268 225.426605,146.972778 
	C203.639542,146.992783 181.852417,146.973022 160.065323,146.963196 
	C160.062759,145.547806 160.060181,144.132401 160.536560,142.326752 
	C184.254929,141.908737 207.494385,141.880981 231.205505,141.902359 
	C240.369049,142.125534 238.832153,142.155365 238.974609,134.977951 
	C238.997543,133.822617 238.858612,132.651642 239.000061,131.513428 
	C239.422592,128.113434 238.145538,126.520805 234.597092,127.000694 
	C233.294434,127.176857 231.964203,127.149284 230.201996,127.177460 
	C206.540695,127.156891 183.323944,127.173500 160.107208,127.190109 
z"/>
<path fill="#E06A00" opacity="1.000000" stroke="none" 
	d="
M240.322479,296.147705 
	C237.306259,296.163513 234.653580,296.097168 231.559723,296.044891 
	C207.742218,296.036102 184.365906,296.013214 160.528519,295.980408 
	C160.072968,294.818420 160.078476,293.666321 160.574326,292.140472 
	C183.964890,291.774414 206.865112,291.782135 230.226410,291.853210 
	C239.503311,292.065216 241.332336,288.507507 238.053879,277.078156 
	C235.701477,277.078156 233.245331,277.078156 230.596497,277.055237 
	C230.403809,277.032349 230.031097,276.924225 230.031097,276.924225 
	C228.279892,276.628784 226.529449,276.081726 224.777359,276.076416 
	C204.777893,276.015869 184.778183,276.047852 164.778564,276.023956 
	C162.567596,276.021332 159.729446,276.765076 160.515778,272.446289 
	C184.313492,272.044769 207.639038,272.073730 230.964569,272.102661 
	C234.039734,272.172150 237.145721,272.015991 240.173920,272.429413 
	C241.282486,272.580780 242.206619,274.083008 243.199646,275.821228 
	C243.262985,280.092865 243.341568,283.512207 243.420135,286.931580 
	C243.370728,289.333496 243.321335,291.735382 243.177887,294.796936 
	C243.026932,295.620483 242.970016,295.784363 242.913116,295.948273 
	C242.170746,295.987366 241.428375,296.026459 240.322479,296.147705 
z"/>
<path fill="#E16700" opacity="1.000000" stroke="none" 
	d="
M160.068192,235.968887 
	C160.064056,234.940369 160.059921,233.911850 160.519485,232.521271 
	C183.998505,232.190430 207.013824,232.221649 230.344559,232.475540 
	C239.471832,233.425430 241.326645,229.903671 238.071609,218.054153 
	C235.725998,218.054153 233.273926,218.054153 230.626907,218.024933 
	C230.431961,217.995728 230.053238,217.886185 230.053238,217.886185 
	C228.294708,217.602890 226.536880,217.078339 224.777542,217.073242 
	C204.777908,217.015244 184.778015,217.046310 164.778244,217.023041 
	C162.565399,217.020462 159.729904,217.760788 160.517914,213.441345 
	C184.415466,212.961975 207.840363,212.915054 231.265244,212.868134 
	C235.050705,212.868134 238.836182,212.868134 242.882751,212.868134 
	C242.882751,220.628922 242.882751,228.036667 242.882751,236.202225 
	C239.334229,236.202225 235.759811,236.202225 231.252869,236.126617 
	C206.902969,236.023651 183.485580,235.996277 160.068192,235.968887 
z"/>
<path fill="#E26C00" opacity="1.000000" stroke="none" 
	d="
M160.058792,265.971497 
	C160.056351,264.863892 160.053909,263.756317 160.531494,262.269043 
	C184.223938,261.854584 207.436325,261.819824 231.126831,261.848145 
	C238.976120,262.073700 239.071426,262.072083 238.952957,255.068115 
	C238.811707,246.717911 240.914673,246.775375 230.341156,247.049698 
	C206.619141,247.031540 183.352112,247.043762 160.085098,247.056000 
	C160.066330,245.977386 160.047562,244.898758 160.503540,243.409149 
	C184.451447,242.939804 207.924591,242.881454 231.397751,242.823090 
	C235.157715,242.823090 238.917679,242.823090 242.912598,242.823090 
	C242.912598,250.588211 242.912598,257.976593 242.912598,266.066559 
	C239.241730,266.066559 235.660461,266.066559 231.145996,266.045044 
	C206.828125,266.006165 183.443451,265.988831 160.058792,265.971497 
z"/>
<path fill="#E16800" opacity="1.000000" stroke="none" 
	d="
M160.066666,205.968811 
	C159.796509,201.975174 162.786407,203.004395 164.867935,202.999146 
	C184.908203,202.948563 204.948654,202.979919 224.988998,202.949966 
	C226.784973,202.947281 228.580551,202.678955 230.640961,202.221329 
	C230.905594,201.908646 230.900284,201.928528 231.357880,201.963379 
	C234.119705,201.611160 238.337524,201.454636 238.416458,200.799454 
	C238.915405,196.657959 238.902328,192.316498 238.009216,188.272751 
	C237.848022,187.542831 232.825760,187.886536 229.576630,187.743286 
	C206.086548,187.795975 183.067566,187.839981 160.048584,187.883972 
	C160.045334,186.535828 160.042099,185.187698 160.513947,183.424042 
	C184.409210,182.964844 207.829407,182.921158 231.249588,182.877472 
	C235.037811,182.877472 238.826035,182.877472 242.879471,182.877472 
	C242.879471,190.647369 242.879471,198.056320 242.879471,206.177368 
	C239.308502,206.177368 235.722687,206.177368 231.204834,206.110596 
	C206.870758,206.018829 183.468719,205.993820 160.066666,205.968811 
z"/>
<path fill="#E16900" opacity="1.000000" stroke="none" 
	d="
M160.056900,175.979034 
	C160.054199,174.908279 160.051483,173.837524 160.522842,172.388077 
	C184.264435,171.973740 207.531937,171.938095 231.265900,171.939301 
	C240.173157,172.081604 238.860580,172.373001 238.977127,164.966644 
	C238.995270,163.813797 238.860550,162.645706 239.001251,161.510040 
	C239.420990,158.122055 238.155014,156.524017 234.611221,157.004974 
	C233.311600,157.181366 231.985199,157.160233 230.224762,157.195282 
	C206.557861,157.182892 183.337234,157.204407 160.116592,157.225922 
	C160.089447,156.107025 160.062286,154.988129 160.509338,153.439117 
	C184.369186,152.983521 207.754822,152.958038 231.140472,152.932571 
	C234.936127,152.932571 238.731781,152.932571 242.839645,152.932571 
	C242.839645,160.812119 242.839645,168.351242 242.839645,176.360611 
	C239.216553,176.360611 235.768860,176.360611 231.392044,176.222961 
	C206.994247,176.049896 183.525574,176.014465 160.056900,175.979034 
z"/>
<path fill="#059623" opacity="1.000000" stroke="none" 
	d="
M43.690399,258.149719 
	C42.820282,269.205048 41.721329,280.510864 40.560196,291.810272 
	C39.399212,303.108215 38.176041,314.399719 36.981544,326.127991 
	C30.838852,326.561890 24.694744,326.561890 17.867081,326.561890 
	C26.437269,303.713013 34.935787,281.055237 43.690399,258.149719 
z"/>
<path fill="#D38301" opacity="1.000000" stroke="none" 
	d="
M160.039093,176.419479 
	C183.525574,176.014465 206.994247,176.049896 230.960831,176.142609 
	C231.318161,178.151199 231.177597,180.102509 231.143311,182.465637 
	C207.829407,182.921158 184.409210,182.964844 160.527863,183.019775 
	C160.051575,180.973999 160.036438,178.916962 160.039093,176.419479 
z"/>
<path fill="#D38301" opacity="1.000000" stroke="none" 
	d="
M231.256500,242.421936 
	C207.924591,242.881454 184.451447,242.939804 160.515533,243.004700 
	C160.043549,240.957779 160.034317,238.904327 160.046631,236.409882 
	C183.485580,235.996277 206.902969,236.023651 230.807281,236.091568 
	C231.234543,238.095001 231.174896,240.057892 231.256500,242.421936 
z"/>
<path fill="#D38301" opacity="1.000000" stroke="none" 
	d="
M160.045959,206.410248 
	C183.468719,205.993820 206.870758,206.018829 230.755371,206.082397 
	C231.172333,208.095840 231.106750,210.070740 231.153198,212.456879 
	C207.840363,212.915054 184.415466,212.961975 160.529663,213.020294 
	C160.054245,210.971680 160.039749,208.911682 160.045959,206.410248 
z"/>
<path fill="#ECBA6C" opacity="1.000000" stroke="none" 
	d="
M209.980286,304.485901 
	C212.776917,304.019226 215.567276,304.019226 219.146469,304.019226 
	C219.146469,320.793854 219.146469,337.202118 219.214828,354.035400 
	C216.424576,354.551910 213.565964,354.643402 210.237671,354.667847 
	C209.836655,338.051392 209.905334,321.501953 209.980286,304.485901 
z"/>
<path fill="#D38504" opacity="1.000000" stroke="none" 
	d="
M160.040146,266.404297 
	C183.443451,265.988831 206.828125,266.006165 230.692719,266.046753 
	C231.075302,267.793152 230.977966,269.516296 230.922607,271.671082 
	C207.639038,272.073730 184.313492,272.044769 160.526627,272.025238 
	C160.050690,270.302155 160.036087,268.569611 160.040146,266.404297 
z"/>
<path fill="#D38604" opacity="1.000000" stroke="none" 
	d="
M231.054520,152.506866 
	C207.754822,152.958038 184.369186,152.983521 160.521576,153.019379 
	C160.047394,151.296753 160.035156,149.563736 160.044128,147.396942 
	C181.852417,146.973022 203.639542,146.992783 225.426605,146.972778 
	C227.069992,146.971268 228.713104,146.686737 230.653168,146.697372 
	C230.956161,148.601028 230.962372,150.341095 231.054520,152.506866 
z"/>
<path fill="#D18401" opacity="1.000000" stroke="none" 
	d="
M231.063919,122.506088 
	C207.767548,122.960548 184.375793,122.983894 160.522141,123.015182 
	C160.046875,121.293709 160.033539,119.564285 160.040710,117.402161 
	C167.732254,116.980820 175.403290,116.992172 183.544662,117.002693 
	C186.441147,117.333763 188.865479,117.933464 191.293808,117.950218 
	C200.744919,118.015442 210.197296,117.895714 220.164215,117.743187 
	C223.815338,117.641579 226.951447,117.641579 230.481003,117.641579 
	C230.657990,119.251015 230.813278,120.662987 231.063919,122.506088 
z"/>
<path fill="#BC6400" opacity="1.000000" stroke="none" 
	d="
M38.914749,327.474731 
	C42.623398,326.948730 46.341644,326.891296 50.513313,326.907928 
	C50.977745,335.660492 50.988750,344.338989 50.724724,353.559326 
	C49.955853,354.368683 49.462013,354.636169 48.968170,354.903625 
	C45.827087,354.903625 42.686008,354.903625 38.924343,354.903625 
	C38.924343,345.807098 38.924343,336.875183 38.914749,327.474731 
z"/>
<path fill="#BD6B0A" opacity="1.000000" stroke="none" 
	d="
M248.260727,333.404053 
	C252.028671,332.908508 255.791321,332.885132 259.970947,332.884338 
	C260.387878,340.132080 260.387878,347.357269 260.387878,354.659210 
	C256.185944,354.659210 252.589523,354.659210 248.255447,354.659210 
	C248.255447,347.625793 248.255447,340.751007 248.260727,333.404053 
z"/>
<path fill="#279C2A" opacity="1.000000" stroke="none" 
	d="
M243.617477,286.645752 
	C243.341568,283.512207 243.262985,280.092865 243.258545,276.290710 
	C247.593002,275.282928 251.853317,274.657959 256.545410,274.160339 
	C254.157593,275.598511 250.839325,276.366882 248.658066,278.372101 
	C246.456467,280.395996 245.382690,283.646698 243.617477,286.645752 
z"/>
<path fill="#ECBA6C" opacity="1.000000" stroke="none" 
	d="
M49.335823,354.967957 
	C49.462013,354.636169 49.955853,354.368683 50.730949,354.024719 
	C51.012207,353.948273 51.100311,354.328888 51.121353,354.523041 
	C50.662754,354.822205 50.183109,354.927246 49.335823,354.967957 
z"/>
<path fill="#059623" opacity="1.000000" stroke="none" 
	d="
M45.107544,256.319366 
	C44.924679,256.974243 44.698288,257.329193 44.189701,257.831116 
	C44.078369,257.295319 44.249241,256.612579 44.675529,255.678955 
	C44.975304,255.625198 45.019661,255.822311 45.107544,256.319366 
z"/>
<path fill="#F2BF6E" opacity="1.000000" stroke="none" 
	d="
M54.199753,327.470215 
	C59.840790,327.010223 65.461906,327.010223 71.808220,327.010223 
	C70.547157,323.236023 69.481285,320.045990 68.413872,316.450195 
	C83.704987,315.986298 98.997917,315.961060 114.290047,315.837311 
	C116.805954,315.816956 117.911308,316.647125 117.859207,319.274017 
	C117.747131,324.924347 118.038925,330.592621 117.665138,336.220306 
	C117.580643,337.492432 115.465294,339.659485 114.264336,339.673584 
	C95.480331,339.894318 76.692886,339.804871 57.906429,339.855591 
	C55.087067,339.863251 54.033329,338.606415 54.139103,335.909424 
	C54.243275,333.253235 54.173363,330.590240 54.199753,327.470215 
z"/>
<path fill="#B14700" opacity="1.000000" stroke="none" 
	d="
M70.799202,168.584290 
	C65.806763,169.327118 60.938141,169.698547 56.062836,169.840210 
	C55.431107,169.858582 54.615002,168.780899 54.167282,168.039932 
	C53.868164,167.544922 54.075287,166.746750 54.047535,166.084595 
	C53.476135,152.451904 54.157143,151.740341 67.764297,153.144028 
	C68.930229,153.264297 70.728317,155.070724 70.835129,156.223389 
	C71.200356,160.164963 70.941643,164.164352 70.799202,168.584290 
z"/>
<path fill="#F1BE6C" opacity="1.000000" stroke="none" 
	d="
M54.152870,235.787033 
	C54.144512,222.909103 54.144627,222.901978 66.460129,223.097031 
	C67.747871,223.117432 69.033295,223.284363 70.962410,223.432724 
	C70.962410,226.236633 70.962410,228.830719 70.962410,231.424805 
	C70.962410,234.043304 70.962410,236.661804 70.962410,239.995483 
	C65.929924,239.995483 61.337254,240.208862 56.794945,239.825531 
	C55.821037,239.743317 55.029453,237.500717 54.152870,235.787033 
z"/>
<path fill="#F1BE6D" opacity="1.000000" stroke="none" 
	d="
M102.428894,286.720154 
	C101.524063,281.319855 101.065041,276.022400 100.572479,270.337799 
	C106.701851,270.337799 111.904663,270.337799 117.787292,270.337799 
	C117.787292,275.076416 117.982948,279.672180 117.629654,284.225372 
	C117.554955,285.188110 115.526619,286.649689 114.304024,286.751892 
	C110.518700,287.068237 106.687874,286.839844 102.428894,286.720154 
z"/>
<path fill="#F2C070" opacity="1.000000" stroke="none" 
	d="
M101.189789,107.468124 
	C106.044281,106.780563 110.762810,106.398483 115.481186,106.400337 
	C116.253967,106.400635 117.642265,108.058922 117.693253,109.007500 
	C117.930763,113.426758 117.798508,117.865898 117.798508,122.651474 
	C112.117424,122.651474 106.927544,122.651474 101.053772,122.651474 
	C101.053772,117.692451 101.053772,112.797028 101.189789,107.468124 
z"/>
<path fill="#F1BE6C" opacity="1.000000" stroke="none" 
	d="
M62.984184,129.971603 
	C65.740822,129.971664 68.015694,129.971664 70.624016,129.971664 
	C70.624016,135.691101 70.624016,140.886658 70.624016,146.812988 
	C65.943932,146.812988 61.368572,146.975952 56.823185,146.679459 
	C55.881374,146.618011 54.356285,144.894730 54.289684,143.860733 
	C54.006001,139.456558 54.169079,135.023621 54.169079,129.971542 
	C57.323029,129.971542 59.912727,129.971542 62.984184,129.971603 
z"/>
<path fill="#F2BF6E" opacity="1.000000" stroke="none" 
	d="
M117.761124,225.535339 
	C117.814346,230.430466 117.814346,234.875244 117.814346,239.655487 
	C112.078476,239.655487 106.872002,239.655487 101.321037,239.655487 
	C101.321037,234.290436 101.321037,229.071472 101.321037,223.188675 
	C106.154869,223.188675 110.906456,223.110779 115.649818,223.273224 
	C116.355690,223.297394 117.022835,224.452881 117.761124,225.535339 
z"/>
<path fill="#F1BE6C" opacity="1.000000" stroke="none" 
	d="
M102.465256,176.320923 
	C106.390266,176.200714 109.875275,176.292953 113.348213,176.129150 
	C116.419182,175.984329 118.023964,176.946548 117.875450,180.324661 
	C117.702103,184.267944 117.834953,188.224701 117.834953,192.600769 
	C112.233040,192.600769 107.037300,192.600769 100.654205,192.600769 
	C101.106880,187.238495 101.563438,181.830276 102.465256,176.320923 
z"/>
<path fill="#F1BE6D" opacity="1.000000" stroke="none" 
	d="
M117.835175,212.640686 
	C116.872803,214.350937 116.003494,216.583023 114.935608,216.682465 
	C110.537567,217.091965 106.079216,216.853851 101.317841,216.853851 
	C101.317841,211.128891 101.317841,205.925232 101.317841,200.356888 
	C106.651924,200.356888 111.855301,200.356888 117.836929,200.356888 
	C117.836929,204.355621 117.836929,208.268753 117.835175,212.640686 
z"/>
<path fill="#F1BE6D" opacity="1.000000" stroke="none" 
	d="
M106.146500,146.852386 
	C104.242271,146.738205 102.809700,146.624603 101.195854,146.496597 
	C101.195854,140.991714 101.195854,135.901169 101.195854,130.391632 
	C106.517143,130.391632 111.724152,130.391632 117.763313,130.391632 
	C117.763313,134.999435 117.921104,139.736511 117.619629,144.444168 
	C117.564560,145.304016 115.709236,146.577896 114.560875,146.731171 
	C111.954330,147.079056 109.270546,146.848404 106.146500,146.852386 
z"/>
<path fill="#F1BE6C" opacity="1.000000" stroke="none" 
	d="
M65.853333,199.996429 
	C67.749565,200.118332 69.170227,200.239822 70.757324,200.375549 
	C70.757324,205.886734 70.757324,210.965363 70.757324,216.856674 
	C66.048088,216.856674 61.477955,217.019470 56.937115,216.727234 
	C55.961643,216.664444 54.365604,215.004639 54.299149,213.998367 
	C54.007915,209.588547 54.173683,205.148560 54.173683,199.996017 
	C58.227489,199.996017 61.802635,199.996017 65.853333,199.996429 
z"/>
<path fill="#F2BF6E" opacity="1.000000" stroke="none" 
	d="
M111.808502,153.038086 
	C116.632317,152.358994 118.057083,154.170959 117.915779,158.557724 
	C117.480858,172.060638 119.639572,169.704193 106.734779,169.946716 
	C105.100060,169.977448 103.464272,169.950912 101.408051,169.950912 
	C101.408051,164.284744 101.408051,158.968262 101.408051,153.038086 
	C104.815056,153.038086 108.076180,153.038086 111.808502,153.038086 
z"/>
<path fill="#B24800" opacity="1.000000" stroke="none" 
	d="
M117.933655,306.596313 
	C116.647820,308.024414 115.446335,309.726013 114.093498,309.856354 
	C100.759148,311.140808 100.889694,311.054291 100.884064,297.658936 
	C100.882446,293.796417 102.186111,292.868042 105.801476,292.963837 
	C120.106758,293.342926 117.708786,291.043213 117.951172,305.141205 
	C117.956902,305.474243 117.949203,305.807526 117.933655,306.596313 
z"/>
<path fill="#F2BF6E" opacity="1.000000" stroke="none" 
	d="
M67.750618,123.019623 
	C63.158798,123.024254 59.039295,123.024254 54.200611,123.024254 
	C54.200611,118.016472 53.933727,113.409386 54.402557,108.878433 
	C54.509575,107.844131 57.315907,106.134956 58.605518,106.353714 
	C62.691181,107.046799 68.408257,103.299683 70.584045,108.576363 
	C72.101486,112.256432 70.958061,117.079964 70.732201,121.378479 
	C70.701317,121.966309 69.098145,122.471527 67.750618,123.019623 
z"/>
<path fill="#F1BE6C" opacity="1.000000" stroke="none" 
	d="
M58.346504,176.163544 
	C71.151581,176.164276 71.158379,176.164383 70.951874,188.593018 
	C70.930511,189.879028 70.767517,191.162674 70.649963,192.715210 
	C65.160728,192.715210 59.959572,192.715210 54.173855,192.715210 
	C54.173855,187.974335 53.935791,183.512802 54.343491,179.111084 
	C54.443737,178.028793 56.650059,177.141571 58.346504,176.163544 
z"/>
<path fill="#F0BE6D" opacity="1.000000" stroke="none" 
	d="
M57.692001,286.838135 
	C56.148396,283.941345 55.054970,281.062408 53.935005,277.849243 
	C54.085838,275.230927 54.263218,272.946838 54.465397,270.343384 
	C59.900200,270.343384 65.102211,270.343384 70.635124,270.343384 
	C70.635124,275.766998 70.635124,280.976959 70.635124,286.856018 
	C66.334991,286.856018 62.238586,286.856018 57.692001,286.838135 
z"/>
<path fill="#F2BF6F" opacity="1.000000" stroke="none" 
	d="
M79.391464,309.757996 
	C78.606308,304.792572 78.162994,299.929962 78.074127,295.060883 
	C78.062607,294.429901 79.855385,293.257202 80.857353,293.205444 
	C84.972481,292.992828 89.104980,293.116608 93.630920,293.116608 
	C93.630920,298.737640 93.630920,303.941071 93.630920,309.858856 
	C89.015175,309.858856 84.429176,309.858856 79.391464,309.757996 
z"/>
<path fill="#F2C070" opacity="1.000000" stroke="none" 
	d="
M93.343246,286.316498 
	C88.212479,286.614777 83.427185,286.614777 78.259857,286.614777 
	C78.259857,281.137238 78.259857,275.925262 78.259857,270.359131 
	C83.327095,270.359131 88.244392,270.359131 93.688728,270.359131 
	C93.688728,275.551392 93.688728,280.784790 93.343246,286.316498 
z"/>
<path fill="#F2C070" opacity="1.000000" stroke="none" 
	d="
M77.881111,184.030182 
	C77.985062,175.279556 76.919174,176.248093 85.438255,176.180130 
	C88.061844,176.159210 90.685738,176.176895 93.668457,176.176895 
	C93.668457,181.905472 93.668457,187.114944 93.668457,192.676544 
	C88.634972,192.676544 83.727440,192.676544 77.880547,192.676544 
	C77.880547,189.981354 77.880547,187.246964 77.881111,184.030182 
z"/>
<path fill="#F2C071" opacity="1.000000" stroke="none" 
	d="
M102.334412,247.053055 
	C107.575790,246.938416 112.359428,246.938416 117.478119,246.938416 
	C117.478119,252.351501 117.478119,257.259705 117.478119,262.601532 
	C112.204483,262.601532 106.992729,262.601532 100.711510,262.601532 
	C101.100052,257.454895 101.488365,252.311295 102.334412,247.053055 
z"/>
<path fill="#F2C071" opacity="1.000000" stroke="none" 
	d="
M94.028915,158.141083 
	C94.029800,162.208237 94.029800,165.796432 94.029800,169.652924 
	C88.524345,169.652924 83.639053,169.652924 78.315041,169.652924 
	C78.315041,164.361771 78.315041,159.170685 78.315041,153.508484 
	C83.199051,153.508484 88.203804,153.508484 93.672310,153.508484 
	C93.785011,154.824402 93.906525,156.243256 94.028915,158.141083 
z"/>
<path fill="#F2BF6E" opacity="1.000000" stroke="none" 
	d="
M60.105583,246.871567 
	C63.853596,246.871719 67.123405,246.871719 70.662827,246.871719 
	C70.662827,252.443039 70.662827,257.345612 70.662827,262.641846 
	C65.333313,262.641846 60.128494,262.641846 54.188606,262.641846 
	C54.188606,258.168091 54.014465,253.738419 54.241146,249.329346 
	C54.439117,245.478653 57.661594,247.351196 60.105583,246.871567 
z"/>
<path fill="#B14500" opacity="1.000000" stroke="none" 
	d="
M94.027504,133.243011 
	C94.034035,134.381012 94.035263,135.046188 94.035362,135.711349 
	C94.037140,148.128860 93.601578,148.556396 80.881638,146.822464 
	C79.792519,146.673996 78.763298,145.026199 78.015724,143.874100 
	C77.635147,143.287582 77.943962,142.254105 77.940208,141.422668 
	C77.884247,129.011932 79.036064,127.987877 91.377396,130.093109 
	C92.381813,130.264465 93.145912,131.844635 94.027504,133.243011 
z"/>
<path fill="#F2C071" opacity="1.000000" stroke="none" 
	d="
M93.387497,223.673050 
	C93.722809,229.077469 93.722809,234.168854 93.722809,239.625702 
	C88.587227,239.625702 83.574097,239.625702 78.215485,239.625702 
	C78.215485,234.246689 78.215485,229.048767 78.215485,223.360016 
	C83.260452,223.360016 88.156319,223.360016 93.387497,223.673050 
z"/>
<path fill="#B14500" opacity="1.000000" stroke="none" 
	d="
M86.956802,216.958237 
	C76.654770,216.813278 77.966049,218.245209 77.973251,208.564438 
	C77.980705,198.548767 76.619057,200.064438 86.776619,199.999649 
	C94.781860,199.948608 93.977394,199.095459 94.034256,207.134903 
	C94.042488,208.298767 94.036430,209.462753 94.035194,210.626678 
	C94.028496,216.935211 94.028297,216.935211 86.956802,216.958237 
z"/>
<path fill="#F3C173" opacity="1.000000" stroke="none" 
	d="
M94.016502,110.202362 
	C94.021278,114.603477 94.021278,118.526421 94.021278,122.718704 
	C88.536415,122.718704 83.646179,122.718704 77.936661,122.718704 
	C77.936661,118.107353 77.887878,113.556618 77.991035,109.009338 
	C78.005928,108.352974 78.736816,107.161377 79.160446,107.150436 
	C83.771782,107.031403 88.390381,107.038727 92.998154,107.227615 
	C93.369499,107.242844 93.675407,108.854439 94.016502,110.202362 
z"/>
<path fill="#B04400" opacity="1.000000" stroke="none" 
	d="
M90.763359,246.948929 
	C92.148499,247.660187 93.800705,248.316452 93.851967,249.080154 
	C94.117378,253.034882 95.045029,257.429352 93.713341,260.889893 
	C91.865402,265.691986 86.774704,262.285461 83.182938,262.873535 
	C81.605904,263.131683 78.376434,261.802246 78.237709,260.851990 
	C77.669952,256.962738 77.861794,252.931778 78.135605,248.978058 
	C78.186440,248.244034 79.864906,247.127411 80.862175,247.046112 
	C83.987434,246.791351 87.146149,246.946915 90.763359,246.948929 
z"/>
<path fill="#ECBE6A" opacity="1.000000" stroke="none" 
	d="
M66.414497,309.965485 
	C63.918961,304.642670 61.854134,299.298187 59.754356,293.582825 
	C63.185379,293.211914 66.651344,293.211914 70.943962,293.211914 
	C70.943962,298.207153 71.146248,302.965607 70.759270,307.675598 
	C70.688820,308.533051 68.211456,309.192810 66.414497,309.965485 
z"/>
<path fill="#F2BF6F" opacity="1.000000" stroke="none" 
	d="
M230.733826,141.853226 
	C207.494385,141.880981 184.254929,141.908737 160.558426,141.902481 
	C160.090042,137.274078 160.078720,132.679688 160.087311,127.637703 
	C183.323944,127.173500 206.540695,127.156891 230.290344,127.617065 
	C230.793442,132.680313 230.763626,137.266769 230.733826,141.853226 
z"/>
<path fill="#F3BF70" opacity="1.000000" stroke="none" 
	d="
M160.065674,247.517212 
	C183.352112,247.043762 206.619141,247.031540 230.381805,247.507019 
	C230.801224,252.591507 230.724976,257.188263 230.648712,261.785034 
	C207.436325,261.819824 184.223938,261.854584 160.553680,261.854187 
	C160.079300,257.205536 160.062775,252.591980 160.065674,247.517212 
z"/>
<path fill="#F3BF70" opacity="1.000000" stroke="none" 
	d="
M160.095886,157.671478 
	C183.337234,157.204407 206.557861,157.182892 230.302078,157.634735 
	C230.816925,162.706207 230.808182,167.304321 230.799454,171.902435 
	C207.531937,171.938095 184.264435,171.973740 160.537003,171.986694 
	C160.076462,167.348358 160.075821,162.732697 160.095886,157.671478 
z"/>
<path fill="#F3C172" opacity="1.000000" stroke="none" 
	d="
M229.765350,291.789825 
	C206.865112,291.782135 183.964890,291.774414 160.616028,291.709717 
	C160.167389,287.029572 160.167389,282.406494 160.167389,276.997162 
	C183.347519,276.997162 206.218719,276.997162 229.560516,276.960693 
	C230.031097,276.924225 230.403809,277.032349 230.637558,277.510498 
	C230.502655,282.589020 230.134003,287.189423 229.765350,291.789825 
z"/>
<path fill="#F3C173" opacity="1.000000" stroke="none" 
	d="
M229.581299,217.929337 
	C230.053238,217.886185 230.431961,217.995728 230.658142,218.483276 
	C230.599243,223.398178 230.314194,227.825516 230.029144,232.252869 
	C207.013824,232.221649 183.998505,232.190430 160.521912,232.135406 
	C160.060654,227.653915 160.060654,223.196213 160.060654,217.972488 
	C183.357605,217.972488 206.233490,217.972488 229.581299,217.929337 
z"/>
<path fill="#F3C172" opacity="1.000000" stroke="none" 
	d="
M160.042755,188.361542 
	C183.067566,187.839981 206.086548,187.795975 229.826843,188.095825 
	C230.665527,192.935944 230.782898,197.432236 230.900284,201.928528 
	C230.900284,201.928528 230.905594,201.908646 230.892044,201.894806 
	C207.519623,201.880981 184.160736,201.880981 160.036942,201.880981 
	C160.036942,197.325287 160.036942,193.082184 160.042755,188.361542 
z"/>
<path fill="#B14600" opacity="1.000000" stroke="none" 
	d="
M115.100235,59.013405 
	C109.904655,59.854523 108.799438,57.680492 108.904205,53.234989 
	C109.168808,42.006443 108.978676,42.256489 120.130974,41.912495 
	C125.056061,41.760582 126.771591,43.408230 125.991501,48.072987 
	C125.964531,48.234268 125.987968,48.403999 125.988083,48.569790 
	C125.995544,59.013416 125.995544,59.013416 115.100235,59.013405 
z"/>
<path fill="#F0BE6C" opacity="1.000000" stroke="none" 
	d="
M132.163300,47.278282 
	C131.778320,43.467857 133.053833,41.902237 136.633530,42.101055 
	C140.559174,42.319084 144.506287,42.150700 148.732666,42.150700 
	C148.732666,47.972511 148.732666,53.179211 148.732666,58.712547 
	C143.274200,58.712547 138.065796,58.712547 132.163177,58.712547 
	C132.163177,54.930313 132.163177,51.334652 132.163300,47.278282 
z"/>
<path fill="#F1BF70" opacity="1.000000" stroke="none" 
	d="
M162.085388,59.030540 
	C159.973480,59.030586 158.338943,59.030586 156.349854,59.030586 
	C156.349854,53.347385 156.349854,48.124393 156.349854,42.527374 
	C161.497742,42.527374 166.535370,42.527374 171.850159,42.527374 
	C171.850159,47.956203 171.850159,53.060543 171.850159,59.030491 
	C168.730789,59.030491 165.646774,59.030491 162.085388,59.030540 
z"/>
<path fill="#B04600" opacity="1.000000" stroke="none" 
	d="
M149.022415,77.811768 
	C148.611282,79.444130 148.254562,81.589661 147.782532,81.615334 
	C142.997086,81.875656 138.192230,81.824448 133.394943,81.739838 
	C132.981247,81.732544 132.430527,80.921028 132.218460,80.376083 
	C131.989075,79.786613 132.076385,79.071930 132.035950,78.411224 
	C131.282211,66.099525 133.935928,63.774696 146.451599,66.106895 
	C147.441666,66.291389 148.763641,67.841331 148.893646,68.885864 
	C149.239792,71.666550 149.018799,74.517822 149.022415,77.811768 
z"/>
<path fill="#F2C070" opacity="1.000000" stroke="none" 
	d="
M109.035660,74.000977 
	C109.035789,71.229279 109.035789,68.935478 109.035789,66.311310 
	C114.767677,66.311310 119.996689,66.311310 125.582367,66.311310 
	C125.582367,71.364075 125.582367,76.276321 125.582367,81.618759 
	C120.347977,81.618759 115.118011,81.618759 109.035530,81.618759 
	C109.035530,79.315193 109.035530,76.897034 109.035660,74.000977 
z"/>
<path fill="#F2C172" opacity="1.000000" stroke="none" 
	d="
M155.996399,69.237106 
	C156.858124,67.843140 157.667374,66.185669 158.582611,66.124924 
	C162.851089,65.841591 167.148834,65.999306 171.773163,65.999306 
	C171.773163,71.405090 171.773163,76.310196 171.773163,81.630951 
	C166.720779,81.630951 161.685760,81.630951 155.992767,81.630951 
	C155.992767,77.589607 155.992767,73.649384 155.996399,69.237106 
z"/>
<path fill="#279C2A" opacity="1.000000" stroke="none" 
	d="
M243.098083,295.926147 
	C242.970016,295.784363 243.026932,295.620483 243.233582,295.244019 
	C243.448380,295.249237 243.538101,295.464386 243.562454,295.686676 
	C243.569199,295.748199 243.381531,295.830994 243.098083,295.926147 
z"/>
<path fill="#ED9D00" opacity="1.000000" stroke="none" 
	d="
M231.205505,141.902359 
	C230.763626,137.266769 230.793442,132.680313 230.734894,127.654251 
	C231.964203,127.149284 233.294434,127.176857 234.597092,127.000694 
	C238.145538,126.520805 239.422592,128.113434 239.000061,131.513428 
	C238.858612,132.651642 238.997543,133.822617 238.974609,134.977951 
	C238.832153,142.155365 240.369049,142.125534 231.205505,141.902359 
z"/>
<path fill="#ED9D00" opacity="1.000000" stroke="none" 
	d="
M230.226410,291.853210 
	C230.134003,287.189423 230.502655,282.589020 230.830246,277.533386 
	C233.245331,277.078156 235.701477,277.078156 238.053879,277.078156 
	C241.332336,288.507507 239.503311,292.065216 230.226410,291.853210 
z"/>
<path fill="#ED9F01" opacity="1.000000" stroke="none" 
	d="
M230.344559,232.475540 
	C230.314194,227.825516 230.599243,223.398178 230.853088,218.512482 
	C233.273926,218.054153 235.725998,218.054153 238.071609,218.054153 
	C241.326645,229.903671 239.471832,233.425430 230.344559,232.475540 
z"/>
<path fill="#ED9D00" opacity="1.000000" stroke="none" 
	d="
M231.126831,261.848114 
	C230.724976,257.188263 230.801224,252.591507 230.836807,247.537415 
	C240.914673,246.775375 238.811707,246.717911 238.952957,255.068115 
	C239.071426,262.072083 238.976120,262.073700 231.126831,261.848114 
z"/>
<path fill="#ED9D00" opacity="1.000000" stroke="none" 
	d="
M231.357880,201.963379 
	C230.782898,197.432236 230.665527,192.935944 230.297943,188.087112 
	C232.825760,187.886536 237.848022,187.542831 238.009216,188.272751 
	C238.902328,192.316498 238.915405,196.657959 238.416458,200.799454 
	C238.337524,201.454636 234.119705,201.611160 231.357880,201.963379 
z"/>
<path fill="#ED9D00" opacity="1.000000" stroke="none" 
	d="
M231.265900,171.939301 
	C230.808182,167.304321 230.816925,162.706207 230.748322,157.668640 
	C231.985199,157.160233 233.311600,157.181366 234.611221,157.004974 
	C238.155014,156.524017 239.420990,158.122055 239.001251,161.510040 
	C238.860550,162.645706 238.995270,163.813797 238.977127,164.966644 
	C238.860580,172.373001 240.173157,172.081604 231.265900,171.939301 
z"/>
</svg>