<svg version="1.1" id="Layer_1" xmlns="http://www.w3.org/2000/svg" xmlns:xlink="http://www.w3.org/1999/xlink" x="0px" y="0px"
	 width="100%" viewBox="0 0 341 335" enable-background="new 0 0 341 335" xml:space="preserve">
<path fill="#FEFFFE" opacity="1.000000" stroke="none" 
	d="
M1.000003,261.000000 
	C1.000000,174.361679 1.000000,87.723366 1.000000,1.042524 
	C114.601120,1.042524 228.202271,1.042524 341.901703,1.042524 
	C341.901703,112.564529 341.901703,224.129166 341.901703,335.846924 
	C228.333481,335.846924 114.666771,335.846924 1.000000,335.846924 
	C1.000000,315.924347 1.000000,295.930847 1.363674,275.502228 
	C5.567530,284.967316 12.100190,291.942596 22.729284,294.867493 
	C22.695642,301.540009 22.695642,307.776367 22.695642,313.889587 
	C27.012556,313.889587 30.488302,313.889587 34.432159,313.944214 
	C57.583584,313.947357 80.266899,313.895905 103.406555,313.913818 
	C106.946152,313.928314 110.029411,313.873413 113.568336,313.894104 
	C148.179001,313.988831 182.334030,314.030609 216.489014,314.018341 
	C235.979004,314.011322 255.468948,313.916138 275.424469,313.929443 
	C281.250946,313.956055 286.611908,313.913879 292.424133,313.934631 
	C295.906036,314.012726 298.936646,314.027954 302.424988,314.099243 
	C304.281403,314.053833 305.680084,313.952332 307.197479,313.842194 
	C307.197479,307.018707 307.197479,300.705353 307.561462,294.286499 
	C322.402313,289.562347 330.412750,277.861298 328.137054,264.350372 
	C325.938599,250.479080 316.242554,241.948639 302.092712,240.591232 
	C301.990479,220.841782 301.976532,201.559998 301.900787,182.278458 
	C301.893829,180.505127 301.493042,178.733337 301.175415,176.626190 
	C293.776428,169.717926 286.531158,163.082916 279.164795,156.585281 
	C268.559143,147.230347 257.865387,137.975281 247.041519,128.493683 
	C246.534775,128.127335 246.226074,128.169113 245.484665,128.397614 
	C233.666199,128.306610 222.310730,128.253036 210.882843,127.723129 
	C210.795227,123.750412 210.497971,120.226334 210.837891,116.764832 
	C211.242447,112.645027 209.670532,110.131180 206.381348,107.653542 
	C185.645813,92.034096 165.125015,76.129982 144.454468,60.423641 
	C135.743927,53.805023 126.841484,47.438980 117.563591,40.863533 
	C93.027847,40.768940 68.954781,40.768940 44.565247,40.768940 
	C44.565247,43.406971 44.565239,45.227196 44.565243,47.047421 
	C44.565292,69.537056 44.537670,92.026733 44.575191,114.516304 
	C44.599915,129.336273 44.718422,144.156067 44.720680,159.317993 
	C44.730164,160.114151 44.813904,160.568283 44.739143,161.310425 
	C39.215282,166.713455 33.849915,171.828461 28.291061,177.310577 
	C28.061102,198.748383 28.024632,219.819061 27.578333,240.974213 
	C15.541573,241.946548 7.463955,247.741104 2.913733,258.499634 
	C2.517919,259.435486 1.649106,260.171265 1.000003,261.000000 
z"/>
<path fill="#049522" opacity="1.000000" stroke="none" 
	d="
M22.762926,294.431335 
	C12.100190,291.942596 5.567530,284.967316 1.363674,275.033569 
	C1.000000,273.611115 1.000000,272.222198 1.285340,270.230957 
	C1.380453,268.419098 1.190227,267.209534 1.000000,266.000000 
	C1.000000,264.611115 1.000000,263.222198 1.000003,261.416656 
	C1.649106,260.171265 2.517919,259.435486 2.913733,258.499634 
	C7.463955,247.741104 15.541573,241.946548 27.891312,241.065521 
	C29.034529,241.178909 29.454939,241.285461 29.630886,241.598694 
	C25.845970,244.114822 21.776524,245.900330 18.868608,248.836273 
	C11.440653,256.335815 12.406798,269.340088 20.437551,276.934448 
	C28.041893,284.125580 40.550922,284.162445 47.707329,276.678619 
	C50.397522,273.865356 52.332191,270.329620 54.718666,267.534119 
	C54.933033,280.780731 47.815685,289.797455 33.593925,294.305786 
	C29.720261,294.322968 26.241594,294.377136 22.762926,294.431335 
z"/>
<path fill="#5EB669" opacity="1.000000" stroke="none" 
	d="
M1.000000,266.399994 
	C1.190227,267.209534 1.380453,268.419098 1.285340,269.814331 
	C1.000000,268.933319 1.000000,267.866669 1.000000,266.399994 
z"/>
<path fill="#D4A866" opacity="1.000000" stroke="none" 
	d="
M301.275085,176.960831 
	C301.493042,178.733337 301.893829,180.505127 301.900787,182.278458 
	C301.976532,201.559998 301.990479,220.841782 302.019836,241.052643 
	C302.048523,255.316849 302.078705,268.651886 302.030731,282.443298 
	C301.995575,286.849457 302.038574,290.799255 302.017761,295.233765 
	C301.958435,301.826721 301.962830,307.934937 301.967224,314.043152 
	C298.936646,314.027954 295.906036,314.012726 292.438965,313.475403 
	C292.007721,300.376099 291.926056,287.797791 292.078125,275.222321 
	C292.117096,271.999756 291.122223,270.763245 287.838928,270.947205 
	C283.548859,271.187561 279.237610,271.050323 274.471588,271.048523 
	C220.481537,271.021454 166.955399,271.021454 113.112671,271.021454 
	C113.112671,285.877228 113.112671,299.847870 113.112671,313.818542 
	C110.029411,313.873413 106.946152,313.928314 103.418777,313.456482 
	C102.987686,267.671265 103.000717,222.412811 103.477692,177.096130 
	C169.719452,177.012222 235.497284,176.986526 301.275085,176.960831 
M273.956787,186.003632 
	C222.361435,185.995148 170.765823,186.056168 119.171150,185.863785 
	C114.350708,185.845825 113.733826,187.742081 113.879829,191.727280 
	C114.015831,195.439545 113.562073,198.184448 119.115845,198.158783 
	C171.043045,197.918808 222.971710,198.000916 275.855408,198.005539 
	C280.011475,198.007797 284.172089,197.892563 288.322052,198.052917 
	C291.163544,198.162720 292.266083,197.024109 292.031342,194.253494 
	C291.905457,192.767975 291.906769,191.254456 292.031097,189.768677 
	C292.261108,187.019852 291.207275,185.843033 288.342896,185.948441 
	C283.860168,186.113358 279.367401,186.006439 273.956787,186.003632 
M273.973999,228.009888 
	C222.208099,228.003021 170.441986,228.061829 118.676689,227.882507 
	C113.775604,227.865540 113.787430,230.280762 113.934410,233.730545 
	C114.072830,236.979355 113.054504,240.171112 118.612206,240.149536 
	C170.710159,239.947281 222.809128,240.008148 275.861542,240.011765 
	C280.015137,240.014420 284.173187,239.900421 288.320740,240.060135 
	C291.157379,240.169373 292.274841,239.035004 292.029572,236.264694 
	C291.912811,234.945908 291.890106,233.595093 292.033630,232.281616 
	C292.381744,229.095886 291.206696,227.756073 287.854736,227.940155 
	C283.547699,228.176682 279.218384,228.006561 273.973999,228.009888 
M275.852997,219.009064 
	C280.005402,219.011429 284.162262,218.898178 288.308716,219.056320 
	C291.131134,219.163971 292.276733,218.057114 292.029144,215.274734 
	C291.911835,213.956421 291.891815,212.606277 292.033447,211.292740 
	C292.374603,208.128357 291.242371,206.746475 287.871613,206.932831 
	C283.565918,207.170898 279.237732,207.001556 273.992004,206.999481 
	C222.224472,206.992599 170.456726,207.051315 118.689804,206.871948 
	C113.801888,206.855011 113.772667,209.246994 113.936020,212.710556 
	C114.088226,215.937698 113.019981,219.165604 118.596535,219.144104 
	C170.696152,218.943115 222.796783,219.004456 275.852997,219.009064 
M273.974701,249.025558 
	C230.980453,249.022568 187.986206,249.019455 144.991959,249.016663 
	C136.159805,249.016098 127.327232,248.974289 118.495918,249.060272 
	C117.096581,249.073898 114.548264,249.530273 114.491684,250.012146 
	C114.087837,253.451599 113.756638,257.038208 114.425346,260.372864 
	C114.604820,261.267883 118.321945,261.896118 120.416359,261.899719 
	C171.909256,261.988312 223.402344,261.976105 275.852661,261.983521 
	C278.342621,261.983826 280.833832,262.035919 283.322327,261.975220 
	C292.956512,261.740204 291.886261,264.065552 292.050171,252.776810 
	C292.090057,250.029449 291.197693,248.865234 288.343567,248.966782 
	C283.867279,249.126022 279.381256,249.012619 273.974701,249.025558 
z"/>
<path fill="#B2844F" opacity="1.000000" stroke="none" 
	d="
M103.013748,177.154343 
	C103.000717,222.412811 102.987686,267.671265 102.962440,313.387085 
	C80.266899,313.895905 57.583584,313.947357 34.441162,313.483398 
	C33.984341,306.759613 33.986629,300.551208 33.988918,294.342804 
	C47.815685,289.797455 54.933033,280.780731 54.816212,267.134521 
	C52.936176,251.463303 44.059971,242.586746 29.875351,241.392029 
	C29.454939,241.285461 29.034529,241.178909 28.301140,240.981049 
	C28.024632,219.819061 28.061102,198.748383 28.796856,177.340881 
	C54.017742,176.954727 78.539345,176.905380 103.049492,176.930664 
	C103.038040,177.005295 103.013748,177.154343 103.013748,177.154343 
M94.294830,238.972214 
	C90.968941,238.972565 87.632988,239.133881 84.320053,238.926895 
	C81.159958,238.729462 79.864670,239.716995 79.907829,243.098450 
	C79.947868,246.234390 81.115753,247.165558 84.058594,247.019516 
	C87.708145,246.838394 91.374451,246.920334 95.031548,246.990845 
	C97.720596,247.042694 98.934502,245.918045 99.023254,243.153229 
	C99.113136,240.352859 98.512398,238.543137 94.294830,238.972214 
M34.077873,183.252808 
	C32.737892,186.214554 31.386812,189.943802 35.766930,190.706482 
	C40.874729,191.595886 46.256096,190.914154 51.383041,190.914154 
	C52.669933,183.028458 52.635578,182.974625 45.930786,182.975098 
	C42.269562,182.975342 38.608341,183.012451 34.077873,183.252808 
M72.013649,228.275421 
	C70.937294,231.101471 68.988625,234.870300 73.403122,235.731934 
	C78.300163,236.687775 83.527664,235.950623 88.635483,235.950623 
	C88.635483,232.928772 88.635483,230.707840 88.635483,228.051361 
	C83.132446,228.051361 78.016548,228.051361 72.013649,228.275421 
M52.483276,193.014435 
	C50.490513,193.015411 48.487461,193.145294 46.507385,192.987274 
	C43.498962,192.747192 42.860767,194.303772 42.926353,196.912369 
	C42.986118,199.289688 43.071686,201.202011 46.287243,201.065491 
	C50.099823,200.903610 53.929569,200.906067 57.742443,201.064392 
	C61.010616,201.200073 61.027950,199.195908 61.028736,196.864487 
	C61.029480,194.662476 60.867344,192.815704 57.926838,193.006958 
	C56.438774,193.103760 54.938850,193.018097 52.483276,193.014435 
z"/>
<path fill="#E67A00" opacity="1.000000" stroke="none" 
	d="
M301.175446,176.626190 
	C235.497284,176.986526 169.719452,177.012222 103.477692,177.096130 
	C103.013748,177.154343 103.038040,177.005295 103.203079,176.649475 
	C120.787804,160.870148 138.207489,145.446655 155.627167,130.023178 
	C146.351013,128.973846 137.595169,129.045273 128.841568,128.936813 
	C125.583420,128.896454 122.330482,128.435272 119.536453,128.115692 
	C150.316925,128.110077 180.636093,128.154770 210.955276,128.199478 
	C222.310730,128.253036 233.666199,128.306610 245.657471,128.562317 
	C246.293304,128.764481 246.763901,128.854523 246.763901,128.854523 
	C246.763901,128.854523 247.209244,128.677612 247.209244,128.677612 
	C257.865387,137.975281 268.559143,147.230347 279.164795,156.585281 
	C286.531158,163.082916 293.776428,169.717926 301.175446,176.626190 
z"/>
<path fill="#BC6400" opacity="1.000000" stroke="none" 
	d="
M113.568336,313.894104 
	C113.112671,299.847870 113.112671,285.877228 113.112671,271.021454 
	C166.955399,271.021454 220.481537,271.021454 274.498810,271.509094 
	C274.979584,285.951416 274.969238,299.906036 274.958923,313.860687 
	C255.468948,313.916138 235.979004,314.011322 216.489014,314.018341 
	C182.334030,314.030609 148.179001,313.988831 113.568336,313.894104 
z"/>
<path fill="#B38550" opacity="1.000000" stroke="none" 
	d="
M44.794937,158.975937 
	C44.718422,144.156067 44.599915,129.336273 44.575191,114.516304 
	C44.537670,92.026733 44.565292,69.537056 44.565243,47.047421 
	C44.565239,45.227196 44.565247,43.406971 44.565247,40.768940 
	C68.954781,40.768940 93.027847,40.768940 117.557983,41.335495 
	C118.016640,70.566971 118.018227,99.231895 117.550949,127.936745 
	C106.750122,127.986900 96.415863,127.887665 86.088242,128.104660 
	C84.147087,128.145447 81.844070,128.992508 80.371956,130.246750 
	C73.547012,136.061630 67.046082,142.255737 60.249413,148.105255 
	C55.749348,151.978210 50.945393,155.498062 45.909126,159.109116 
	C45.292156,159.020126 45.043545,158.998032 44.794937,158.975937 
M110.984222,110.721199 
	C111.355934,108.314720 111.727646,105.908234 112.112358,103.417557 
	C105.517113,103.417557 99.962219,103.417557 94.365906,103.417557 
	C94.365906,106.065643 94.365906,108.286430 94.365906,110.946014 
	C99.867775,110.946014 104.982788,110.946014 110.984222,110.721199 
M69.011589,45.283405 
	C63.449917,45.283405 57.888245,45.283405 52.421532,45.283405 
	C52.421532,48.136044 52.421532,50.358727 52.421532,52.622635 
	C58.411781,52.622635 63.967300,52.622635 69.988213,52.622635 
	C69.867561,50.114429 69.766182,48.006821 69.011589,45.283405 
z"/>
<path fill="#D4A865" opacity="1.000000" stroke="none" 
	d="
M118.019821,127.896820 
	C118.018227,99.231895 118.016640,70.566971 118.020660,41.430084 
	C126.841484,47.438980 135.743927,53.805023 144.454468,60.423641 
	C165.125015,76.129982 185.645813,92.034096 206.381348,107.653542 
	C209.670532,110.131180 211.242447,112.645027 210.837891,116.764832 
	C210.497971,120.226334 210.795227,123.750412 210.882843,127.723129 
	C180.636093,128.154770 150.316925,128.110077 119.271347,128.051086 
	C118.369896,127.990150 118.194855,127.943489 118.019821,127.896820 
z"/>
<path fill="#BC6500" opacity="1.000000" stroke="none" 
	d="
M117.550949,127.936745 
	C118.194855,127.943489 118.369896,127.990150 118.810059,128.101410 
	C122.330482,128.435272 125.583420,128.896454 128.841568,128.936813 
	C137.595169,129.045273 146.351013,128.973846 155.627167,130.023178 
	C138.207489,145.446655 120.787804,160.870148 103.214539,176.574829 
	C78.539345,176.905380 54.017742,176.954727 28.990345,176.973785 
	C33.849915,171.828461 39.215282,166.713455 45.011566,161.176605 
	C45.720821,160.228516 45.999153,159.702271 46.277485,159.176010 
	C50.945393,155.498062 55.749348,151.978210 60.249413,148.105255 
	C67.046082,142.255737 73.547012,136.061630 80.371956,130.246750 
	C81.844070,128.992508 84.147087,128.145447 86.088242,128.104660 
	C96.415863,127.887665 106.750122,127.986900 117.550949,127.936745 
z"/>
<path fill="#03B12E" opacity="1.000000" stroke="none" 
	d="
M302.108856,281.986908 
	C302.078705,268.651886 302.048523,255.316849 302.091248,241.520386 
	C316.242554,241.948639 325.938599,250.479080 328.130737,264.749146 
	C326.248138,268.988892 324.889465,272.802124 322.515656,275.815674 
	C317.284668,282.456451 309.662354,282.374969 302.108856,281.986908 
z"/>
<path fill="#B2844E" opacity="1.000000" stroke="none" 
	d="
M275.424469,313.929443 
	C274.969238,299.906036 274.979584,285.951416 274.962708,271.536163 
	C279.237610,271.050323 283.548859,271.187561 287.838928,270.947205 
	C291.122223,270.763245 292.117096,271.999756 292.078125,275.222321 
	C291.926056,287.797791 292.007721,300.376099 291.987671,313.412537 
	C286.611908,313.913879 281.250946,313.956055 275.424469,313.929443 
z"/>
<path fill="#069623" opacity="1.000000" stroke="none" 
	d="
M302.030731,282.443298 
	C309.662354,282.374969 317.284668,282.456451 322.515656,275.815674 
	C324.889465,272.802124 326.248138,268.988892 328.073578,265.139648 
	C330.412750,277.861298 322.402313,289.562347 307.198517,294.238770 
	C305.008240,294.447357 303.544891,294.598175 302.081543,294.749023 
	C302.038574,290.799255 301.995575,286.849457 302.030731,282.443298 
z"/>
<path fill="#BA6600" opacity="1.000000" stroke="none" 
	d="
M33.593925,294.305786 
	C33.986629,300.551208 33.984341,306.759613 33.973053,313.428802 
	C30.488302,313.889587 27.012556,313.889587 22.695642,313.889587 
	C22.695642,307.776367 22.695642,301.540009 22.729284,294.867493 
	C26.241594,294.377136 29.720261,294.322968 33.593925,294.305786 
z"/>
<path fill="#BB6600" opacity="1.000000" stroke="none" 
	d="
M302.017761,295.233765 
	C303.544891,294.598175 305.008240,294.447357 306.834534,294.344238 
	C307.197479,300.705353 307.197479,307.018707 307.197479,313.842194 
	C305.680084,313.952332 304.281403,314.053833 302.424988,314.099243 
	C301.962830,307.934937 301.958435,301.826721 302.017761,295.233765 
z"/>
<path fill="#AE7F44" opacity="1.000000" stroke="none" 
	d="
M45.909126,159.109116 
	C45.999153,159.702271 45.720821,160.228516 45.170067,160.888580 
	C44.813904,160.568283 44.730164,160.114151 44.720680,159.317993 
	C45.043545,158.998032 45.292156,159.020126 45.909126,159.109116 
z"/>
<path fill="#D4A865" opacity="1.000000" stroke="none" 
	d="
M247.041519,128.493683 
	C247.209244,128.677612 246.763901,128.854523 246.763901,128.854523 
	C246.763901,128.854523 246.293304,128.764481 246.120483,128.599762 
	C246.226074,128.169113 246.534775,128.127335 247.041519,128.493683 
z"/>
<path fill="#01B12D" opacity="1.000000" stroke="none" 
	d="
M29.630886,241.598694 
	C44.059971,242.586746 52.936176,251.463303 54.708862,266.723663 
	C52.332191,270.329620 50.397522,273.865356 47.707329,276.678619 
	C40.550922,284.162445 28.041893,284.125580 20.437551,276.934448 
	C12.406798,269.340088 11.440653,256.335815 18.868608,248.836273 
	C21.776524,245.900330 25.845970,244.114822 29.630886,241.598694 
z"/>
<path fill="#E3C095" opacity="1.000000" stroke="none" 
	d="
M274.895386,261.981903 
	C223.402344,261.976105 171.909256,261.988312 120.416359,261.899719 
	C118.321945,261.896118 114.604820,261.267883 114.425346,260.372864 
	C113.756638,257.038208 114.087837,253.451599 114.491684,250.012146 
	C114.548264,249.530273 117.096581,249.073898 118.495918,249.060272 
	C127.327232,248.974289 136.159805,249.016098 144.991959,249.016663 
	C187.986206,249.019455 230.980453,249.022568 274.457458,249.481384 
	C274.925262,253.952103 274.910309,257.967010 274.895386,261.981903 
z"/>
<path fill="#E4C198" opacity="1.000000" stroke="none" 
	d="
M274.897125,218.989868 
	C222.796783,219.004456 170.696152,218.943115 118.596535,219.144104 
	C113.019981,219.165604 114.088226,215.937698 113.936020,212.710556 
	C113.772667,209.246994 113.801888,206.855011 118.689804,206.871948 
	C170.456726,207.051315 222.224472,206.992599 274.467346,207.463318 
	C274.927490,211.614731 274.912323,215.302292 274.897125,218.989868 
z"/>
<path fill="#E4C198" opacity="1.000000" stroke="none" 
	d="
M274.907806,239.992966 
	C222.809128,240.008148 170.710159,239.947281 118.612206,240.149536 
	C113.054504,240.171112 114.072830,236.979355 113.934410,233.730545 
	C113.787430,230.280762 113.775604,227.865540 118.676689,227.882507 
	C170.441986,228.061829 222.208099,228.003021 274.455078,228.469879 
	C274.926697,232.617569 274.917236,236.305267 274.907806,239.992966 
z"/>
<path fill="#E4C198" opacity="1.000000" stroke="none" 
	d="
M274.899963,197.989792 
	C222.971710,198.000916 171.043045,197.918808 119.115845,198.158783 
	C113.562073,198.184448 114.015831,195.439545 113.879829,191.727280 
	C113.733826,187.742081 114.350708,185.845825 119.171150,185.863785 
	C170.765823,186.056168 222.361435,185.995148 274.442963,186.467743 
	C274.919434,190.617828 274.909698,194.303802 274.899963,197.989792 
z"/>
<path fill="#BF8E53" opacity="1.000000" stroke="none" 
	d="
M275.374023,261.982727 
	C274.910309,257.967010 274.925262,253.952103 274.919800,249.475937 
	C279.381256,249.012619 283.867279,249.126022 288.343567,248.966782 
	C291.197693,248.865234 292.090057,250.029449 292.050171,252.776810 
	C291.886261,264.065552 292.956512,261.740204 283.322327,261.975220 
	C280.833832,262.035919 278.342621,261.983826 275.374023,261.982727 
z"/>
<path fill="#BD8C51" opacity="1.000000" stroke="none" 
	d="
M275.377686,197.997665 
	C274.909698,194.303802 274.919434,190.617828 274.904022,186.473251 
	C279.367401,186.006439 283.860168,186.113358 288.342896,185.948441 
	C291.207275,185.843033 292.261108,187.019852 292.031097,189.768677 
	C291.906769,191.254456 291.905457,192.767975 292.031342,194.253494 
	C292.266083,197.024109 291.163544,198.162720 288.322052,198.052917 
	C284.172089,197.892563 280.011475,198.007797 275.377686,197.997665 
z"/>
<path fill="#BD8C51" opacity="1.000000" stroke="none" 
	d="
M275.384674,240.002365 
	C274.917236,236.305267 274.926697,232.617569 274.917419,228.470734 
	C279.218384,228.006561 283.547699,228.176682 287.854736,227.940155 
	C291.206696,227.756073 292.381744,229.095886 292.033630,232.281616 
	C291.890106,233.595093 291.912811,234.945908 292.029572,236.264694 
	C292.274841,239.035004 291.157379,240.169373 288.320740,240.060135 
	C284.173187,239.900421 280.015137,240.014420 275.384674,240.002365 
z"/>
<path fill="#BE8C51" opacity="1.000000" stroke="none" 
	d="
M275.375061,218.999466 
	C274.912323,215.302292 274.927490,211.614731 274.930969,207.467484 
	C279.237732,207.001556 283.565918,207.170898 287.871613,206.932831 
	C291.242371,206.746475 292.374603,208.128357 292.033447,211.292740 
	C291.891815,212.606277 291.911835,213.956421 292.029144,215.274734 
	C292.276733,218.057114 291.131134,219.163971 288.308716,219.056320 
	C284.162262,218.898178 280.005402,219.011429 275.375061,218.999466 
z"/>
<path fill="#D2A563" opacity="1.000000" stroke="none" 
	d="
M94.762360,238.972809 
	C98.512398,238.543137 99.113136,240.352859 99.023254,243.153229 
	C98.934502,245.918045 97.720596,247.042694 95.031548,246.990845 
	C91.374451,246.920334 87.708145,246.838394 84.058594,247.019516 
	C81.115753,247.165558 79.947868,246.234390 79.907829,243.098450 
	C79.864670,239.716995 81.159958,238.729462 84.320053,238.926895 
	C87.632988,239.133881 90.968941,238.972565 94.762360,238.972809 
z"/>
<path fill="#D3A563" opacity="1.000000" stroke="none" 
	d="
M34.512497,183.142868 
	C38.608341,183.012451 42.269562,182.975342 45.930786,182.975098 
	C52.635578,182.974625 52.669933,183.028458 51.383041,190.914154 
	C46.256096,190.914154 40.874729,191.595886 35.766930,190.706482 
	C31.386812,189.943802 32.737892,186.214554 34.512497,183.142868 
z"/>
<path fill="#D3A763" opacity="1.000000" stroke="none" 
	d="
M72.457153,228.163391 
	C78.016548,228.051361 83.132446,228.051361 88.635483,228.051361 
	C88.635483,230.707840 88.635483,232.928772 88.635483,235.950623 
	C83.527664,235.950623 78.300163,236.687775 73.403122,235.731934 
	C68.988625,234.870300 70.937294,231.101471 72.457153,228.163391 
z"/>
<path fill="#D3A664" opacity="1.000000" stroke="none" 
	d="
M52.963783,193.014679 
	C54.938850,193.018097 56.438774,193.103760 57.926838,193.006958 
	C60.867344,192.815704 61.029480,194.662476 61.028736,196.864487 
	C61.027950,199.195908 61.010616,201.200073 57.742443,201.064392 
	C53.929569,200.906067 50.099823,200.903610 46.287243,201.065491 
	C43.071686,201.202011 42.986118,199.289688 42.926353,196.912369 
	C42.860767,194.303772 43.498962,192.747192 46.507385,192.987274 
	C48.487461,193.145294 50.490513,193.015411 52.963783,193.014679 
z"/>
<path fill="#D3A664" opacity="1.000000" stroke="none" 
	d="
M110.541016,110.833603 
	C104.982788,110.946014 99.867775,110.946014 94.365906,110.946014 
	C94.365906,108.286430 94.365906,106.065643 94.365906,103.417557 
	C99.962219,103.417557 105.517113,103.417557 112.112358,103.417557 
	C111.727646,105.908234 111.355934,108.314720 110.541016,110.833603 
z"/>
<path fill="#D4A764" opacity="1.000000" stroke="none" 
	d="
M69.338196,45.591309 
	C69.766182,48.006821 69.867561,50.114429 69.988213,52.622635 
	C63.967300,52.622635 58.411781,52.622635 52.421532,52.622635 
	C52.421532,50.358727 52.421532,48.136044 52.421532,45.283405 
	C57.888245,45.283405 63.449917,45.283405 69.338196,45.591309 
z"/>
</svg>